<svg width="122" height="128" viewBox="0 0 122 128" fill="none" xmlns="http://www.w3.org/2000/svg">
<path d="M69.9112 63.5091H69.3387L71.4092 63.0485C71.1725 63.1647 70.0274 63.5091 69.9112 63.5091ZM72.2099 63.0485H71.6331L72.2099 62.7041C71.6331 62.7041 71.1725 62.7041 70.7162 62.476C68.1893 62.9323 65.5506 63.0485 63.14 63.5091C63.0237 63.5091 62.7999 63.7372 62.7999 63.7372C62.7999 63.8535 62.7999 63.8535 62.9075 63.9654C64.0612 63.9654 65.2062 64.1978 66.4718 64.1978C67.5006 64.1978 68.6499 63.8535 69.6831 63.7372C68.7662 64.426 65.5506 64.3141 64.2893 64.3141C63.8287 64.3141 63.4843 64.426 63.14 64.5422C63.3681 65.231 64.1731 65.4591 64.4055 66.1479C66.9238 68.6704 69.2225 72.2304 71.0563 75.2135C71.0563 75.5622 71.1725 76.1347 71.4092 76.3629V76.8191C71.4092 77.0516 71.7493 77.396 71.9775 77.5122H72.0937C72.0937 77.6241 71.9775 77.7404 71.9775 77.8523C71.9775 78.3129 73.0149 78.6572 73.0149 79.0016C73.0149 79.1178 73.0149 79.2341 72.8987 79.2341C71.8612 79.1178 71.6331 78.5453 71.1725 77.7404C70.1437 77.0516 69.9112 75.5622 68.6499 74.9854C68.4218 74.0685 67.845 74.1804 67.5006 73.2635L66.4718 70.9691C66.9238 71.0853 67.2724 71.4297 67.2724 71.886C67.9612 73.4959 69.1062 74.5291 69.9112 76.0185C70.2556 76.1347 70.2556 76.5953 70.7162 76.7072C70.0274 74.7572 68.8824 72.2304 67.04 70.9691C67.04 70.6247 66.9238 70.1641 66.4718 70.1641C66.2393 70.1641 66.2393 70.6247 66.3556 70.7366C65.895 70.0522 65.6668 69.3635 64.9738 68.9029L65.09 68.6704C65.09 68.0979 64.7499 67.6373 64.2893 67.5254C64.0612 66.7204 63.14 67.5254 62.6837 66.6042C62.3393 65.8035 61.3019 65.5753 60.6174 65.5753C58.5512 68.6704 50.975 75.9023 49.9418 79.0016C49.2531 79.1178 48.7925 79.5784 48.108 79.5784C47.9918 79.5784 47.5312 79.5784 47.5312 79.346C47.5312 79.1178 47.9918 78.8854 48.108 78.5453C49.2531 76.7072 59.4681 66.0316 59.4681 64.6541C59.4681 64.3141 58.6674 64.0816 58.323 64.0816C57.9744 63.9654 57.5181 63.8535 57.1694 63.8535C56.1406 63.8535 55.2194 64.0816 54.1905 64.0816C51.7799 64.0816 49.2531 64.5422 46.7262 64.5422C46.2656 64.5422 46.5024 64.0816 46.1494 63.7372C46.9544 63.621 47.6474 63.0485 48.4524 63.0485C48.6763 63.0485 49.1369 63.1647 49.4812 63.3929C50.1743 63.3929 50.8587 63.5091 51.5475 63.5091C54.0743 63.5091 57.63 63.3929 60.0406 62.8204C60.1568 62.7041 60.273 62.7041 60.273 62.5879C60.273 62.476 59.6962 62.3598 59.8124 62.0154C59.8124 61.5548 57.1694 59.2604 57.1694 58.5716C57.2856 58.5716 57.2856 58.4554 57.2856 58.4554C57.2856 57.1984 53.2693 52.4891 52.2319 51.3398V51.2279C52.2319 50.5391 51.6637 50.1947 51.6637 49.6222C51.6637 49.3898 52.0081 49.1616 52.2319 49.1616C52.5849 49.1616 52.8087 49.6222 53.0369 49.8504C52.925 49.9623 52.8087 50.0828 52.8087 50.1947C52.8087 50.7673 55.3356 53.9786 55.5637 53.9786C55.68 53.9786 55.68 53.6385 55.7962 53.6385C58.435 55.2441 59.1237 58.2316 60.8413 60.5217C62.5674 60.5217 66.3556 51.2279 68.538 50.4229H68.7662C66.8162 53.2941 64.6337 56.0491 63.0237 59.1485L63.2519 59.3766C64.2893 58.916 64.0612 57.771 64.5175 57.4266C64.7499 57.0822 65.8949 56.3935 65.8949 56.0491C65.8949 55.8166 68.7662 52.261 69.3387 50.9997C69.9112 50.4229 70.2556 49.7341 70.8324 49.0497L70.0274 49.2735C70.2556 48.3567 72.2099 47.2116 73.1225 47.3235C72.0937 49.1616 70.1437 50.1947 69.3387 52.1448C68.3056 54.3272 67.1562 55.5885 65.6668 57.4266V57.5385C65.6668 57.8829 64.9738 58.2316 64.9738 58.5716C64.2893 59.721 62.1068 60.9823 62.1068 62.5879C62.4512 62.7041 62.9075 62.7041 63.2519 62.7041C66.2393 62.7041 69.3387 62.0154 72.3218 62.0154C73.3549 62.0154 74.8487 61.9035 75.7656 62.3598C74.6205 62.8204 73.3549 62.9323 72.2099 63.0485Z" fill="#000" stroke="#000" stroke-width="0.268658" stroke-miterlimit="10"/>
<path d="M78.9079 81.3523C79.1791 80.4828 79.4201 79.553 79.6526 78.606C79.8807 78.3003 80.1261 78.0033 80.3456 77.6891C80.3456 79.1139 79.5966 80.2159 78.9079 81.3523ZM71.8525 92.4971C71.7363 93.074 71.28 93.1859 70.8237 93.3021C71.2628 92.0624 71.8353 90.8958 72.3949 89.7421C73.5055 89.3203 74.4956 88.3604 75.5674 87.7964C74.4267 89.4322 73.1999 91.0163 71.8525 92.4971ZM78.0168 80.7239C77.3151 82.2004 76.4628 83.8275 75.4082 85.8378C74.5214 86.2123 74.0909 87.1206 73.4797 87.7749C73.5959 87.4348 73.7078 87.0819 73.9188 86.8709C74.9045 84.5938 76.4542 82.6653 78.0168 80.7239ZM65.1932 97.4346C64.3882 98.924 61.1769 100.762 59.6875 100.762C58.0819 100.762 56.7001 99.2727 55.0944 99.1565C54.75 98.0071 53.4888 98.5797 52.6838 98.0071C50.7338 96.6296 48.0907 93.8746 46.9457 91.8084C44.9957 88.1365 43.2738 83.3153 42.2407 79.4152C41.7844 77.8053 41.7844 68.5072 41.7844 66.5572C41.7844 59.674 41.5519 54.2759 44.4188 47.9653C44.4188 46.5878 45.8006 45.7828 45.8006 44.7497V44.2934C46.6013 43.3765 46.6013 41.8828 47.6387 41.0778C48.6675 37.7503 51.7669 35.6841 53.3726 32.5847C54.6338 32.0122 54.9825 30.2903 56.1318 29.4853C58.6501 27.8797 61.2931 25.5853 64.5044 25.5853C64.8488 25.8134 65.1932 26.0416 65.6538 26.0416C65.8862 26.0416 65.9982 25.9297 66.2306 25.9297L66.6912 25.5853C67.1475 25.6972 67.72 26.1578 67.9525 25.3528C70.0187 25.8134 72.8899 24.7803 74.1512 27.0747C78.6281 29.9459 77.2463 36.0284 79.0801 40.1609C79.4287 43.8328 79.7731 47.5047 79.885 51.2928C80.0013 56.4584 80.69 61.624 80.69 66.9016C80.69 71.1589 80.393 73.888 79.6827 76.3934C79.2264 77.2715 78.7486 78.1324 78.2794 79.0709C77.0224 79.7553 76.79 81.5934 75.4082 82.054C74.53 83.7199 73.4668 86.0789 72.2442 88.4594C72.227 88.4637 72.2184 88.4766 72.1969 88.4809C72.0462 88.3604 72.0204 88.1882 71.93 88.0461C71.6201 88.4163 71.3144 88.7951 70.9614 89.1309C71.1379 89.3763 71.3058 89.6345 71.5124 89.8326C69.6916 93.1988 67.5694 96.3713 65.1932 97.4346ZM56.8163 102.596C53.2606 102.596 49.2444 101.335 47.1781 98.3515C45.5725 96.2852 43.39 94.3352 42.3526 91.8084C41.3238 90.6634 37.8757 76.8884 37.8757 74.8222C37.8757 74.7059 37.8757 74.2496 38.2244 74.2496C39.6019 74.2496 42.1244 81.5934 42.3526 82.6265C43.39 86.0703 45.34 89.7422 46.9457 92.9534C47.8669 94.5634 49.1281 95.7127 50.0493 97.3184C51.1944 97.6628 51.7669 98.924 53.0282 99.1565C53.605 100.19 54.75 100.302 55.4388 101.106C55.8994 101.106 57.1607 101.451 57.1607 102.023C57.1607 102.256 57.1607 102.596 56.8163 102.596ZM84.1337 67.7065C83.5569 68.1671 82.5281 68.8559 82.6443 69.7728V70.1171C81.7231 71.4946 81.6069 73.1003 80.69 74.4778C80.5996 74.6241 80.535 74.7834 80.4533 74.9298C81.8695 67.1857 82.3 58.2965 82.3 53.2428C82.3 48.5378 80.69 43.949 80.2337 39.244C80.0013 35.5678 79.885 31.5516 77.4744 28.5684C75.0638 25.8135 71.7363 23.7472 67.9525 23.7472C67.3757 23.7472 66.8074 23.7472 66.2306 23.8634C65.77 23.5191 65.1932 23.4028 64.625 23.4028C62.8988 23.4028 61.5213 24.6641 59.9157 24.6641C59.4594 24.6641 58.9988 24.5522 58.6501 24.436L58.0819 25.0128L60.1481 25.1247C60.2643 25.3528 60.4882 25.5853 60.4882 25.8134C60.4882 26.5022 58.5425 26.2697 58.3057 27.4191C54.6338 29.3691 50.7338 34.0784 48.5513 37.5179C47.29 39.5841 46.1407 42.1109 44.9957 44.2934C44.8794 44.4053 44.0745 46.1272 43.8506 46.1272C43.8506 46.9322 43.6182 47.6209 43.5062 48.3097C42.585 49.2266 43.1576 50.9484 42.2407 51.8696C40.8632 56.226 39.7181 61.624 39.7181 66.1009C39.7181 66.441 39.4857 66.5572 39.1413 66.6734C39.0294 65.6403 38.6807 64.4909 38.7969 63.3459V62.6572C39.2575 52.3259 39.4857 43.6004 45.5725 34.6509C50.157 27.8797 56.0156 26.8466 57.7375 24.7803C57.3931 24.7803 57.1607 24.6641 56.8163 24.6641C55.8994 24.6641 54.9825 25.1247 54.5262 25.9297C47.9831 28.1078 44.7675 34.0784 42.0082 39.8166C41.5519 40.5053 40.9794 40.9616 40.8632 41.8828C40.4026 43.949 40.0582 45.8991 39.2575 47.9653C39.0294 48.766 38.5688 50.0315 38.5688 50.8322C38.5688 51.5253 38.9132 52.2097 38.9132 52.9028C38.9132 53.8153 38.7969 54.6203 38.5688 55.5415C37.3075 61.8522 36.9631 68.7396 36.9631 75.1665C36.9631 80.3321 39.2575 84.9209 40.8632 89.6302C42.585 94.6796 46.2569 98.8121 50.157 102.256L53.0282 102.712C53.7212 103.289 54.5262 103.517 55.4388 103.517C56.7001 103.517 57.9656 103.057 59.2269 103.173H59.6875C61.2931 102.14 64.0481 101.451 65.3094 100.073C65.6538 99.8452 65.8862 99.0402 66.3468 99.0402C66.4545 99.0402 66.575 99.0402 66.6912 99.1565C69.0975 96.5134 72.085 94.3352 74.2631 91.5802C75.4082 90.2028 76.1012 88.4809 77.13 86.9915C77.4744 86.5309 77.4744 85.8378 78.0512 85.4977C79.4287 82.054 84.9387 71.034 84.9387 68.0509V67.7065H84.1337Z" fill="#000"/>
<path d="M78.9079 81.3523C79.1791 80.4828 79.4201 79.553 79.6526 78.606C79.8807 78.3003 80.1261 78.0033 80.3456 77.6891C80.3456 79.1139 79.5966 80.2159 78.9079 81.3523ZM71.8525 92.4971C71.7363 93.074 71.28 93.1859 70.8237 93.3021C71.2628 92.0624 71.8353 90.8958 72.3949 89.7422C73.5055 89.3203 74.4956 88.3604 75.5674 87.7964C74.4267 89.4322 73.1999 91.0163 71.8525 92.4971ZM78.0168 80.7239C77.3151 82.2004 76.4628 83.8275 75.4082 85.8378C74.5214 86.2123 74.0909 87.1206 73.4797 87.7749C73.5959 87.4348 73.7078 87.0819 73.9188 86.8709C74.9045 84.5938 76.4542 82.6653 78.0168 80.7239ZM65.1932 97.4346C64.3882 98.924 61.1769 100.762 59.6875 100.762C58.0819 100.762 56.7001 99.2727 55.0944 99.1565C54.75 98.0071 53.4888 98.5797 52.6838 98.0071C50.7338 96.6296 48.0907 93.8746 46.9457 91.8084C44.9957 88.1365 43.2738 83.3153 42.2407 79.4152C41.7844 77.8053 41.7844 68.5072 41.7844 66.5572C41.7844 59.674 41.5519 54.2759 44.4188 47.9653C44.4188 46.5878 45.8006 45.7828 45.8006 44.7497V44.2934C46.6013 43.3765 46.6013 41.8828 47.6387 41.0778C48.6675 37.7503 51.7669 35.6841 53.3726 32.5847C54.6338 32.0122 54.9825 30.2903 56.1318 29.4853C58.6501 27.8797 61.2932 25.5853 64.5044 25.5853C64.8488 25.8134 65.1932 26.0416 65.6538 26.0416C65.8862 26.0416 65.9982 25.9297 66.2306 25.9297L66.6912 25.5853C67.1475 25.6972 67.72 26.1578 67.9525 25.3528C70.0187 25.8134 72.8899 24.7803 74.1512 27.0747C78.6281 29.9459 77.2463 36.0284 79.0801 40.1609C79.4287 43.8328 79.7731 47.5047 79.885 51.2928C80.0013 56.4584 80.69 61.624 80.69 66.9016C80.69 71.1589 80.393 73.888 79.6827 76.3934C79.2264 77.2715 78.7486 78.1324 78.2794 79.0709C77.0224 79.7553 76.79 81.5934 75.4082 82.054C74.53 83.7199 73.4668 86.0789 72.2442 88.4594C72.227 88.4637 72.2184 88.4766 72.1969 88.4809C72.0462 88.3604 72.0204 88.1882 71.93 88.0461C71.6201 88.4163 71.3144 88.7951 70.9614 89.1309C71.1379 89.3763 71.3058 89.6345 71.5124 89.8325C69.6916 93.1988 67.5694 96.3713 65.1932 97.4346ZM56.8163 102.596C53.2606 102.596 49.2444 101.335 47.1781 98.3515C45.5725 96.2853 43.39 94.3352 42.3526 91.8084C41.3238 90.6633 37.8757 76.8884 37.8757 74.8222C37.8757 74.7059 37.8757 74.2496 38.2244 74.2496C39.6019 74.2496 42.1244 81.5934 42.3526 82.6265C43.39 86.0703 45.34 89.7422 46.9457 92.9534C47.8669 94.5634 49.1281 95.7127 50.0493 97.3184C51.1944 97.6628 51.7669 98.924 53.0282 99.1565C53.605 100.19 54.75 100.302 55.4388 101.106C55.8994 101.106 57.1607 101.451 57.1607 102.023C57.1607 102.256 57.1607 102.596 56.8163 102.596ZM84.1337 67.7065C83.5569 68.1671 82.5281 68.8559 82.6443 69.7728V70.1171C81.7231 71.4946 81.6069 73.1003 80.69 74.4778C80.5996 74.6241 80.535 74.7834 80.4533 74.9298C81.8695 67.1857 82.3 58.2965 82.3 53.2428C82.3 48.5378 80.69 43.949 80.2337 39.244C80.0013 35.5678 79.885 31.5516 77.4744 28.5684C75.0638 25.8135 71.7363 23.7472 67.9525 23.7472C67.3757 23.7472 66.8074 23.7472 66.2306 23.8634C65.77 23.5191 65.1932 23.4028 64.625 23.4028C62.8988 23.4028 61.5213 24.6641 59.9157 24.6641C59.4594 24.6641 58.9988 24.5522 58.6501 24.436L58.0819 25.0128L60.1481 25.1247C60.2643 25.3528 60.4882 25.5853 60.4882 25.8134C60.4882 26.5022 58.5425 26.2697 58.3057 27.4191C54.6338 29.3691 50.7338 34.0784 48.5513 37.5179C47.29 39.5841 46.1407 42.1109 44.9957 44.2934C44.8794 44.4053 44.0745 46.1272 43.8506 46.1272C43.8506 46.9322 43.6182 47.6209 43.5062 48.3097C42.585 49.2266 43.1576 50.9484 42.2407 51.8696C40.8632 56.226 39.7181 61.624 39.7181 66.1009C39.7181 66.441 39.4857 66.5572 39.1413 66.6734C39.0294 65.6403 38.6807 64.4909 38.7969 63.3459V62.6571C39.2575 52.3259 39.4857 43.6004 45.5725 34.6509C50.157 27.8797 56.0156 26.8466 57.7375 24.7803C57.3931 24.7803 57.1607 24.6641 56.8163 24.6641C55.8994 24.6641 54.9825 25.1247 54.5262 25.9297C47.9831 28.1078 44.7675 34.0784 42.0082 39.8166C41.5519 40.5053 40.9794 40.9616 40.8632 41.8828C40.4026 43.949 40.0582 45.8991 39.2575 47.9653C39.0294 48.766 38.5688 50.0315 38.5688 50.8322C38.5688 51.5253 38.9132 52.2097 38.9132 52.9028C38.9132 53.8153 38.7969 54.6203 38.5688 55.5415C37.3075 61.8522 36.9631 68.7396 36.9631 75.1665C36.9631 80.3321 39.2575 84.9209 40.8632 89.6302C42.585 94.6796 46.2569 98.8121 50.157 102.256L53.0282 102.712C53.7212 103.289 54.5262 103.517 55.4388 103.517C56.7001 103.517 57.9656 103.057 59.2269 103.173H59.6875C61.2931 102.14 64.0481 101.451 65.3094 100.073C65.6538 99.8452 65.8862 99.0402 66.3468 99.0402C66.4545 99.0402 66.575 99.0402 66.6912 99.1565C69.0975 96.5134 72.085 94.3352 74.2631 91.5802C75.4082 90.2028 76.1012 88.4809 77.13 86.9915C77.4744 86.5309 77.4744 85.8378 78.0512 85.4977C79.4287 82.054 84.9387 71.034 84.9387 68.0509V67.7065H84.1337Z" stroke="#000" stroke-width="0.268658" stroke-miterlimit="10"/>
<path d="M60.2599 101.558C60.1437 101.558 60.0275 101.674 60.0275 101.786H60.2599C60.2599 101.674 60.2599 101.674 60.3718 101.674C60.3718 101.558 60.3718 101.558 60.2599 101.558Z" fill="#000"/>
<path d="M60.2605 101.558V101.786" stroke="#000" stroke-width="0.268658" stroke-miterlimit="10"/>
</svg>
