<svg width="305" height="320" viewBox="0 0 305 320" fill="none" xmlns="http://www.w3.org/2000/svg">
<path d="M175.272 158.83H173.849L179.011 157.683C178.431 157.966 175.563 158.83 175.272 158.83ZM181.023 157.683H179.578L181.023 156.819C179.578 156.819 178.431 156.819 177.284 156.245C170.967 157.393 164.373 157.683 158.347 158.83C158.056 158.83 157.49 159.404 157.49 159.404C157.49 159.687 157.49 159.687 157.766 159.97C160.648 159.97 163.516 160.544 166.675 160.544C169.246 160.544 172.114 159.687 174.706 159.404C172.404 161.125 164.373 160.841 161.215 160.841C160.067 160.841 159.21 161.125 158.347 161.415C158.913 163.129 160.924 163.702 161.505 165.43C167.808 171.74 173.558 180.635 178.141 188.092C178.141 188.956 178.431 190.393 179.011 190.967V192.107C179.011 192.681 179.868 193.552 180.435 193.835H180.732C180.732 194.118 180.435 194.409 180.435 194.692C180.435 195.839 183.027 196.703 183.027 197.567C183.027 197.85 183.027 198.141 182.737 198.141C180.145 197.85 179.578 196.413 178.431 194.409C175.853 192.681 175.272 188.956 172.114 187.518C171.547 185.224 170.11 185.507 169.246 183.22L166.675 177.476C167.808 177.767 168.679 178.631 168.679 179.778C170.4 183.793 173.261 186.378 175.272 190.103C176.129 190.393 176.129 191.541 177.284 191.824C175.563 186.952 172.694 180.635 168.098 177.476C168.098 176.619 167.808 175.472 166.675 175.472C166.087 175.472 166.087 176.619 166.384 176.903C165.23 175.189 164.664 173.461 162.936 172.314L163.226 171.74C163.226 170.303 162.362 169.155 161.215 168.872C160.648 166.861 158.347 168.872 157.199 166.571C156.342 164.566 153.751 163.993 152.037 163.993C146.867 171.74 127.937 189.82 125.345 197.567C123.631 197.85 122.477 198.998 120.763 198.998C120.473 198.998 119.318 198.998 119.318 198.424C119.318 197.85 120.473 197.277 120.763 196.413C123.631 191.824 149.168 165.14 149.168 161.698C149.168 160.841 147.157 160.261 146.3 160.261C145.429 159.97 144.289 159.687 143.418 159.687C140.84 159.687 138.546 160.261 135.968 160.261C129.941 160.261 123.631 161.415 117.314 161.415C116.167 161.415 116.747 160.261 115.87 159.404C117.881 159.113 119.616 157.683 121.62 157.683C122.187 157.683 123.341 157.966 124.198 158.54C125.926 158.54 127.647 158.83 129.361 158.83C135.677 158.83 144.565 158.54 150.592 157.109C150.882 156.819 151.173 156.819 151.173 156.529C151.173 156.245 149.735 155.955 150.025 155.098C150.025 153.951 143.418 148.208 143.418 146.494C143.708 146.494 143.708 146.196 143.708 146.196C143.708 143.052 133.666 131.282 131.081 128.407V128.124C131.081 126.403 129.651 125.546 129.651 124.108C129.651 123.535 130.508 122.961 131.081 122.961C131.952 122.961 132.519 124.108 133.086 124.682C132.809 124.972 132.519 125.262 132.519 125.546C132.519 126.976 138.836 135.007 139.403 135.007C139.693 135.007 139.693 134.15 139.983 134.15C146.577 138.166 148.311 145.63 152.603 151.366C156.909 151.366 166.384 128.124 171.837 126.119H172.404C167.532 133.293 162.072 140.177 158.056 147.924L158.623 148.498C161.215 147.351 160.648 144.482 161.781 143.625C162.362 142.755 165.23 141.041 165.23 140.177C165.23 139.603 172.404 130.708 173.849 127.55C175.272 126.119 176.129 124.392 177.574 122.678L175.563 123.244C176.129 120.95 181.023 118.089 183.303 118.372C180.732 122.961 175.853 125.546 173.849 130.418C171.257 135.878 168.389 139.023 164.664 143.625V143.909C164.664 144.766 162.936 145.63 162.936 146.494C161.215 149.355 155.762 152.513 155.762 156.529C156.619 156.819 157.766 156.819 158.623 156.819C166.087 156.819 173.849 155.098 181.299 155.098C183.884 155.098 187.609 154.815 189.911 155.955C187.042 157.109 183.884 157.393 181.023 157.683Z" fill="#FFF"/>
<path d="M197.803 203.379C198.487 201.202 199.081 198.887 199.662 196.51C200.235 195.742 200.843 195.01 201.396 194.229C201.396 197.781 199.523 200.539 197.803 203.379ZM180.165 231.245C179.875 232.676 178.734 232.959 177.587 233.249C178.686 230.153 180.116 227.243 181.519 224.355C184.291 223.297 186.779 220.906 189.447 219.489C186.592 223.581 183.531 227.541 180.165 231.245ZM195.57 201.803C193.822 205.501 191.686 209.572 189.053 214.596C186.841 215.529 185.763 217.803 184.236 219.441C184.526 218.584 184.809 217.699 185.328 217.181C187.795 211.479 191.665 206.662 195.57 201.803ZM163.515 243.581C161.511 247.307 153.473 251.903 149.748 251.903C145.733 251.903 142.284 248.177 138.268 247.88C137.411 245.019 134.253 246.45 132.242 245.019C127.369 241.57 120.762 234.687 117.894 229.517C113.021 220.339 108.716 208.286 106.138 198.535C104.99 194.519 104.99 171.27 104.99 166.398C104.99 149.182 104.41 135.691 111.584 119.913C111.584 116.471 115.033 114.46 115.033 111.882V110.728C117.037 108.441 117.037 104.708 119.629 102.697C122.207 94.3763 129.947 89.2067 133.963 81.4593C137.121 80.0287 137.992 75.723 140.86 73.7188C147.163 69.6965 153.764 63.9602 161.801 63.9602C162.658 64.5339 163.515 65.1006 164.663 65.1006C165.25 65.1006 165.527 64.8172 166.107 64.8172L167.255 63.9602C168.409 64.2436 169.832 65.3978 170.413 63.3866C175.583 64.5339 182.757 61.956 185.908 67.6854C197.104 74.8591 193.656 90.0706 198.238 100.396C199.109 109.581 199.966 118.759 200.242 128.234C200.532 141.144 202.253 154.054 202.253 167.255C202.253 177.898 201.521 184.719 199.745 190.981C198.597 193.185 197.402 195.328 196.227 197.678C193.082 199.392 192.502 203.981 189.053 205.135C186.862 209.302 184.201 215.19 181.146 221.148C181.098 221.155 181.07 221.196 181.022 221.196C180.656 220.899 180.58 220.471 180.358 220.111C179.584 221.044 178.824 221.984 177.932 222.82C178.375 223.442 178.796 224.085 179.315 224.576C174.76 233.001 169.452 240.928 163.515 243.581ZM142.574 256.492C133.686 256.492 123.644 253.333 118.481 245.876C114.459 240.713 109.006 235.834 106.414 229.517C103.836 226.656 95.2248 192.218 95.2248 187.055C95.2248 186.765 95.2248 185.618 96.0956 185.618C99.5305 185.618 105.847 203.981 106.414 206.565C109.006 215.17 113.878 224.355 117.894 232.385C120.195 236.408 123.354 239.276 125.655 243.291C128.517 244.148 129.947 247.307 133.106 247.88C134.543 250.465 137.411 250.748 139.125 252.766C140.28 252.766 143.438 253.623 143.438 255.061C143.438 255.635 143.438 256.492 142.574 256.492ZM210.865 169.266C209.427 170.413 206.849 172.134 207.14 174.428V175.285C204.845 178.734 204.555 182.749 202.253 186.191C202.025 186.557 201.873 186.951 201.659 187.318C205.205 167.96 206.283 145.747 206.283 133.106C206.283 121.344 202.253 109.871 201.12 98.1083C200.532 88.9234 200.242 78.8745 194.222 71.4174C188.196 64.5339 179.875 59.3712 170.413 59.3712C168.975 59.3712 167.545 59.3712 166.107 59.6546C164.96 58.7976 163.515 58.5073 162.092 58.5073C157.786 58.5073 154.337 61.6657 150.315 61.6657C149.181 61.6657 148.034 61.3755 147.163 61.0852L145.733 62.5296L150.902 62.813C151.193 63.3866 151.759 63.9602 151.759 64.5339C151.759 66.2547 146.887 65.6811 146.299 68.5492C137.121 73.4285 127.369 85.1913 121.916 93.7957C118.758 98.9653 115.89 105.282 113.021 110.728C112.731 111.011 110.72 115.324 110.153 115.324C110.153 117.328 109.573 119.056 109.296 120.77C106.995 123.071 108.425 127.37 106.138 129.672C102.689 140.571 99.8208 154.054 99.8208 165.243C99.8208 166.107 99.2403 166.398 98.3833 166.681C98.1068 164.096 97.236 161.228 97.5263 158.367V156.639C98.6735 130.819 99.2403 109.007 114.459 86.622C125.932 69.6965 140.57 67.1117 144.876 61.956C144.019 61.956 143.438 61.6657 142.574 61.6657C140.28 61.6657 137.992 62.813 136.845 64.8172C120.486 70.2701 112.455 85.1913 105.557 99.5389C104.41 101.267 102.979 102.407 102.689 104.708C101.542 109.871 100.685 114.743 98.6735 119.913C98.1068 121.917 96.9595 125.076 96.9595 127.087C96.9595 128.808 97.8165 130.529 97.8165 132.249C97.8165 134.544 97.5263 136.548 96.9595 138.85C93.8011 154.628 92.9371 171.844 92.9371 187.919C92.9371 200.822 98.6735 212.308 102.689 224.071C106.995 236.691 116.18 247.023 125.932 255.635L133.106 256.782C134.834 258.212 136.845 258.793 139.125 258.793C142.284 258.793 145.442 257.639 148.601 257.922H149.748C153.764 255.351 160.647 253.623 163.806 250.182C164.663 249.608 165.25 247.597 166.397 247.597C166.674 247.597 166.964 247.597 167.255 247.88C173.281 241.287 180.745 235.834 186.185 228.944C189.053 225.502 190.788 221.196 193.359 217.471C194.222 216.324 194.222 214.596 195.66 213.739C199.109 205.135 212.876 177.587 212.876 170.13V169.266H210.865Z" fill="#FFF"/>
<path d="M151.179 253.921C150.889 253.921 150.599 254.211 150.599 254.495H151.179C151.179 254.211 151.179 254.211 151.456 254.211C151.456 253.921 151.456 253.921 151.179 253.921Z" fill="#FFF"/>
</svg>
