<svg width="320" height="158" viewBox="0 0 320 158" fill="none" xmlns="http://www.w3.org/2000/svg">
<path d="M48.2005 87.7593C46.913 88.2497 46.913 89.2933 45.9927 89.9672L46.2366 90.0904C46.7269 89.6001 48.3237 88.9261 48.3237 88.1894C48.3237 88.0661 48.2609 87.8826 48.2005 87.7593ZM47.8334 85.1818C47.9566 85.0586 48.017 84.875 48.017 84.6915C48.017 84.3243 47.8334 83.9547 47.8334 83.5247C46.9734 81.8675 46.483 79.9664 45.3791 78.3696C44.6423 78.1861 45.1326 77.5725 44.5794 77.3286C44.3355 76.285 43.7219 75.4879 42.9248 74.8743C42.7387 74.4443 42.1251 73.4007 41.6976 73.2171V73.5239C42.0648 73.7678 42.188 74.1375 42.3716 74.4443C43.9684 77.0218 45.8066 79.5364 46.7898 82.4207C47.0966 83.5247 47.7102 84.875 47.7102 86.0418C47.7102 86.5322 47.6498 86.9622 47.4034 87.3897C47.4034 87.5129 47.5266 87.6361 47.6498 87.5758C47.9566 87.2061 48.017 86.7786 48.017 86.2858C48.017 85.9186 47.9566 85.5515 47.8334 85.1818ZM41.3908 72.7871L41.2676 72.8475L41.3908 72.9103V72.7871ZM40.7144 71.2532C40.1008 70.8835 40.2844 70.3328 39.4873 69.7192C39.4269 69.6589 39.4873 69.5357 39.4873 69.4125C39.4873 69.2289 39.2433 69.2289 39.1201 69.2289V69.4728C39.1201 70.3932 40.1612 71.1903 40.5937 72.0503C40.898 72.1735 40.5937 72.4803 41.2048 72.4803C41.2048 72.0503 40.8376 71.6832 40.7144 71.2532ZM43.1687 60.146C42.8619 60.146 41.758 60.576 41.5116 60.8224C39.8544 61.3128 38.2601 63.6439 38.2601 65.3614C38.2601 66.6514 38.8133 67.8785 38.9969 69.166C39.5501 70.026 39.8544 70.8835 40.7144 71.56H40.8376C40.5308 70.3328 39.6105 69.2289 39.6105 67.9389C39.2433 67.5089 38.8737 66.8349 38.8737 66.2817C38.8737 65.2407 39.364 64.2574 39.794 63.3974C40.5308 62.8467 40.5308 62.047 41.2048 61.4963L41.8812 61.3731C42.3087 60.9431 43.1687 60.576 43.4151 60.146H43.1687ZM50.4713 63.1535C50.2877 63.1535 50.1041 63.0303 50.1041 62.7864C48.7537 61.3731 47.7102 60.0856 45.5627 60.0856C43.9684 60.0856 42.8016 61.1292 41.3908 61.6799C40.2844 62.8467 39.2433 64.3806 39.2433 66.0981C39.2433 66.8953 39.4873 67.6321 39.9173 68.2457C40.1008 69.5357 41.0212 70.6396 41.0841 71.9271C41.328 72.1132 42.3716 73.3378 42.5551 73.6446C43.1687 74.8114 43.2316 74.5046 44.2726 75.3646C45.5627 76.4686 45.1326 78.4929 46.7898 79.9061C47.4637 81.3772 48.7537 82.8507 48.7537 84.5079C48.7537 84.875 48.6305 85.1818 48.6305 85.5515C48.6305 86.2254 48.877 86.8993 48.877 87.5758C48.877 87.9429 48.8141 88.3126 48.6305 88.5565C46.2366 90.0301 45.7462 90.6437 42.6783 90.6437C39.6105 90.6437 39.0573 88.0661 37.033 86.5926V86.4693C37.033 86.2858 37.2794 86.1022 37.2794 85.8583C37.2794 85.7351 37.1562 85.6118 37.033 85.6118L37.1562 85.4283C37.8301 85.8583 38.1998 86.5926 38.8133 87.1458H39.2433C40.0405 88.9865 40.7773 90.0301 43.048 90.0301C44.0287 90.0301 44.9491 89.7836 45.8066 89.3536C47.2198 88.7401 46.6666 87.8826 47.2198 86.7786V86.3486C47.4034 83.0343 42.2483 75.5482 39.794 73.0939C39.4873 72.2968 38.6298 71.7435 38.5065 70.8835C38.0765 70.1493 37.8301 69.7192 37.8301 68.7989C37.8301 67.5089 37.5233 66.161 37.5233 64.8106C37.9533 64.0739 38.0137 63.1535 38.6298 62.5399C40.5937 60.6363 42.2483 59.4092 45.1955 59.4092C46.7898 59.4092 50.778 60.6363 50.778 62.8467C50.778 62.9699 50.5945 63.1535 50.4713 63.1535Z" fill="#FFF"/>
<path d="M48.2005 87.7593C46.913 88.2497 46.913 89.2933 45.9927 89.9672L46.2366 90.0904C46.7269 89.6001 48.3237 88.9261 48.3237 88.1894C48.3237 88.0661 48.2609 87.8826 48.2005 87.7593ZM47.8334 85.1818C47.9566 85.0586 48.017 84.875 48.017 84.6915C48.017 84.3243 47.8334 83.9547 47.8334 83.5247C46.9734 81.8675 46.483 79.9664 45.3791 78.3696C44.6423 78.1861 45.1326 77.5725 44.5794 77.3286C44.3355 76.285 43.7219 75.4879 42.9248 74.8743C42.7387 74.4443 42.1251 73.4007 41.6976 73.2171V73.5239C42.0648 73.7678 42.188 74.1375 42.3716 74.4443C43.9684 77.0218 45.8066 79.5364 46.7898 82.4207C47.0966 83.5247 47.7102 84.875 47.7102 86.0418C47.7102 86.5322 47.6498 86.9622 47.4034 87.3897C47.4034 87.5129 47.5266 87.6361 47.6498 87.5758C47.9566 87.2061 48.017 86.7786 48.017 86.2858C48.017 85.9186 47.9566 85.5515 47.8334 85.1818ZM41.3908 72.7871L41.2676 72.8475L41.3908 72.9103V72.7871ZM40.7144 71.2532C40.1008 70.8835 40.2844 70.3328 39.4873 69.7192C39.4269 69.6589 39.4873 69.5357 39.4873 69.4125C39.4873 69.2289 39.2433 69.2289 39.1201 69.2289V69.4728C39.1201 70.3932 40.1612 71.1903 40.5937 72.0503C40.898 72.1735 40.5937 72.4803 41.2048 72.4803C41.2048 72.0503 40.8376 71.6832 40.7144 71.2532ZM43.1687 60.146C42.8619 60.146 41.758 60.576 41.5116 60.8224C39.8544 61.3128 38.2601 63.6439 38.2601 65.3614C38.2601 66.6514 38.8133 67.8785 38.9969 69.166C39.5501 70.026 39.8544 70.8835 40.7144 71.56H40.8376C40.5308 70.3328 39.6105 69.2289 39.6105 67.9389C39.2433 67.5089 38.8737 66.8349 38.8737 66.2817C38.8737 65.2407 39.364 64.2574 39.794 63.3974C40.5308 62.8467 40.5308 62.047 41.2048 61.4963L41.8812 61.3731C42.3087 60.9431 43.1687 60.576 43.4151 60.146H43.1687ZM50.4713 63.1535C50.2877 63.1535 50.1041 63.0303 50.1041 62.7864C48.7537 61.3731 47.7102 60.0856 45.5627 60.0856C43.9684 60.0856 42.8016 61.1292 41.3908 61.6799C40.2844 62.8467 39.2433 64.3806 39.2433 66.0981C39.2433 66.8953 39.4873 67.6321 39.9173 68.2457C40.1008 69.5357 41.0212 70.6396 41.0841 71.9271C41.328 72.1132 42.3716 73.3378 42.5551 73.6446C43.1687 74.8114 43.2316 74.5046 44.2726 75.3646C45.5627 76.4686 45.1326 78.4929 46.7898 79.9061C47.4637 81.3772 48.7537 82.8508 48.7537 84.5079C48.7537 84.875 48.6305 85.1818 48.6305 85.5515C48.6305 86.2254 48.877 86.8993 48.877 87.5758C48.877 87.9429 48.8141 88.3126 48.6305 88.5565C46.2366 90.0301 45.7462 90.6437 42.6783 90.6437C39.6105 90.6437 39.0573 88.0661 37.033 86.5926V86.4693C37.033 86.2858 37.2794 86.1022 37.2794 85.8583C37.2794 85.7351 37.1562 85.6118 37.033 85.6118L37.1562 85.4283C37.8301 85.8583 38.1998 86.5926 38.8133 87.1458H39.2433C40.0405 88.9865 40.7773 90.0301 43.048 90.0301C44.0287 90.0301 44.9491 89.7836 45.8066 89.3536C47.2198 88.7401 46.6666 87.8826 47.2198 86.7786V86.3486C47.4034 83.0343 42.2483 75.5482 39.794 73.0939C39.4873 72.2968 38.6298 71.7435 38.5065 70.8835C38.0765 70.1493 37.8301 69.7192 37.8301 68.7989C37.8301 67.5089 37.5233 66.161 37.5233 64.8106C37.9533 64.0739 38.0137 63.1535 38.6298 62.5399C40.5937 60.6363 42.2483 59.4092 45.1955 59.4092C46.7898 59.4092 50.778 60.6363 50.778 62.8467C50.778 62.9699 50.5945 63.1535 50.4713 63.1535Z" stroke="#FFF" stroke-width="0.295603" stroke-miterlimit="10"/>
<path d="M68.8965 84.9305C68.0365 85.6044 66.8722 85.974 66.1957 86.8944H66.6886C67.5461 86.2205 68.65 86.0344 69.2033 85.0537L68.8965 84.9305ZM61.5939 86.648C59.8764 81.8626 59.7532 74.3765 59.2628 69.2214C59.0793 67.5039 58.9561 65.6029 58.4028 63.9457C58.2796 63.4553 58.1589 62.7789 57.9125 62.2885C57.7289 62.4721 57.7893 62.7789 57.7289 63.0253C58.2193 68.3011 58.1589 73.6397 58.5889 78.9783C58.6493 79.5919 58.5261 78.9783 58.5261 79.6547C58.5261 80.1451 58.7725 80.389 58.7725 80.8819C58.7725 81.0026 58.8328 81.1258 58.9561 81.1861C59.1396 82.2297 60.3064 86.8944 61.5336 86.8944C61.6543 86.8944 61.6543 86.8341 61.6543 86.7108L61.5939 86.648ZM73.1915 82.4158C72.7615 83.8265 71.2904 84.5633 70.7372 85.8508C70.7975 86.648 70.7975 87.3848 70.7975 88.1819C70.7975 89.6555 70.7372 91.1291 70.5536 92.663C70.4304 93.7669 70.7372 95.6077 69.51 96.2212C69.2661 95.9145 69.1429 95.5473 69.1429 95.1777C69.08 92.4769 69.2033 89.7158 69.2033 86.9548H69.0197C68.4061 86.9548 66.8722 88.1819 64.9686 88.1819C63.7414 88.1819 62.5143 87.8751 61.2871 87.6916C60.6736 86.9548 59.7532 87.078 59.2 86.1576C58.0357 84.3169 58.2796 81.3722 57.8521 79.2851C57.9753 79.1619 57.9753 79.1015 57.9753 78.9783C57.9753 78.7318 57.9125 78.5483 57.8521 78.3647C57.4825 77.8744 57.6686 77.2608 57.5453 76.7076C57.6686 76.6472 57.6686 76.5843 57.6686 76.4636C57.6686 76.2776 57.5453 76.094 57.5453 75.9104L57.6686 75.6036C57.4825 73.8861 57.2989 67.9339 56.8689 66.8904C57.2989 66.7671 56.9921 66.2164 57.2989 66.0303C57.1757 65.54 57.0525 64.9868 57.0525 64.4361C57.0525 64.1293 57.1153 63.8225 57.1757 63.5157C57.1757 63.2089 56.9921 62.9021 56.9921 62.5325C56.9921 62.1653 57.2386 61.5518 57.7289 61.5518C61.5336 61.5518 59.5696 84.684 63.5579 87.078C65.7054 86.8944 67.3022 85.2372 69.1429 84.2565L69.3265 83.8265C69.3265 82.3529 69.2661 80.8819 69.0197 79.4686C69.1429 79.1619 69.1429 78.9179 69.1429 78.6111C69.1429 77.2608 68.7733 75.9104 68.7733 74.4997C68.7733 71.4922 69.51 67.9339 69.3868 65.2332C69.6333 64.4361 69.51 63.5761 69.51 62.7789C69.51 62.4118 69.51 62.0421 69.6936 61.675H70.3701C70.3072 61.9818 70.6768 61.9189 70.6768 62.1653C70.6768 64.8032 70.3701 67.4411 70.3701 70.1418C70.3701 71.0622 70.4304 71.9825 70.4304 72.9658C70.4304 75.4201 70.9811 77.8744 70.9811 80.389C70.9811 81.0654 71.044 81.7394 71.1672 82.4158C72.7011 81.9858 72.5779 79.6547 74.1747 79.6547C74.2954 79.7754 74.3583 79.9615 74.3583 80.0822C74.3583 80.9422 73.0683 81.679 73.1915 82.4158Z" fill="#FFF" stroke="#FFF" stroke-width="0.295603" stroke-miterlimit="10"/>
<path d="M93.54 79.6597V79.9665C95.6247 78.8625 97.3447 78.5557 98.1418 75.9782C96.4243 77.0218 95.1343 78.4929 93.54 79.6597ZM87.0346 111.505V111.198C87.0346 110.585 86.6675 110.034 86.6675 109.421C86.6675 109.234 86.7278 109.051 86.7907 108.867C86.7907 108.744 86.6675 108.623 86.5443 108.623H86.4211V110.831C86.4211 112.672 86.4839 114.452 86.7278 116.23H86.9139C87.2207 114.82 87.0346 113.409 87.2207 111.998L87.0346 111.505ZM94.5207 64.9942C92.0061 64.9942 89.4889 65.6682 86.9139 65.7914C86.7278 65.8542 86.3607 65.9749 86.3607 66.2214C86.3607 67.3253 86.4839 68.4292 86.4839 69.5357C86.4839 73.6446 86.1143 77.6957 86.1771 81.7443V82.544L86.2375 82.7275L86.6071 82.7879C88.0179 82.7879 90.2886 80.7032 91.1461 80.7032C94.1536 78.679 100.843 74.2607 100.843 70.27C100.843 66.161 98.2047 64.9942 94.5207 64.9942ZM85.8703 100.828L85.7471 101.014C85.8075 101.074 85.8075 101.074 85.8703 101.074C85.8703 101.074 85.9307 101.074 85.991 101.014C85.9307 101.014 85.8703 100.891 85.8703 100.828ZM85.7471 99.6034V100.338H85.8703V99.9705C85.8703 99.9076 85.8075 99.6637 85.7471 99.6034ZM85.5007 87.5758H85.4403V87.7594H85.5636C85.5007 87.699 85.5007 87.5758 85.5007 87.5758ZM85.3775 96.0426C85.4403 96.3494 85.3775 96.963 85.6868 97.0862L85.7471 96.9026C85.6239 96.533 85.8703 96.1658 85.3775 96.0426ZM85.4403 98.8037H85.2568L85.4403 98.9269V98.8037ZM85.1335 95.429L85.0707 95.4894C85.0707 95.429 85.0707 95.2455 85.1335 95.2455C85.1939 95.2455 85.1939 95.3687 85.1939 95.429H85.1335ZM84.7664 75.6714H84.8871V75.855L84.7664 75.6714ZM84.7664 74.1375H84.8268L84.8871 74.6278L84.7664 74.1375ZM84.5803 71.1903C84.5803 71.0068 84.4596 70.8232 84.4596 70.6396C84.4596 70.5793 84.52 70.456 84.52 70.3932C84.5803 70.5164 84.6432 70.7 84.6432 70.8835C84.6432 70.9464 84.5803 71.0696 84.5803 71.1903ZM84.4596 69.7796C84.3968 69.6589 84.3968 69.5357 84.3968 69.4125C84.3968 69.2289 84.4596 68.9825 84.5803 68.8592L84.4596 69.7796ZM84.5803 68.736L84.3968 68.1224H84.5803L84.6432 68.6153L84.5803 68.736ZM98.939 76.1618C98.0815 78.0629 95.9943 79.9665 93.97 80.58C93.4168 80.7636 93.0497 81.3168 92.4361 81.1936C91.5157 82.0536 90.1025 82.114 89.1847 83.0343C88.2618 83.3411 87.5878 83.8315 86.5443 83.7711L86.2375 84.1383C86.2375 85.979 86.4211 87.7594 86.4211 89.5372C86.4211 90.704 86.2375 91.8079 86.2375 92.9144C86.2375 98.0669 86.4211 103.468 87.3414 108.561C87.5878 109.971 87.7111 111.445 87.7111 112.918C87.7111 114.88 87.525 116.967 86.9139 118.871C86.7907 119.298 86.8511 119.605 86.8511 120.035C86.8511 120.588 86.6675 120.955 85.991 120.895C85.991 120.098 85.9307 119.238 85.9307 118.378C85.9307 115.68 86.1143 112.979 86.1143 110.218C86.1143 109.544 85.8703 105.676 85.991 105.432C85.7471 105.063 86.0539 104.633 85.5636 104.326L85.4403 104.082C85.4403 102.548 85.5007 101.074 85.5007 99.5405V99.4173L85.4403 99.6637L85.3775 100.338C85.0103 100.094 85.2568 99.7241 85.2568 99.4173C85.2568 99.2337 85.0707 99.0501 84.95 98.9873L85.0707 98.4969L85.4403 98.6201L85.6868 98.4969C85.7471 98.253 85.8703 98.0066 85.8703 97.7601C85.8703 97.6998 85.7471 97.393 85.6868 97.393C85.3775 97.393 85.3775 97.5765 85.4403 97.823H85.3171C85.1939 97.823 85.0103 97.7601 84.95 97.6998C84.95 97.5162 85.1335 97.393 85.1335 97.2094C85.1335 97.1491 85.0103 97.0258 84.95 96.963C85.0103 96.8398 85.0103 96.7191 85.0103 96.5958C85.0103 96.3494 84.95 96.1055 84.95 95.859C85.0707 95.9823 85.1335 95.9823 85.3171 95.9823C85.5007 95.9823 85.6239 95.6126 85.6239 95.429C85.6239 95.2455 85.5636 95.0619 85.4403 94.8783C85.0707 94.7551 84.95 94.3855 84.95 94.0183C85.0103 93.9555 85.0103 93.9555 85.0707 93.9555C85.2568 93.9555 85.3775 94.0787 85.5007 94.0787C85.5636 94.0787 85.6239 93.9555 85.6868 93.9555C85.6868 93.2212 84.95 93.7719 84.7664 93.2212C84.95 93.1583 84.7664 92.7912 84.95 92.8515C85.1335 92.9144 85.1335 93.3419 85.3171 93.3419H85.4403L85.5636 93.0351C85.3775 92.7308 85.3171 92.3008 84.95 92.1147V91.7476C84.8268 90.9504 85.0707 90.0904 85.0707 89.2933L85.3775 89.3536C85.5007 89.2933 85.5636 89.1097 85.5636 88.9865L85.4403 88.8633L85.1335 88.9865C85.0103 88.9262 85.0707 88.8029 85.0707 88.7401C85.0707 88.6194 85.0103 88.5565 84.95 88.5565C85.2568 88.0058 84.95 87.269 85.6868 86.9622C85.5636 86.5926 85.3775 86.2254 85.3775 85.8583C85.3775 85.6118 85.5007 85.3654 85.6868 85.2422C85.6239 85.1215 85.6239 84.9983 85.5636 84.9983V85.3654L85.6868 86.2858L85.4403 84.445V84.3243C85.5007 84.2011 85.3171 84.0779 85.2568 84.0779C84.7035 84.1383 84.2132 84.3243 83.66 84.3243C83.2928 84.3243 82.986 84.2615 82.7396 84.1383L82.6793 84.015C82.6793 83.7711 82.9232 83.6479 83.0464 83.4643H83.416C84.0271 83.4643 84.5803 83.1575 85.1335 83.2179L85.3775 82.9111C85.3775 79.1693 85.6868 75.2414 86.0539 71.4368C85.7471 70.8835 85.9307 70.27 85.9307 69.6589C85.9307 68.5525 85.6239 67.3882 85.4403 66.3446C85.3775 66.2214 85.2568 66.161 85.1335 66.161C85.0103 66.161 84.8871 66.2817 84.8871 66.4049C84.5803 66.5885 84.7035 67.0814 84.7664 67.3882H84.6432C84.3968 67.2046 84.52 66.8953 84.52 66.5885C84.52 66.4049 84.3364 66.2214 84.1503 66.2214C82.986 66.2214 81.9425 66.9582 80.7757 66.9582C80.5317 66.9582 80.2853 66.8953 79.9785 66.8349C80.1017 65.8542 83.4764 65.731 84.3364 65.4242C84.7035 64.5039 84.52 63.5835 84.52 62.6631C84.52 59.716 85.3171 56.5274 84.95 53.5802C85.0103 53.3967 85.3171 53.2734 85.5636 53.2734L85.8703 53.3967C85.8075 53.8267 85.7471 54.1938 85.7471 54.6238C85.7471 55.4838 85.8703 56.4042 85.991 57.2617C86.2375 57.6313 86.2375 58.6724 86.2375 59.1653C86.2375 60.576 86.1143 61.9264 86.1143 63.3371C86.1143 63.7067 86.0539 64.0739 86.2375 64.441C86.1143 64.6271 86.2375 64.8107 86.4839 64.9339C89.4889 64.6271 92.4964 64.1971 95.5643 64.2574C95.9943 64.1342 96.4847 64.0739 96.9147 64.0739C97.9583 64.0739 100.106 65.2407 100.413 66.161C100.966 67.6321 101.333 69.3521 101.333 70.9464C101.333 74.3814 99.8593 74.0143 98.939 76.1618Z" fill="#FFF"/>
<path d="M85.4403 104.082L85.5636 104.326C86.0539 104.633 85.7471 105.063 85.991 105.432C85.8703 105.676 86.1143 109.544 86.1143 110.218C86.1143 112.979 85.9307 115.68 85.9307 118.378C85.9307 119.238 85.991 120.098 85.991 120.895C86.6675 120.955 86.8511 120.588 86.8511 120.035C86.8511 119.605 86.7907 119.298 86.9139 118.871C87.525 116.967 87.7111 114.88 87.7111 112.918C87.7111 111.445 87.5878 109.971 87.3414 108.561C86.4211 103.468 86.2375 98.0669 86.2375 92.9144C86.2375 91.8079 86.421 90.704 86.421 89.5372C86.421 87.7594 86.2375 85.979 86.2375 84.1383L86.5443 83.7711C87.5878 83.8315 88.2618 83.3411 89.1847 83.0343C90.1025 82.114 91.5157 82.0536 92.4361 81.1936C93.0497 81.3168 93.4168 80.7636 93.97 80.58C95.9943 79.9665 98.0815 78.0629 98.939 76.1618C99.8593 74.0143 101.333 74.3814 101.333 70.9464C101.333 69.3521 100.966 67.6321 100.413 66.161C100.106 65.2407 97.9583 64.0739 96.9147 64.0739C96.4847 64.0739 95.9943 64.1342 95.5643 64.2574C92.4964 64.1971 89.4889 64.6271 86.4839 64.9339C86.2375 64.8107 86.1143 64.6271 86.2375 64.441C86.0539 64.0739 86.1143 63.7067 86.1143 63.3371C86.1143 61.9264 86.2375 60.576 86.2375 59.1653C86.2375 58.6724 86.2375 57.6313 85.991 57.2617C85.8703 56.4042 85.7471 55.4838 85.7471 54.6238C85.7471 54.1938 85.8075 53.8267 85.8703 53.3967L85.5636 53.2734C85.3171 53.2734 85.0103 53.3967 84.95 53.5802C85.3171 56.5274 84.52 59.716 84.52 62.6631C84.52 63.5835 84.7035 64.5039 84.3364 65.4242C83.4764 65.731 80.1017 65.8542 79.9785 66.8349C80.2853 66.8953 80.5317 66.9582 80.7757 66.9582C81.9425 66.9582 82.986 66.2214 84.1503 66.2214C84.3364 66.2214 84.52 66.4049 84.52 66.5885C84.52 66.8953 84.3968 67.2046 84.6432 67.3882H84.7664C84.7035 67.0814 84.5803 66.5885 84.8871 66.4049C84.8871 66.2817 85.0103 66.161 85.1335 66.161C85.2568 66.161 85.3775 66.2214 85.4403 66.3446C85.6239 67.3882 85.9307 68.5525 85.9307 69.6589C85.9307 70.27 85.7471 70.8835 86.0539 71.4368C85.6868 75.2414 85.3775 79.1693 85.3775 82.9111L85.1335 83.2179C84.5803 83.1575 84.0271 83.4643 83.416 83.4643H83.0464C82.9232 83.6479 82.6793 83.7711 82.6793 84.015L82.7396 84.1383C82.986 84.2615 83.2928 84.3243 83.66 84.3243C84.2132 84.3243 84.7035 84.1383 85.2568 84.0779C85.3171 84.0779 85.5007 84.2011 85.4403 84.3243V84.445L85.6868 86.2858L85.5636 85.3654V84.9983C85.6239 84.9983 85.6239 85.1215 85.6868 85.2422C85.5007 85.3654 85.3775 85.6118 85.3775 85.8583C85.3775 86.2254 85.5636 86.5926 85.6868 86.9622C84.95 87.269 85.2568 88.0058 84.95 88.5565C85.0103 88.5565 85.0707 88.6194 85.0707 88.7401C85.0707 88.8029 85.0103 88.9262 85.1335 88.9865L85.4403 88.8633L85.5636 88.9865C85.5636 89.1097 85.5007 89.2933 85.3775 89.3536L85.0707 89.2933C85.0707 90.0904 84.8268 90.9504 84.95 91.7476V92.1147C85.3171 92.3008 85.3775 92.7308 85.5636 93.0351L85.4403 93.3419H85.3171C85.1335 93.3419 85.1335 92.9144 84.95 92.8515C84.7664 92.7912 84.95 93.1583 84.7664 93.2212C84.95 93.7719 85.6868 93.2212 85.6868 93.9555C85.6239 93.9555 85.5636 94.0787 85.5007 94.0787C85.3775 94.0787 85.2568 93.9555 85.0707 93.9555C85.0103 93.9555 85.0103 93.9555 84.95 94.0183C84.95 94.3855 85.0707 94.7551 85.4403 94.8783C85.5636 95.0619 85.6239 95.2455 85.6239 95.429C85.6239 95.6126 85.5007 95.9823 85.3171 95.9823C85.1335 95.9823 85.0707 95.9823 84.95 95.859C84.95 96.1055 85.0103 96.3494 85.0103 96.5958C85.0103 96.7191 85.0103 96.8398 84.95 96.963C85.0103 97.0258 85.1335 97.1491 85.1335 97.2094C85.1335 97.393 84.95 97.5162 84.95 97.6998C85.0103 97.7601 85.1939 97.823 85.3171 97.823H85.4403C85.3775 97.5766 85.3775 97.393 85.6868 97.393C85.7471 97.393 85.8703 97.6998 85.8703 97.7601C85.8703 98.0066 85.7471 98.253 85.6868 98.4969L85.4403 98.6201L85.0707 98.4969L84.95 98.9873C85.0707 99.0501 85.2568 99.2337 85.2568 99.4173C85.2568 99.7241 85.0103 100.094 85.3775 100.338L85.4403 99.6637L85.5007 99.4173V99.5405C85.5007 101.074 85.4403 102.548 85.4403 104.082ZM85.4403 104.082L85.6239 104.326M93.54 79.6597V79.9665C95.6247 78.8625 97.3447 78.5557 98.1418 75.9782C96.4243 77.0218 95.1343 78.4929 93.54 79.6597ZM87.0346 111.505V111.198C87.0346 110.585 86.6675 110.034 86.6675 109.421C86.6675 109.234 86.7278 109.051 86.7907 108.867C86.7907 108.744 86.6675 108.623 86.5443 108.623H86.421V110.831C86.421 112.672 86.4839 114.452 86.7278 116.23H86.9139C87.2207 114.82 87.0346 113.409 87.2207 111.998L87.0346 111.505ZM94.5207 64.9942C92.0061 64.9942 89.4889 65.6682 86.9139 65.7914C86.7278 65.8542 86.3607 65.9749 86.3607 66.2214C86.3607 67.3253 86.4839 68.4292 86.4839 69.5357C86.4839 73.6446 86.1143 77.6957 86.1771 81.7443V82.544L86.2375 82.7275L86.6071 82.7879C88.0179 82.7879 90.2886 80.7032 91.1461 80.7032C94.1536 78.679 100.843 74.2607 100.843 70.27C100.843 66.161 98.2047 64.9942 94.5207 64.9942ZM85.8703 100.828L85.7471 101.014C85.8075 101.074 85.8075 101.074 85.8703 101.074C85.8703 101.074 85.9307 101.074 85.991 101.014C85.9307 101.014 85.8703 100.891 85.8703 100.828ZM85.7471 99.6034V100.338H85.8703V99.9705C85.8703 99.9076 85.8075 99.6637 85.7471 99.6034ZM85.5007 87.5758H85.4403V87.7594H85.5636C85.5007 87.699 85.5007 87.5758 85.5007 87.5758ZM85.3775 96.0426C85.4403 96.3494 85.3775 96.963 85.6868 97.0862L85.7471 96.9026C85.6239 96.533 85.8703 96.1658 85.3775 96.0426ZM85.4403 98.8037H85.2568L85.4403 98.9269V98.8037ZM85.1335 95.429L85.0707 95.4894C85.0707 95.429 85.0707 95.2455 85.1335 95.2455C85.1939 95.2455 85.1939 95.3687 85.1939 95.429H85.1335ZM84.7664 75.6714H84.8871V75.855L84.7664 75.6714ZM84.7664 74.1375H84.8268L84.8871 74.6278L84.7664 74.1375ZM84.5803 71.1903C84.5803 71.0068 84.4596 70.8232 84.4596 70.6396C84.4596 70.5793 84.52 70.456 84.52 70.3932C84.5803 70.5164 84.6432 70.7 84.6432 70.8835C84.6432 70.9464 84.5803 71.0696 84.5803 71.1903ZM84.4596 69.7796C84.3968 69.6589 84.3968 69.5357 84.3968 69.4125C84.3968 69.2289 84.4596 68.9825 84.5803 68.8592L84.4596 69.7796ZM84.5803 68.736L84.3968 68.1224H84.5803L84.6432 68.6153L84.5803 68.736Z" stroke="#FFF" stroke-width="0.295603" stroke-miterlimit="10"/>
<path d="M121.151 64.0162C120.781 63.4655 120.537 63.0355 119.74 63.0355C119.617 63.0355 119.431 63.1587 119.431 63.3422V63.4026L119.554 63.3422C120.414 63.3422 120.537 64.0765 121.151 64.3858V64.0162ZM120.414 86.5977C120.17 86.7813 119.74 86.6581 119.431 86.6581C119.247 86.6581 119.003 86.7209 119.003 86.9649C119.003 87.4577 120.414 87.3345 120.66 87.3345C120.844 87.2717 121.334 87.0277 121.334 86.7813C121.211 86.5374 120.66 86.5977 120.414 86.5977ZM122.194 67.2676C121.641 66.8401 121.641 66.0405 121.457 65.7965L119.74 64.0162H119.617C118.94 64.0162 117.346 68.618 117.1 69.4151C117.283 69.6012 117.53 69.6616 117.776 69.6616C118.39 69.6616 118.94 69.4151 119.617 69.478C120.721 69.2315 121.887 69.4151 122.991 69.1108L122.194 67.2676ZM115.136 69.4151C115.136 69.6012 115.259 69.8451 115.505 69.7848H115.812C116.179 69.7848 116.486 69.478 116.549 69.1108C116.976 67.8208 117.899 66.5333 118.02 65.2433C116.672 65.9801 115.136 67.8208 115.136 69.4151ZM115.198 70.9491L115.136 71.0119C114.278 71.7487 114.401 71.6255 114.401 72.6691C114.401 73.0991 114.155 73.5291 114.155 73.9566C114.155 74.2634 114.401 74.4469 114.401 74.7562C114.401 74.9398 114.218 75.2466 114.155 75.3673C114.155 76.2273 114.032 77.0245 114.032 77.8845C114.032 78.5584 114.892 82.1795 115.322 82.3027C115.259 81.9356 115.322 81.6288 115.322 81.2591C115.322 80.9523 115.259 80.6455 115.075 80.462C115.136 80.2784 115.198 80.0923 115.198 79.9088C115.198 79.1116 114.522 77.2709 114.522 76.2877C114.522 74.9398 115.136 72.6691 115.812 71.4419V71.3791C115.812 71.0723 115.445 70.9491 115.198 70.9491ZM122.685 86.2306C121.274 87.1484 121.701 87.7645 119.617 87.7645C118.757 87.7645 117.899 87.5784 117.162 87.2717C113.481 83.5902 114.032 81.3195 112.928 76.6573L113.235 76.2877C113.235 75.7973 113.111 75.2466 113.111 74.7562C113.111 74.633 113.418 73.6498 113.481 73.5291C113.418 73.2198 113.418 72.913 113.418 72.6087C113.418 72.2391 113.602 71.7487 113.665 71.3791C113.418 71.1955 113.111 71.1351 112.804 71.1351C112.068 71.1351 111.394 71.3791 110.657 71.3791C109.553 71.3791 108.263 71.4419 107.099 71.2584V71.0723C107.099 70.8284 107.589 70.7655 107.773 70.7655C109.307 70.7655 110.903 70.8284 112.374 70.3983V70.338C112.374 70.2148 111.947 70.2751 111.884 70.2751C111.761 70.2751 111.701 70.2148 111.701 70.1519C112.621 69.7219 114.218 70.5819 114.218 69.1712C114.218 67.6976 115.812 66.2869 116.732 65.2433C117.716 63.9558 118.573 62.4219 120.414 62.4219H120.66C122.317 63.1587 121.825 64.8762 122.991 65.9801C122.991 66.5937 123.298 67.2073 123.298 67.8208C123.788 68.4344 123.605 68.9248 123.849 69.6012C122.194 70.2751 118.513 70.338 116.549 70.7655C115.628 72.3623 115.198 73.9566 115.198 75.7369C115.198 78.8652 116.056 81.7495 116.609 84.8174C116.672 85.0034 116.672 85.6774 117.039 85.6145H117.283C117.716 85.6145 118.143 86.0445 118.45 86.3538C118.696 86.3538 119.003 86.4142 119.247 86.4142C120.474 86.4142 122.928 85.9213 123.605 84.757C124.709 82.9163 125.383 81.6288 125.383 79.4813C125.383 79.0487 125.262 76.5341 125.692 76.5341C125.999 76.5341 126.12 77.638 126.12 77.8216C126.12 81.0756 125.506 84.327 122.685 86.2306Z" fill="#FFF"/>
<path d="M121.151 64.0162C120.781 63.4655 120.537 63.0355 119.74 63.0355C119.617 63.0355 119.431 63.1587 119.431 63.3422V63.4026L119.554 63.3422C120.414 63.3422 120.537 64.0765 121.151 64.3858V64.0162ZM120.414 86.5977C120.17 86.7813 119.74 86.6581 119.431 86.6581C119.247 86.6581 119.003 86.7209 119.003 86.9649C119.003 87.4577 120.414 87.3345 120.66 87.3345C120.844 87.2717 121.334 87.0277 121.334 86.7813C121.211 86.5374 120.66 86.5977 120.414 86.5977ZM122.194 67.2676C121.641 66.8401 121.641 66.0405 121.457 65.7965L119.74 64.0162H119.617C118.94 64.0162 117.346 68.618 117.1 69.4151C117.283 69.6012 117.53 69.6616 117.776 69.6616C118.39 69.6616 118.94 69.4151 119.617 69.478C120.721 69.2315 121.887 69.4151 122.991 69.1108L122.194 67.2676ZM115.136 69.4151C115.136 69.6012 115.259 69.8451 115.505 69.7848H115.812C116.179 69.7848 116.486 69.478 116.549 69.1108C116.976 67.8208 117.899 66.5333 118.02 65.2433C116.672 65.9801 115.136 67.8208 115.136 69.4151ZM115.198 70.9491L115.136 71.0119C114.278 71.7487 114.401 71.6255 114.401 72.6691C114.401 73.0991 114.155 73.5291 114.155 73.9566C114.155 74.2634 114.401 74.4469 114.401 74.7562C114.401 74.9398 114.218 75.2466 114.155 75.3673C114.155 76.2273 114.032 77.0245 114.032 77.8845C114.032 78.5584 114.892 82.1795 115.322 82.3027C115.259 81.9356 115.322 81.6288 115.322 81.2591C115.322 80.9523 115.259 80.6455 115.075 80.462C115.136 80.2784 115.198 80.0923 115.198 79.9088C115.198 79.1116 114.522 77.2709 114.522 76.2877C114.522 74.9398 115.136 72.6691 115.812 71.4419V71.3791C115.812 71.0723 115.445 70.9491 115.198 70.9491ZM122.685 86.2306C121.274 87.1484 121.701 87.7645 119.617 87.7645C118.757 87.7645 117.899 87.5784 117.162 87.2717C113.481 83.5902 114.032 81.3195 112.928 76.6573L113.235 76.2877C113.235 75.7973 113.111 75.2466 113.111 74.7562C113.111 74.633 113.418 73.6498 113.481 73.5291C113.418 73.2198 113.418 72.913 113.418 72.6087C113.418 72.2391 113.602 71.7487 113.665 71.3791C113.418 71.1955 113.111 71.1351 112.804 71.1351C112.068 71.1351 111.394 71.3791 110.657 71.3791C109.553 71.3791 108.263 71.4419 107.099 71.2584V71.0723C107.099 70.8284 107.589 70.7655 107.773 70.7655C109.307 70.7655 110.903 70.8284 112.374 70.3983V70.338C112.374 70.2148 111.947 70.2751 111.884 70.2751C111.761 70.2751 111.701 70.2148 111.701 70.1519C112.621 69.7219 114.218 70.5819 114.218 69.1712C114.218 67.6976 115.812 66.2869 116.732 65.2433C117.716 63.9558 118.573 62.4219 120.414 62.4219H120.66C122.317 63.1587 121.825 64.8762 122.991 65.9801C122.991 66.5937 123.298 67.2073 123.298 67.8208C123.788 68.4344 123.605 68.9248 123.849 69.6012C122.194 70.2751 118.513 70.338 116.549 70.7655C115.628 72.3623 115.198 73.9566 115.198 75.737C115.198 78.8652 116.056 81.7495 116.609 84.8174C116.672 85.0034 116.672 85.6774 117.039 85.6145H117.283C117.716 85.6145 118.143 86.0445 118.45 86.3538C118.696 86.3538 119.003 86.4142 119.247 86.4142C120.474 86.4142 122.928 85.9213 123.605 84.757C124.709 82.9163 125.383 81.6288 125.383 79.4813C125.383 79.0487 125.262 76.5341 125.692 76.5341C125.999 76.5341 126.12 77.638 126.12 77.8216C126.12 81.0756 125.506 84.327 122.685 86.2306Z" stroke="#FFF" stroke-width="0.295603" stroke-miterlimit="10"/>
<path d="M145.493 63.2766C145.063 63.2766 143.652 63.3998 143.652 64.0134C144.082 64.0134 144.512 63.8273 144.94 63.8273C145.676 63.8273 146.35 63.767 147.09 63.767C146.597 63.5206 146.046 63.2766 145.493 63.2766ZM137.21 75.9178C137.023 75.5481 137.147 75.4249 137.147 75.0578C137.147 74.8742 137.023 74.6906 136.903 74.6278L136.779 74.6906V77.5121C136.779 79.7199 136.656 81.87 136.656 84.0778C136.656 84.0778 136.719 84.6285 136.779 84.6285C136.779 84.445 136.779 82.7903 136.84 82.7274C136.903 82.9739 136.903 83.1575 136.903 83.341C137.393 83.4039 137.21 82.9135 137.21 82.6042C137.21 82.481 137.27 82.3603 137.333 82.2371V81.6839V81.9907C137.27 82.3603 137.27 82.7274 137.27 83.0971C137.27 83.0971 137.27 83.4642 137.333 83.5246C137.577 83.0971 137.516 82.6042 137.516 82.1139C137.516 81.6235 137.577 81.0703 137.823 80.5799C137.577 79.2296 137.823 77.0821 137.21 75.9178ZM136.779 65.1174C136.596 65.5474 136.473 65.9748 136.473 66.4049C136.473 66.8977 136.533 67.3881 136.533 67.9388C136.533 68.1249 136.533 68.3084 136.719 68.4291C136.779 67.8784 136.84 67.2649 136.84 66.7116V66.2816C136.84 65.9145 136.84 65.4845 136.779 65.1174ZM135.736 71.0067C134.876 71.6228 134.265 72.4803 133.895 73.4635H134.142C134.692 72.6638 135.613 71.9899 135.919 71.0067H135.736ZM150.401 67.3252C150.034 66.8977 150.095 66.2816 149.848 65.8541C149.237 64.4434 146.843 64.0738 145.493 64.0738C142.241 64.0738 137.147 67.8181 137.147 71.3763C137.147 71.6228 137.21 72.9103 137.333 73.0335C137.333 72.9706 137.333 72.9103 137.393 72.9103C137.393 72.9103 137.453 73.0938 137.516 73.4635L137.453 73.7074L137.64 73.891C137.64 75.4249 138.374 76.7753 138.374 78.2489C138.374 78.9857 138.19 79.7828 138.19 80.4567C138.19 81.0703 138.313 81.6839 138.313 82.2974C138.313 83.7107 137.333 88.1893 136.903 89.7232C136.903 89.8464 136.84 89.9068 136.719 89.9068C136.596 89.9068 136.533 89.9068 136.473 89.8464V89.17C136.533 86.9621 136.043 84.6914 136.349 82.481C135.982 81.1935 136.289 74.1978 136.166 72.0502H135.859L134.202 73.8306H134.079C133.835 73.8306 133.772 73.4006 133.588 73.4006C133.465 73.4006 133.344 73.5238 133.282 73.647L132.852 73.7074C132.791 73.647 132.728 73.5842 132.728 73.4635C132.728 73.0938 133.282 72.787 133.405 72.4199C133.772 71.9899 134.569 71.7435 134.569 71.0067C136.596 69.6588 135.919 69.4727 135.919 66.9581C135.919 65.1777 136.473 63.337 136.166 61.5566C136.473 61.2523 136.289 60.7595 136.289 60.3923C136.289 59.9623 136.596 59.7788 137.023 59.8416C137.27 60.5155 137.023 61.2523 137.023 61.9263C137.023 62.2959 137.086 62.6002 137.21 62.8466C137.453 64.0738 137.577 65.3009 137.64 66.5281C137.516 66.7745 137.453 67.0184 137.453 67.3252C137.453 67.5717 137.577 67.8784 137.763 68.062C140.645 66.0377 141.198 62.907 145.8 62.907C148.254 62.907 148.928 63.6438 150.278 65.4845C150.401 66.0377 150.341 66.5281 150.585 67.0184L150.401 67.3252Z" fill="#FFF"/>
<path d="M145.493 63.2766C145.063 63.2766 143.652 63.3998 143.652 64.0134C144.082 64.0134 144.512 63.8273 144.94 63.8273C145.676 63.8273 146.35 63.767 147.09 63.767C146.597 63.5206 146.046 63.2766 145.493 63.2766ZM137.21 75.9178C137.023 75.5481 137.147 75.4249 137.147 75.0578C137.147 74.8742 137.023 74.6906 136.903 74.6278L136.779 74.6906V77.5121C136.779 79.7199 136.656 81.87 136.656 84.0778C136.656 84.0778 136.719 84.6285 136.779 84.6285C136.779 84.445 136.779 82.7903 136.84 82.7274C136.903 82.9739 136.903 83.1575 136.903 83.341C137.393 83.4039 137.21 82.9135 137.21 82.6042C137.21 82.481 137.27 82.3603 137.333 82.2371V81.6839V81.9907C137.27 82.3603 137.27 82.7274 137.27 83.0971C137.27 83.0971 137.27 83.4642 137.333 83.5246C137.577 83.0971 137.516 82.6042 137.516 82.1139C137.516 81.6235 137.577 81.0703 137.823 80.5799C137.577 79.2296 137.823 77.0821 137.21 75.9178ZM136.779 65.1174C136.596 65.5474 136.473 65.9748 136.473 66.4049C136.473 66.8977 136.533 67.3881 136.533 67.9388C136.533 68.1249 136.533 68.3084 136.719 68.4291C136.779 67.8784 136.84 67.2649 136.84 66.7116V66.2816C136.84 65.9145 136.84 65.4845 136.779 65.1174ZM135.736 71.0067C134.876 71.6228 134.265 72.4802 133.895 73.4635H134.142C134.692 72.6638 135.613 71.9899 135.919 71.0067H135.736ZM150.401 67.3252C150.034 66.8977 150.095 66.2816 149.848 65.8541C149.237 64.4434 146.843 64.0738 145.493 64.0738C142.241 64.0738 137.147 67.8181 137.147 71.3763C137.147 71.6228 137.21 72.9103 137.333 73.0335C137.333 72.9706 137.333 72.9103 137.393 72.9103C137.393 72.9103 137.453 73.0938 137.516 73.4635L137.453 73.7074L137.64 73.891C137.64 75.4249 138.374 76.7753 138.374 78.2489C138.374 78.9857 138.19 79.7828 138.19 80.4567C138.19 81.0703 138.313 81.6839 138.313 82.2974C138.313 83.7107 137.333 88.1893 136.903 89.7232C136.903 89.8464 136.84 89.9068 136.719 89.9068C136.596 89.9068 136.533 89.9068 136.473 89.8464V89.17C136.533 86.9621 136.043 84.6914 136.349 82.481C135.982 81.1935 136.289 74.1978 136.166 72.0502H135.859L134.202 73.8306H134.079C133.835 73.8306 133.772 73.4006 133.588 73.4006C133.465 73.4006 133.344 73.5238 133.282 73.647L132.852 73.7074C132.791 73.647 132.728 73.5842 132.728 73.4635C132.728 73.0938 133.282 72.787 133.405 72.4199C133.772 71.9899 134.569 71.7435 134.569 71.0067C136.596 69.6588 135.919 69.4727 135.919 66.9581C135.919 65.1777 136.473 63.337 136.166 61.5566C136.473 61.2523 136.289 60.7595 136.289 60.3923C136.289 59.9623 136.596 59.7788 137.023 59.8416C137.27 60.5155 137.023 61.2523 137.023 61.9263C137.023 62.2959 137.086 62.6002 137.21 62.8466C137.453 64.0738 137.577 65.3009 137.64 66.5281C137.516 66.7745 137.453 67.0184 137.453 67.3252C137.453 67.5717 137.577 67.8784 137.763 68.062C140.645 66.0377 141.198 62.907 145.8 62.907C148.254 62.907 148.928 63.6438 150.278 65.4845C150.401 66.0377 150.341 66.5281 150.585 67.0184L150.401 67.3252Z" stroke="#FFF" stroke-width="0.295603" stroke-miterlimit="10"/>
<path d="M167.206 87.7593C165.916 88.2497 165.916 89.2933 164.996 89.9672L165.242 90.0904C165.733 89.6001 167.329 88.9261 167.329 88.1894C167.329 88.0661 167.267 87.8826 167.206 87.7593ZM166.837 85.1818C166.96 85.0586 167.023 84.875 167.023 84.6915C167.023 84.3243 166.837 83.9547 166.837 83.5247C165.979 81.8675 165.486 79.9664 164.382 78.3696C163.648 78.1861 164.138 77.5725 163.585 77.3286C163.339 76.285 162.728 75.4879 161.928 74.8743C161.744 74.4443 161.131 73.4007 160.701 73.2171V73.5239C161.071 73.7678 161.191 74.1375 161.377 74.4443C162.972 77.0218 164.812 79.5364 165.796 82.4207C166.102 83.5247 166.716 84.875 166.716 86.0418C166.716 86.5322 166.653 86.9622 166.409 87.3897C166.409 87.5129 166.53 87.6361 166.653 87.5758C166.96 87.2061 167.023 86.7786 167.023 86.2858C167.023 85.9186 166.96 85.5515 166.837 85.1818ZM160.394 72.7871L160.273 72.8475L160.394 72.9103V72.7871ZM159.72 71.2532C159.107 70.8835 159.29 70.3328 158.493 69.7192C158.43 69.6589 158.493 69.5357 158.493 69.4125C158.493 69.2289 158.247 69.2289 158.123 69.2289V69.4728C158.123 70.3932 159.167 71.1903 159.597 72.0503C159.904 72.1735 159.597 72.4803 160.211 72.4803C160.211 72.0503 159.843 71.6832 159.72 71.2532ZM162.174 60.146C161.868 60.146 160.764 60.576 160.517 60.8224C158.86 61.3128 157.266 63.6439 157.266 65.3614C157.266 66.6514 157.817 67.8785 158.003 69.166C158.553 70.026 158.86 70.8835 159.72 71.56H159.843C159.537 70.3328 158.614 69.2289 158.614 67.9389C158.247 67.5089 157.879 66.8349 157.879 66.2817C157.879 65.2407 158.37 64.2574 158.8 63.3974C159.537 62.8467 159.537 62.047 160.211 61.4963L160.884 61.3731C161.314 60.9431 162.174 60.576 162.421 60.146H162.174ZM169.477 63.1535C169.293 63.1535 169.107 63.0303 169.107 62.7864C167.757 61.3731 166.716 60.0856 164.568 60.0856C162.972 60.0856 161.807 61.1292 160.394 61.6799C159.29 62.8467 158.247 64.3806 158.247 66.0981C158.247 66.8953 158.493 67.6321 158.923 68.2457C159.107 69.5357 160.027 70.6396 160.087 71.9271C160.334 72.1132 161.377 73.3378 161.561 73.6446C162.174 74.8114 162.235 74.5046 163.278 75.3646C164.568 76.4686 164.138 78.4929 165.796 79.9061C166.469 81.3772 167.757 82.8507 167.757 84.5079C167.757 84.875 167.636 85.1818 167.636 85.5515C167.636 86.2254 167.88 86.8993 167.88 87.5758C167.88 87.9429 167.82 88.3126 167.636 88.5565C165.242 90.0301 164.752 90.6437 161.684 90.6437C158.614 90.6437 158.063 88.0661 156.039 86.5926V86.4693C156.039 86.2858 156.283 86.1022 156.283 85.8583C156.283 85.7351 156.159 85.6118 156.039 85.6118L156.159 85.4283C156.836 85.8583 157.203 86.5926 157.817 87.1458H158.247C159.046 88.9865 159.78 90.0301 162.051 90.0301C163.032 90.0301 163.955 89.7836 164.812 89.3536C166.226 88.7401 165.672 87.8826 166.226 86.7786V86.3486C166.409 83.0343 161.254 75.5482 158.8 73.0939C158.493 72.2968 157.633 71.7435 157.51 70.8835C157.082 70.1493 156.836 69.7192 156.836 68.7989C156.836 67.5089 156.529 66.161 156.529 64.8106C156.959 64.0739 157.019 63.1535 157.633 62.5399C159.597 60.6363 161.254 59.4092 164.199 59.4092C165.796 59.4092 169.784 60.6363 169.784 62.8467C169.784 62.9699 169.6 63.1535 169.477 63.1535Z" fill="#FFF"/>
<path d="M167.206 87.7593C165.916 88.2497 165.916 89.2933 164.996 89.9672L165.242 90.0904C165.733 89.6001 167.329 88.9261 167.329 88.1894C167.329 88.0661 167.267 87.8826 167.206 87.7593ZM166.837 85.1818C166.96 85.0586 167.023 84.875 167.023 84.6915C167.023 84.3243 166.837 83.9547 166.837 83.5247C165.979 81.8675 165.486 79.9664 164.382 78.3696C163.648 78.1861 164.138 77.5725 163.585 77.3286C163.339 76.285 162.728 75.4879 161.928 74.8743C161.744 74.4443 161.131 73.4007 160.701 73.2171V73.5239C161.071 73.7678 161.191 74.1375 161.377 74.4443C162.972 77.0218 164.812 79.5364 165.796 82.4207C166.102 83.5247 166.716 84.875 166.716 86.0418C166.716 86.5322 166.653 86.9622 166.409 87.3897C166.409 87.5129 166.53 87.6361 166.653 87.5758C166.96 87.2061 167.023 86.7786 167.023 86.2858C167.023 85.9186 166.96 85.5515 166.837 85.1818ZM160.394 72.7871L160.273 72.8475L160.394 72.9103V72.7871ZM159.72 71.2532C159.107 70.8835 159.29 70.3328 158.493 69.7192C158.43 69.6589 158.493 69.5357 158.493 69.4125C158.493 69.2289 158.247 69.2289 158.123 69.2289V69.4728C158.123 70.3932 159.167 71.1903 159.597 72.0503C159.904 72.1735 159.597 72.4803 160.211 72.4803C160.211 72.0503 159.843 71.6832 159.72 71.2532ZM162.174 60.146C161.868 60.146 160.764 60.576 160.517 60.8224C158.86 61.3128 157.266 63.6439 157.266 65.3614C157.266 66.6514 157.817 67.8785 158.003 69.166C158.553 70.026 158.86 70.8835 159.72 71.56H159.843C159.537 70.3328 158.614 69.2289 158.614 67.9389C158.247 67.5089 157.879 66.8349 157.879 66.2817C157.879 65.2407 158.37 64.2574 158.8 63.3974C159.537 62.8467 159.537 62.047 160.211 61.4963L160.884 61.3731C161.314 60.9431 162.174 60.576 162.421 60.146H162.174ZM169.477 63.1535C169.293 63.1535 169.107 63.0303 169.107 62.7864C167.757 61.3731 166.716 60.0856 164.568 60.0856C162.972 60.0856 161.807 61.1292 160.394 61.6799C159.29 62.8467 158.247 64.3806 158.247 66.0981C158.247 66.8953 158.493 67.6321 158.923 68.2457C159.107 69.5357 160.027 70.6396 160.087 71.9271C160.334 72.1132 161.377 73.3378 161.561 73.6446C162.174 74.8114 162.235 74.5046 163.278 75.3646C164.568 76.4686 164.138 78.4929 165.796 79.9061C166.469 81.3772 167.757 82.8508 167.757 84.5079C167.757 84.875 167.636 85.1818 167.636 85.5515C167.636 86.2254 167.88 86.8993 167.88 87.5758C167.88 87.9429 167.82 88.3126 167.636 88.5565C165.242 90.0301 164.752 90.6437 161.684 90.6437C158.614 90.6437 158.063 88.0661 156.039 86.5926V86.4693C156.039 86.2858 156.283 86.1022 156.283 85.8583C156.283 85.7351 156.159 85.6118 156.039 85.6118L156.159 85.4283C156.836 85.8583 157.203 86.5926 157.817 87.1458H158.247C159.046 88.9865 159.78 90.0301 162.051 90.0301C163.032 90.0301 163.955 89.7836 164.812 89.3536C166.226 88.7401 165.672 87.8826 166.226 86.7786V86.3486C166.409 83.0343 161.254 75.5482 158.8 73.0939C158.493 72.2968 157.633 71.7435 157.51 70.8835C157.082 70.1493 156.836 69.7192 156.836 68.7989C156.836 67.5089 156.529 66.161 156.529 64.8106C156.959 64.0739 157.019 63.1535 157.633 62.5399C159.597 60.6363 161.254 59.4092 164.199 59.4092C165.796 59.4092 169.784 60.6363 169.784 62.8467C169.784 62.9699 169.6 63.1535 169.477 63.1535Z" stroke="#FFF" stroke-width="0.295603" stroke-miterlimit="10"/>
<path d="M187.374 64.0162C187.004 63.4655 186.76 63.0355 185.963 63.0355C185.84 63.0355 185.654 63.1587 185.654 63.3422V63.4026L185.777 63.3422C186.637 63.3422 186.76 64.0765 187.374 64.3858V64.0162ZM186.637 86.5977C186.393 86.7813 185.963 86.6581 185.654 86.6581C185.47 86.6581 185.226 86.7209 185.226 86.9649C185.226 87.4577 186.637 87.3345 186.884 87.3345C187.067 87.2717 187.557 87.0277 187.557 86.7813C187.434 86.5374 186.884 86.5977 186.637 86.5977ZM188.417 67.2676C187.864 66.8401 187.864 66.0405 187.681 65.7965L185.963 64.0162H185.84C185.164 64.0162 183.569 68.618 183.323 69.4151C183.506 69.6012 183.753 69.6616 183.999 69.6616C184.613 69.6616 185.164 69.4151 185.84 69.478C186.944 69.2315 188.111 69.4151 189.215 69.1108L188.417 67.2676ZM181.359 69.4151C181.359 69.6012 181.482 69.8451 181.728 69.7848H182.035C182.402 69.7848 182.709 69.478 182.772 69.1108C183.2 67.8208 184.122 66.5333 184.243 65.2433C182.895 65.9801 181.359 67.8208 181.359 69.4151ZM181.422 70.9491L181.359 71.0119C180.501 71.7487 180.625 71.6255 180.625 72.6691C180.625 73.0991 180.378 73.5291 180.378 73.9566C180.378 74.2634 180.625 74.4469 180.625 74.7562C180.625 74.9398 180.441 75.2466 180.378 75.3673C180.378 76.2273 180.255 77.0245 180.255 77.8845C180.255 78.5584 181.115 82.1795 181.545 82.3027C181.482 81.9356 181.545 81.6288 181.545 81.2591C181.545 80.9523 181.482 80.6455 181.298 80.462C181.359 80.2784 181.422 80.0923 181.422 79.9088C181.422 79.1116 180.745 77.2709 180.745 76.2877C180.745 74.9398 181.359 72.6691 182.035 71.4419V71.3791C182.035 71.0723 181.668 70.9491 181.422 70.9491ZM188.908 86.2306C187.497 87.1484 187.925 87.7645 185.84 87.7645C184.98 87.7645 184.122 87.5784 183.386 87.2717C179.704 83.5902 180.255 81.3195 179.151 76.6573L179.458 76.2877C179.458 75.7973 179.335 75.2466 179.335 74.7562C179.335 74.633 179.641 73.6498 179.704 73.5291C179.641 73.2198 179.641 72.913 179.641 72.6087C179.641 72.2391 179.825 71.7487 179.888 71.3791C179.641 71.1955 179.335 71.1351 179.028 71.1351C178.291 71.1351 177.617 71.3791 176.88 71.3791C175.776 71.3791 174.486 71.4419 173.322 71.2584V71.0723C173.322 70.8284 173.812 70.7655 173.996 70.7655C175.53 70.7655 177.127 70.8284 178.598 70.3983V70.338C178.598 70.2148 178.17 70.2751 178.107 70.2751C177.984 70.2751 177.924 70.2148 177.924 70.1519C178.844 69.7219 180.441 70.5819 180.441 69.1712C180.441 67.6976 182.035 66.2869 182.956 65.2433C183.939 63.9558 184.796 62.4219 186.637 62.4219H186.884C188.541 63.1587 188.048 64.8762 189.215 65.9801C189.215 66.5937 189.521 67.2073 189.521 67.8208C190.012 68.4344 189.828 68.9248 190.072 69.6012C188.417 70.2751 184.736 70.338 182.772 70.7655C181.852 72.3623 181.422 73.9566 181.422 75.7369C181.422 78.8652 182.279 81.7495 182.832 84.8174C182.895 85.0034 182.895 85.6774 183.262 85.6145H183.506C183.939 85.6145 184.366 86.0445 184.673 86.3538C184.92 86.3538 185.226 86.4142 185.47 86.4142C186.697 86.4142 189.152 85.9213 189.828 84.757C190.932 82.9163 191.606 81.6288 191.606 79.4813C191.606 79.0487 191.485 76.5341 191.915 76.5341C192.222 76.5341 192.343 77.638 192.343 77.8216C192.343 81.0756 191.729 84.327 188.908 86.2306Z" fill="#FFF"/>
<path d="M187.374 64.0162C187.004 63.4655 186.76 63.0355 185.963 63.0355C185.84 63.0355 185.654 63.1587 185.654 63.3422V63.4026L185.777 63.3422C186.637 63.3422 186.76 64.0765 187.374 64.3858V64.0162ZM186.637 86.5977C186.393 86.7813 185.963 86.6581 185.654 86.6581C185.47 86.6581 185.226 86.7209 185.226 86.9649C185.226 87.4577 186.637 87.3345 186.884 87.3345C187.067 87.2717 187.557 87.0277 187.557 86.7813C187.434 86.5374 186.884 86.5977 186.637 86.5977ZM188.417 67.2676C187.864 66.8401 187.864 66.0405 187.681 65.7965L185.963 64.0162H185.84C185.164 64.0162 183.569 68.618 183.323 69.4151C183.506 69.6012 183.753 69.6616 183.999 69.6616C184.613 69.6616 185.164 69.4151 185.84 69.478C186.944 69.2315 188.111 69.4151 189.215 69.1108L188.417 67.2676ZM181.359 69.4151C181.359 69.6012 181.482 69.8451 181.728 69.7848H182.035C182.402 69.7848 182.709 69.478 182.772 69.1108C183.2 67.8208 184.122 66.5333 184.243 65.2433C182.895 65.9801 181.359 67.8208 181.359 69.4151ZM181.422 70.9491L181.359 71.0119C180.501 71.7487 180.625 71.6255 180.625 72.6691C180.625 73.0991 180.378 73.5291 180.378 73.9566C180.378 74.2634 180.625 74.4469 180.625 74.7562C180.625 74.9398 180.441 75.2466 180.378 75.3673C180.378 76.2273 180.255 77.0245 180.255 77.8845C180.255 78.5584 181.115 82.1795 181.545 82.3027C181.482 81.9356 181.545 81.6288 181.545 81.2591C181.545 80.9523 181.482 80.6455 181.298 80.462C181.359 80.2784 181.422 80.0923 181.422 79.9088C181.422 79.1116 180.745 77.2709 180.745 76.2877C180.745 74.9398 181.359 72.6691 182.035 71.4419V71.3791C182.035 71.0723 181.668 70.9491 181.422 70.9491ZM188.908 86.2306C187.497 87.1484 187.925 87.7645 185.84 87.7645C184.98 87.7645 184.122 87.5784 183.386 87.2717C179.704 83.5902 180.255 81.3195 179.151 76.6573L179.458 76.2877C179.458 75.7973 179.335 75.2466 179.335 74.7562C179.335 74.633 179.641 73.6498 179.704 73.5291C179.641 73.2198 179.641 72.913 179.641 72.6087C179.641 72.2391 179.825 71.7487 179.888 71.3791C179.641 71.1955 179.335 71.1351 179.028 71.1351C178.291 71.1351 177.617 71.3791 176.88 71.3791C175.776 71.3791 174.486 71.4419 173.322 71.2584V71.0723C173.322 70.8284 173.812 70.7655 173.996 70.7655C175.53 70.7655 177.127 70.8284 178.598 70.3983V70.338C178.598 70.2148 178.17 70.2751 178.107 70.2751C177.984 70.2751 177.924 70.2148 177.924 70.1519C178.844 69.7219 180.441 70.5819 180.441 69.1712C180.441 67.6976 182.035 66.2869 182.956 65.2433C183.939 63.9558 184.796 62.4219 186.637 62.4219H186.884C188.541 63.1587 188.048 64.8762 189.215 65.9801C189.215 66.5937 189.521 67.2073 189.521 67.8208C190.012 68.4344 189.828 68.9248 190.072 69.6012C188.417 70.2751 184.736 70.338 182.772 70.7655C181.852 72.3623 181.422 73.9566 181.422 75.737C181.422 78.8652 182.279 81.7495 182.832 84.8174C182.895 85.0034 182.895 85.6774 183.262 85.6145H183.506C183.939 85.6145 184.366 86.0445 184.673 86.3538C184.92 86.3538 185.226 86.4142 185.47 86.4142C186.697 86.4142 189.152 85.9213 189.828 84.757C190.932 82.9163 191.606 81.6288 191.606 79.4813C191.606 79.0487 191.485 76.5341 191.915 76.5341C192.222 76.5341 192.343 77.638 192.343 77.8216C192.343 81.0756 191.729 84.327 188.908 86.2306Z" stroke="#FFF" stroke-width="0.295603" stroke-miterlimit="10"/>
<path d="M211.829 64.0162C211.459 63.4655 211.216 63.0355 210.418 63.0355C210.295 63.0355 210.109 63.1587 210.109 63.3422V63.4026L210.232 63.3422C211.092 63.3422 211.216 64.0765 211.829 64.3858V64.0162ZM211.092 86.5977C210.848 86.7813 210.418 86.6581 210.109 86.6581C209.925 86.6581 209.682 86.7209 209.682 86.9649C209.682 87.4577 211.092 87.3345 211.339 87.3345C211.522 87.2717 212.013 87.0277 212.013 86.7813C211.889 86.5374 211.339 86.5977 211.092 86.5977ZM212.873 67.2676C212.319 66.8401 212.319 66.0405 212.136 65.7965L210.418 64.0162H210.295C209.619 64.0162 208.024 68.618 207.778 69.4151C207.962 69.6012 208.208 69.6616 208.454 69.6616C209.068 69.6616 209.619 69.4151 210.295 69.478C211.399 69.2315 212.563 69.4151 213.67 69.1108L212.873 67.2676ZM205.814 69.4151C205.814 69.6012 205.937 69.8451 206.184 69.7848H206.49C206.858 69.7848 207.164 69.478 207.227 69.1108C207.655 67.8208 208.578 66.5333 208.698 65.2433C207.35 65.9801 205.814 67.8208 205.814 69.4151ZM205.877 70.9491L205.814 71.0119C204.957 71.7487 205.08 71.6255 205.08 72.6691C205.08 73.0991 204.833 73.5291 204.833 73.9566C204.833 74.2634 205.08 74.4469 205.08 74.7562C205.08 74.9398 204.896 75.2466 204.833 75.3673C204.833 76.2273 204.71 77.0245 204.71 77.8845C204.71 78.5584 205.57 82.1795 206 82.3027C205.937 81.9356 206 81.6288 206 81.2591C206 80.9523 205.937 80.6455 205.754 80.462C205.814 80.2784 205.877 80.0923 205.877 79.9088C205.877 79.1116 205.2 77.2709 205.2 76.2877C205.2 74.9398 205.814 72.6691 206.49 71.4419V71.3791C206.49 71.0723 206.123 70.9491 205.877 70.9491ZM213.363 86.2306C211.952 87.1484 212.38 87.7645 210.295 87.7645C209.435 87.7645 208.578 87.5784 207.841 87.2717C204.159 83.5902 204.71 81.3195 203.606 76.6573L203.913 76.2877C203.913 75.7973 203.79 75.2466 203.79 74.7562C203.79 74.633 204.097 73.6498 204.159 73.5291C204.097 73.2198 204.097 72.913 204.097 72.6087C204.097 72.2391 204.28 71.7487 204.343 71.3791C204.097 71.1955 203.79 71.1351 203.483 71.1351C202.746 71.1351 202.072 71.3791 201.335 71.3791C200.232 71.3791 198.942 71.4419 197.777 71.2584V71.0723C197.777 70.8284 198.268 70.7655 198.451 70.7655C199.985 70.7655 201.582 70.8284 203.053 70.3983V70.338C203.053 70.2148 202.625 70.2751 202.563 70.2751C202.439 70.2751 202.379 70.2148 202.379 70.1519C203.299 69.7219 204.896 70.5819 204.896 69.1712C204.896 67.6976 206.49 66.2869 207.411 65.2433C208.392 63.9558 209.252 62.4219 211.092 62.4219H211.339C212.996 63.1587 212.503 64.8762 213.67 65.9801C213.67 66.5937 213.977 67.2073 213.977 67.8208C214.467 68.4344 214.283 68.9248 214.527 69.6012C212.873 70.2751 209.189 70.338 207.227 70.7655C206.307 72.3623 205.877 73.9566 205.877 75.7369C205.877 78.8652 206.734 81.7495 207.288 84.8174C207.35 85.0034 207.35 85.6774 207.718 85.6145H207.962C208.392 85.6145 208.822 86.0445 209.128 86.3538C209.375 86.3538 209.682 86.4142 209.925 86.4142C211.153 86.4142 213.607 85.9213 214.283 84.757C215.387 82.9163 216.061 81.6288 216.061 79.4813C216.061 79.0487 215.941 76.5341 216.371 76.5341C216.677 76.5341 216.798 77.638 216.798 77.8216C216.798 81.0756 216.184 84.327 213.363 86.2306Z" fill="#FFF"/>
<path d="M211.829 64.0162C211.459 63.4655 211.216 63.0355 210.418 63.0355C210.295 63.0355 210.109 63.1587 210.109 63.3422V63.4026L210.232 63.3422C211.092 63.3422 211.216 64.0765 211.829 64.3858V64.0162ZM211.092 86.5977C210.848 86.7813 210.418 86.6581 210.109 86.6581C209.925 86.6581 209.682 86.7209 209.682 86.9649C209.682 87.4577 211.092 87.3345 211.339 87.3345C211.522 87.2717 212.013 87.0277 212.013 86.7813C211.889 86.5374 211.339 86.5977 211.092 86.5977ZM212.873 67.2676C212.319 66.8401 212.319 66.0405 212.136 65.7965L210.418 64.0162H210.295C209.619 64.0162 208.024 68.618 207.778 69.4151C207.962 69.6012 208.208 69.6616 208.454 69.6616C209.068 69.6616 209.619 69.4151 210.295 69.478C211.399 69.2315 212.563 69.4151 213.67 69.1108L212.873 67.2676ZM205.814 69.4151C205.814 69.6012 205.937 69.8451 206.184 69.7848H206.49C206.858 69.7848 207.164 69.478 207.227 69.1108C207.655 67.8208 208.578 66.5333 208.698 65.2433C207.35 65.9801 205.814 67.8208 205.814 69.4151ZM205.877 70.9491L205.814 71.0119C204.957 71.7487 205.08 71.6255 205.08 72.6691C205.08 73.0991 204.833 73.5291 204.833 73.9566C204.833 74.2634 205.08 74.4469 205.08 74.7562C205.08 74.9398 204.896 75.2466 204.833 75.3673C204.833 76.2273 204.71 77.0245 204.71 77.8845C204.71 78.5584 205.57 82.1795 206 82.3027C205.937 81.9356 206 81.6288 206 81.2591C206 80.9523 205.937 80.6455 205.754 80.462C205.814 80.2784 205.877 80.0923 205.877 79.9088C205.877 79.1116 205.2 77.2709 205.2 76.2877C205.2 74.9398 205.814 72.6691 206.49 71.4419V71.3791C206.49 71.0723 206.123 70.9491 205.877 70.9491ZM213.363 86.2306C211.952 87.1484 212.38 87.7645 210.295 87.7645C209.435 87.7645 208.578 87.5784 207.841 87.2717C204.159 83.5902 204.71 81.3195 203.606 76.6573L203.913 76.2877C203.913 75.7973 203.79 75.2466 203.79 74.7562C203.79 74.633 204.097 73.6498 204.159 73.5291C204.097 73.2198 204.097 72.913 204.097 72.6087C204.097 72.2391 204.28 71.7487 204.343 71.3791C204.097 71.1955 203.79 71.1351 203.483 71.1351C202.746 71.1351 202.072 71.3791 201.335 71.3791C200.232 71.3791 198.942 71.4419 197.777 71.2584V71.0723C197.777 70.8284 198.268 70.7655 198.451 70.7655C199.985 70.7655 201.582 70.8284 203.053 70.3983V70.338C203.053 70.2148 202.625 70.2751 202.563 70.2751C202.439 70.2751 202.379 70.2148 202.379 70.1519C203.299 69.7219 204.896 70.5819 204.896 69.1712C204.896 67.6976 206.49 66.2869 207.411 65.2433C208.392 63.9558 209.252 62.4219 211.092 62.4219H211.339C212.996 63.1587 212.503 64.8762 213.67 65.9801C213.67 66.5937 213.977 67.2073 213.977 67.8208C214.467 68.4344 214.283 68.9248 214.527 69.6012C212.873 70.2751 209.189 70.338 207.227 70.7655C206.307 72.3623 205.877 73.9566 205.877 75.737C205.877 78.8652 206.734 81.7495 207.288 84.8174C207.35 85.0034 207.35 85.6774 207.718 85.6145H207.962C208.392 85.6145 208.822 86.0445 209.128 86.3538C209.375 86.3538 209.682 86.4142 209.925 86.4142C211.153 86.4142 213.607 85.9213 214.283 84.757C215.387 82.9163 216.061 81.6288 216.061 79.4813C216.061 79.0487 215.941 76.5341 216.371 76.5341C216.677 76.5341 216.798 77.638 216.798 77.8216C216.798 81.0756 216.184 84.327 213.363 86.2306Z" stroke="#FFF" stroke-width="0.295603" stroke-miterlimit="10"/>
<path d="M241.929 74.1325L241.746 74.4393C241.746 74.5625 241.806 74.6858 241.929 74.7461C241.99 74.6858 242.053 74.5625 242.053 74.5022C242.053 74.379 241.99 74.2557 241.929 74.1325ZM240.825 83.4594C240.702 83.7662 240.639 84.0729 240.639 84.3797C240.639 84.8726 240.702 86.9572 241.009 87.1408C241.193 86.7737 241.255 86.3437 241.255 85.9765C241.255 85.4837 241.255 83.5222 240.825 83.4594ZM240.639 67.7503C240.639 67.9339 240.519 68.1804 240.519 68.3639C240.519 68.4871 240.639 68.6707 240.702 68.6707C240.949 68.6707 241.132 68.12 241.255 67.9339C241.255 67.69 240.763 67.7503 240.639 67.7503ZM240.825 71.3111C240.825 70.9414 241.132 70.5743 241.132 70.2046V70.0839C240.949 69.8375 241.069 69.0404 240.825 69.0404C240.702 69.0404 240.456 69.2239 240.395 69.2843C240.335 70.4511 240.335 71.6782 240.335 72.8425V74.9297C240.335 77.0772 240.212 79.5315 240.519 81.6186C240.579 81.9254 240.579 82.3554 240.949 82.3554C241.255 81.1283 241.193 79.7151 241.193 78.4904C241.193 76.7704 240.949 75.1132 240.949 73.3957C240.949 72.9054 241.009 72.3522 241.255 71.9247C241.009 71.8014 240.825 71.6179 240.825 71.3111ZM239.292 68.0571C238.125 68.4268 237.021 68.9171 235.977 69.5911L236.161 69.6539C236.591 69.2239 238.678 68.8568 239.292 68.8568C239.722 68.8568 239.905 68.6707 239.905 68.2407C239.905 67.9968 239.475 68.0571 239.292 68.0571ZM239.722 72.2315C240.089 71.3111 239.659 70.3882 239.905 69.4678L239.722 69.1636H239.352C237.881 69.0404 236.714 70.1443 235.24 70.2046C234.873 70.6347 234.26 70.5743 233.83 71.0043C231.499 71.6782 229.411 73.4586 227.631 75.0529C226.527 76.0361 226.1 78.0001 226.16 79.4108C225.976 79.7151 225.914 80.0847 225.914 80.3915C225.914 83.4594 229.535 84.4401 231.989 84.4401C234.137 84.4401 237.941 83.6429 239.782 82.6622C239.782 82.2926 239.842 81.9254 240.028 81.6186C239.598 78.5508 239.842 75.2993 239.722 72.2315ZM228.124 84.0729C226.834 83.8894 225.79 82.6622 225.484 81.4351C225.423 81.1283 225.607 80.9447 225.607 80.6379C225.607 80.5147 225.546 80.4544 225.484 80.3311C224.626 80.6983 224.38 81.679 224.196 82.539C225.116 84.4401 227.631 85.1769 229.595 85.4233C229.965 85.1769 230.885 85.6069 231.069 85.1165C230.209 84.4401 228.981 84.7494 228.124 84.0729ZM224.626 79.7151C224.319 80.0244 223.643 80.3915 223.643 80.8819C223.643 80.9447 223.643 81.0654 223.706 81.1283L224.013 81.0051C224.073 80.5751 224.626 80.2079 224.626 79.7779V79.7151ZM244.997 81.8651C244.077 81.9254 243.28 82.4787 242.42 82.8458C242.053 84.2565 242.176 85.7904 242.176 87.264C242.176 87.694 242.176 88.124 242.113 88.5515H241.99C241.683 88.4912 241.316 88.9212 241.009 88.9212C240.886 88.9212 240.763 88.8583 240.639 88.7376C240.212 87.264 240.089 85.6069 240.089 84.0729L239.905 83.6429C238.125 84.1962 236.407 84.9933 234.567 84.9933C233.583 85.363 231.069 85.5465 229.965 85.5465C226.774 85.5465 227.08 84.8097 224.503 83.8894C224.319 83.7058 224.196 83.829 224.013 83.8894C223.276 82.2322 223.029 82.6622 223.029 80.6983C223.029 80.4544 223.029 80.2079 223.153 80.0244C223.766 79.5315 224.073 76.28 224.81 76.1568C229.902 70.7579 232.849 69.1007 239.905 67.1368L240.089 66.7093V64.6221C240.149 64.6825 240.149 64.7453 240.149 64.7453C240.212 64.7453 240.272 64.6825 240.272 64.6221C240.395 64.0689 240.395 63.395 240.395 62.7814L240.456 62.105C240.456 61.3078 239.905 61.0614 239.905 59.5903C239.905 58.6071 240.149 57.566 240.149 56.5224C240.149 56.0924 240.028 55.7228 239.965 55.2324C239.598 53.1478 239.659 50.877 239.659 48.7899C239.659 46.7656 239.722 44.6784 239.782 42.6541C239.659 42.5938 239.782 40.7505 239.782 40.4438C239.782 40.0766 239.782 38.9123 239.905 39.3398C239.722 38.4823 239.659 37.562 239.535 36.702C239.598 36.5787 239.598 36.5184 239.598 36.458C239.598 36.2116 239.535 36.0255 239.535 35.8419L239.659 35.5352H239.842C240.825 35.5352 240.949 39.4027 240.949 40.3231C240.949 41.4873 240.639 42.5938 240.639 43.7581C240.639 45.7849 240.763 47.7463 240.763 49.7102C240.763 50.5099 240.763 51.6138 241.193 52.3481C241.683 52.0413 241.439 51.4303 241.439 50.9374C241.439 47.5627 241.683 44.1881 241.623 40.7505H241.806L241.929 40.9366C242.053 41.4873 241.99 42.2241 241.99 42.7774C241.99 47.3792 241.56 51.9206 241.56 56.5224C241.56 56.5828 241.623 56.8896 241.56 56.9524C241.499 56.5828 241.193 53.6985 241.069 53.6381C241.009 53.8217 241.009 54.0681 241.009 54.2517C241.009 55.7228 241.069 57.1964 241.132 58.6699C241.132 60.3271 241.316 62.2282 241.746 63.8853C241.746 63.9457 241.869 64.1921 241.929 64.1921C242.053 63.8853 242.053 63.5157 242.053 63.2114C242.113 63.6389 242.176 64.1318 242.359 64.5593C242.299 64.4385 242.299 64.0085 242.176 63.8853C242.053 64.255 242.053 65.0521 242.053 65.4193C242.053 65.8493 241.929 66.5861 242.42 66.7093H242.727C242.91 66.7093 243.157 66.7696 243.34 66.83C243.34 67.4436 242.483 67.0764 242.113 67.4436C242.113 69.8375 242.666 72.1686 242.666 74.5625C242.666 75.2365 242.603 75.9129 242.603 76.5868C242.603 78.1208 242.789 79.8383 242.543 81.3119C242.727 81.5583 242.91 81.679 243.157 81.679C243.647 81.679 244.014 81.4351 244.447 81.4351C244.63 81.3119 244.874 81.2515 245.121 81.2515C245.244 81.2515 245.427 81.3119 245.611 81.3119V81.4954C245.611 81.7419 245.181 81.8022 244.997 81.8651Z" fill="#FFF"/>
<path d="M241.929 74.1325L241.746 74.4393C241.746 74.5625 241.806 74.6858 241.929 74.7461C241.99 74.6858 242.053 74.5625 242.053 74.5022C242.053 74.379 241.99 74.2557 241.929 74.1325ZM240.825 83.4594C240.702 83.7662 240.639 84.0729 240.639 84.3797C240.639 84.8726 240.702 86.9572 241.009 87.1408C241.193 86.7737 241.255 86.3437 241.255 85.9765C241.255 85.4837 241.255 83.5222 240.825 83.4594ZM240.639 67.7503C240.639 67.9339 240.519 68.1804 240.519 68.3639C240.519 68.4871 240.639 68.6707 240.702 68.6707C240.949 68.6707 241.132 68.12 241.255 67.9339C241.255 67.69 240.763 67.7503 240.639 67.7503ZM240.825 71.3111C240.825 70.9414 241.132 70.5743 241.132 70.2046V70.0839C240.949 69.8375 241.069 69.0404 240.825 69.0404C240.702 69.0404 240.456 69.2239 240.395 69.2843C240.335 70.4511 240.335 71.6782 240.335 72.8425V74.9297C240.335 77.0772 240.212 79.5315 240.519 81.6186C240.579 81.9254 240.579 82.3554 240.949 82.3554C241.255 81.1283 241.193 79.7151 241.193 78.4904C241.193 76.7704 240.949 75.1132 240.949 73.3957C240.949 72.9054 241.009 72.3522 241.255 71.9247C241.009 71.8014 240.825 71.6179 240.825 71.3111ZM239.292 68.0571C238.125 68.4268 237.021 68.9171 235.977 69.5911L236.161 69.6539C236.591 69.2239 238.678 68.8568 239.292 68.8568C239.722 68.8568 239.905 68.6707 239.905 68.2407C239.905 67.9968 239.475 68.0571 239.292 68.0571ZM239.722 72.2315C240.089 71.3111 239.659 70.3882 239.905 69.4678L239.722 69.1636H239.352C237.881 69.0404 236.714 70.1443 235.24 70.2046C234.873 70.6347 234.26 70.5743 233.83 71.0043C231.499 71.6782 229.411 73.4586 227.631 75.0529C226.527 76.0361 226.1 78.0001 226.16 79.4108C225.976 79.7151 225.914 80.0847 225.914 80.3915C225.914 83.4594 229.535 84.4401 231.989 84.4401C234.137 84.4401 237.941 83.6429 239.782 82.6622C239.782 82.2926 239.842 81.9254 240.028 81.6186C239.598 78.5508 239.842 75.2993 239.722 72.2315ZM228.124 84.0729C226.834 83.8894 225.79 82.6622 225.484 81.4351C225.423 81.1283 225.607 80.9447 225.607 80.6379C225.607 80.5147 225.546 80.4544 225.484 80.3311C224.626 80.6983 224.38 81.679 224.196 82.539C225.116 84.4401 227.631 85.1769 229.595 85.4233C229.965 85.1769 230.885 85.6069 231.069 85.1165C230.209 84.4401 228.981 84.7494 228.124 84.0729ZM224.626 79.7151C224.319 80.0244 223.643 80.3915 223.643 80.8819C223.643 80.9447 223.643 81.0654 223.706 81.1283L224.013 81.0051C224.073 80.5751 224.626 80.2079 224.626 79.7779V79.7151ZM244.997 81.8651C244.077 81.9254 243.28 82.4787 242.42 82.8458C242.053 84.2565 242.176 85.7904 242.176 87.264C242.176 87.694 242.176 88.124 242.113 88.5515H241.99C241.683 88.4912 241.316 88.9212 241.009 88.9212C240.886 88.9212 240.763 88.8583 240.639 88.7376C240.212 87.264 240.089 85.6069 240.089 84.0729L239.905 83.6429C238.125 84.1962 236.407 84.9933 234.567 84.9933C233.583 85.363 231.069 85.5465 229.965 85.5465C226.774 85.5465 227.08 84.8097 224.503 83.8894C224.319 83.7058 224.196 83.829 224.013 83.8894C223.276 82.2322 223.029 82.6622 223.029 80.6983C223.029 80.4544 223.029 80.2079 223.153 80.0244C223.766 79.5315 224.073 76.28 224.81 76.1568C229.902 70.7579 232.849 69.1007 239.905 67.1368L240.089 66.7093V64.6221C240.149 64.6825 240.149 64.7453 240.149 64.7453C240.212 64.7453 240.272 64.6825 240.272 64.6221C240.395 64.0689 240.395 63.395 240.395 62.7814L240.456 62.105C240.456 61.3078 239.905 61.0614 239.905 59.5903C239.905 58.6071 240.149 57.566 240.149 56.5224C240.149 56.0924 240.028 55.7228 239.965 55.2324C239.598 53.1478 239.659 50.877 239.659 48.7899C239.659 46.7656 239.722 44.6784 239.782 42.6541C239.659 42.5938 239.782 40.7505 239.782 40.4438C239.782 40.0766 239.782 38.9123 239.905 39.3398C239.722 38.4823 239.659 37.562 239.535 36.702C239.598 36.5787 239.598 36.5184 239.598 36.458C239.598 36.2116 239.535 36.0255 239.535 35.8419L239.659 35.5352H239.842C240.825 35.5352 240.949 39.4027 240.949 40.3231C240.949 41.4873 240.639 42.5938 240.639 43.7581C240.639 45.7849 240.763 47.7463 240.763 49.7102C240.763 50.5099 240.763 51.6138 241.193 52.3481C241.683 52.0413 241.439 51.4303 241.439 50.9374C241.439 47.5627 241.683 44.1881 241.623 40.7505H241.806L241.929 40.9366C242.053 41.4873 241.99 42.2241 241.99 42.7774C241.99 47.3792 241.56 51.9206 241.56 56.5224C241.56 56.5828 241.623 56.8896 241.56 56.9524C241.499 56.5828 241.193 53.6985 241.069 53.6381C241.009 53.8217 241.009 54.0681 241.009 54.2517C241.009 55.7228 241.069 57.1964 241.132 58.6699C241.132 60.3271 241.316 62.2282 241.746 63.8853C241.746 63.9457 241.869 64.1921 241.929 64.1921C242.053 63.8853 242.053 63.5157 242.053 63.2114C242.113 63.6389 242.176 64.1318 242.359 64.5593C242.299 64.4385 242.299 64.0085 242.176 63.8853C242.053 64.255 242.053 65.0521 242.053 65.4193C242.053 65.8493 241.929 66.5861 242.42 66.7093H242.727C242.91 66.7093 243.157 66.7696 243.34 66.83C243.34 67.4436 242.483 67.0764 242.113 67.4436C242.113 69.8375 242.666 72.1686 242.666 74.5625C242.666 75.2365 242.603 75.9129 242.603 76.5868C242.603 78.1208 242.789 79.8383 242.543 81.3119C242.727 81.5583 242.91 81.679 243.157 81.679C243.647 81.679 244.014 81.4351 244.447 81.4351C244.63 81.3119 244.874 81.2515 245.121 81.2515C245.244 81.2515 245.427 81.3119 245.611 81.3119V81.4954C245.611 81.7419 245.181 81.8022 244.997 81.8651Z" stroke="#FFF" stroke-width="0.295603" stroke-miterlimit="10"/>
<path d="M276.544 67.3329H276.239L277.343 67.0865C277.22 67.1468 276.607 67.3329 276.544 67.3329ZM277.773 67.0865H277.464L277.773 66.9029C277.464 66.9029 277.22 66.9029 276.974 66.7797C275.623 67.0236 274.213 67.0865 272.923 67.3329C272.862 67.3329 272.739 67.4561 272.739 67.4561C272.739 67.5165 272.739 67.5165 272.799 67.5768C273.415 67.5768 274.029 67.7 274.703 67.7C275.254 67.7 275.867 67.5165 276.423 67.4561C275.93 67.8233 274.213 67.7629 273.536 67.7629C273.29 67.7629 273.106 67.8233 272.923 67.8861C273.046 68.2533 273.473 68.3765 273.599 68.7436C274.947 70.094 276.177 71.9976 277.157 73.5919C277.157 73.7779 277.22 74.0847 277.343 74.208V74.4519C277.343 74.5751 277.527 74.7612 277.648 74.8215H277.71C277.71 74.8819 277.648 74.9447 277.648 75.0051C277.648 75.249 278.203 75.4351 278.203 75.6187C278.203 75.679 278.203 75.7419 278.14 75.7419C277.587 75.679 277.464 75.3722 277.22 74.9447C276.667 74.5751 276.544 73.7779 275.867 73.4686C275.747 72.9783 275.44 73.0412 275.254 72.5508L274.703 71.3211C274.947 71.384 275.133 71.5676 275.133 71.814C275.5 72.674 276.114 73.2247 276.544 74.0219C276.727 74.0847 276.727 74.3312 276.974 74.3915C276.607 73.3479 275.993 71.9976 275.01 71.3211C275.01 71.1376 274.947 70.8911 274.703 70.8911C274.58 70.8911 274.58 71.1376 274.643 71.1979C274.396 70.8308 274.275 70.4636 273.903 70.2172L273.966 70.094C273.966 69.7872 273.783 69.5408 273.536 69.4804C273.415 69.0504 272.923 69.4804 272.679 68.9901C272.495 68.56 271.939 68.4368 271.572 68.4368C270.468 70.094 266.417 73.9615 265.864 75.6187C265.497 75.679 265.25 75.9255 264.883 75.9255C264.82 75.9255 264.574 75.9255 264.574 75.8022C264.574 75.679 264.82 75.5558 264.883 75.3722C265.497 74.3915 270.959 68.6833 270.959 67.9465C270.959 67.7629 270.529 67.6397 270.345 67.6397C270.159 67.5768 269.918 67.5165 269.729 67.5165C269.178 67.5165 268.688 67.6397 268.135 67.6397C266.847 67.6397 265.497 67.8861 264.146 67.8861C263.9 67.8861 264.023 67.6397 263.837 67.4561C264.267 67.3932 264.637 67.0865 265.067 67.0865C265.188 67.0865 265.434 67.1468 265.618 67.27C265.987 67.27 266.354 67.3329 266.724 67.3329C268.074 67.3329 269.975 67.27 271.265 66.9632C271.326 66.9029 271.389 66.9029 271.389 66.84C271.389 66.7797 271.082 66.7193 271.142 66.5332C271.142 66.2893 269.729 65.0597 269.729 64.6925C269.792 64.6925 269.792 64.6322 269.792 64.6322C269.792 63.9582 267.644 61.4411 267.091 60.825V60.7646C267.091 60.395 266.784 60.2114 266.784 59.9046C266.784 59.7839 266.968 59.6607 267.091 59.6607C267.277 59.6607 267.398 59.9046 267.519 60.0278C267.461 60.0882 267.398 60.1511 267.398 60.2114C267.398 60.5182 268.748 62.2382 268.871 62.2382C268.932 62.2382 268.932 62.0546 268.995 62.0546C270.405 62.9121 270.775 64.5089 271.693 65.7361C272.616 65.7361 274.643 60.7646 275.809 60.3346H275.93C274.887 61.8711 273.72 63.3421 272.862 64.9993L272.983 65.1225C273.536 64.8761 273.415 64.2625 273.657 64.0789C273.783 63.8954 274.396 63.5282 274.396 63.3421C274.396 63.2189 275.93 61.3179 276.239 60.6414C276.544 60.3346 276.727 59.9675 277.037 59.5978L276.607 59.721C276.727 59.2307 277.773 58.6171 278.261 58.6775C277.71 59.6607 276.667 60.2114 276.239 61.255C275.684 62.4218 275.07 63.0957 274.275 64.0789V64.1418C274.275 64.3254 273.903 64.5089 273.903 64.6925C273.536 65.3061 272.369 65.9825 272.369 66.84C272.553 66.9029 272.799 66.9029 272.983 66.9029C274.58 66.9029 276.239 66.5332 277.831 66.5332C278.387 66.5332 279.184 66.4729 279.674 66.7193C279.061 66.9632 278.387 67.0236 277.773 67.0865Z" fill="#FFF" stroke="#FFF" stroke-width="0.295603" stroke-miterlimit="10"/>
<path d="M281.359 76.8785C281.505 76.4133 281.633 75.9179 281.756 75.4074C281.879 75.2465 282.01 75.0881 282.126 74.9196C282.126 75.6815 281.726 76.2699 281.359 76.8785ZM277.584 82.8382C277.524 83.145 277.28 83.2079 277.034 83.2682C277.27 82.6069 277.577 81.9832 277.876 81.3646C278.47 81.1383 279 80.6278 279.571 80.3236C278.962 81.2012 278.306 82.0461 277.584 82.8382ZM280.881 76.5415C280.506 77.3311 280.051 78.2037 279.488 79.2775C279.015 79.4761 278.784 79.964 278.457 80.3135C278.517 80.1299 278.578 79.9413 278.691 79.8307C279.219 78.6111 280.046 77.5801 280.881 76.5415ZM274.024 85.4786C273.596 86.2757 271.876 87.259 271.079 87.259C270.222 87.259 269.482 86.4618 268.625 86.399C268.441 85.7854 267.765 86.0922 267.335 85.7854C266.291 85.0486 264.878 83.575 264.267 82.4711C263.223 80.5071 262.303 77.9296 261.75 75.8425C261.506 74.9824 261.506 70.011 261.506 68.9674C261.506 65.2834 261.38 62.3991 262.914 59.0245C262.914 58.2877 263.653 57.8577 263.653 57.3045V57.058C264.083 56.5677 264.083 55.7705 264.636 55.3405C265.187 53.5601 266.844 52.4562 267.702 50.7965C268.378 50.4923 268.564 49.5719 269.178 49.1419C270.526 48.2819 271.939 47.0547 273.657 47.0547C273.84 47.178 274.024 47.2987 274.27 47.2987C274.396 47.2987 274.454 47.2383 274.579 47.2383L274.823 47.0547C275.07 47.1151 275.377 47.3615 275.5 46.9315C276.606 47.178 278.14 46.6247 278.814 47.8519C281.208 49.3858 280.471 52.6398 281.452 54.8502C281.638 56.8141 281.822 58.778 281.882 60.8048C281.942 63.5659 282.312 66.327 282.312 69.151C282.312 71.4267 282.154 72.8877 281.774 74.2255C281.527 74.6983 281.273 75.156 281.022 75.6589C280.351 76.026 280.225 77.0067 279.488 77.2532C279.018 78.1459 278.449 79.4057 277.796 80.6806C277.786 80.6806 277.781 80.6882 277.771 80.6907C277.69 80.6253 277.675 80.5348 277.627 80.4568C277.461 80.658 277.298 80.8592 277.109 81.0377C277.202 81.171 277.293 81.3068 277.403 81.4124C276.43 83.2154 275.294 84.9103 274.024 85.4786ZM269.545 88.2397C267.644 88.2397 265.496 87.5658 264.39 85.969C263.53 84.865 262.363 83.8214 261.81 82.4711C261.259 81.8575 259.416 74.4896 259.416 73.3856C259.416 73.3253 259.416 73.0789 259.602 73.0789C260.336 73.0789 261.689 77.0067 261.81 77.56C262.363 79.4007 263.407 81.3646 264.267 83.0846C264.757 83.9447 265.434 84.5582 265.924 85.4157C266.538 85.5993 266.844 86.2757 267.518 86.399C267.828 86.9522 268.441 87.0125 268.808 87.4425C269.052 87.4425 269.729 87.6261 269.729 87.9329C269.729 88.0561 269.729 88.2397 269.545 88.2397ZM284.153 69.581C283.846 69.8274 283.295 70.1945 283.356 70.6849V70.8685C282.865 71.6078 282.802 72.4653 282.312 73.2021C282.262 73.28 282.229 73.3655 282.184 73.4435C282.943 69.3018 283.172 64.5492 283.172 61.8459C283.172 59.3287 282.312 56.8744 282.068 54.3598C281.942 52.3933 281.882 50.2458 280.592 48.649C279.304 47.178 277.524 46.0715 275.5 46.0715C275.193 46.0715 274.886 46.0715 274.579 46.1319C274.333 45.9483 274.024 45.8879 273.719 45.8879C272.799 45.8879 272.06 46.5619 271.202 46.5619C270.958 46.5619 270.712 46.5015 270.526 46.4386L270.222 46.7479L271.325 46.8083C271.388 46.9315 271.509 47.0547 271.509 47.178C271.509 47.5451 270.465 47.4219 270.342 48.0355C268.378 49.079 266.291 51.5962 265.124 53.4369C264.45 54.5434 263.837 55.8937 263.223 57.058C263.16 57.1209 262.73 58.0412 262.61 58.0412C262.61 58.4713 262.486 58.8384 262.426 59.208C261.933 59.6984 262.24 60.6188 261.75 61.1091C261.013 63.4427 260.399 66.327 260.399 68.721C260.399 68.9045 260.276 68.9674 260.093 69.0278C260.032 68.4745 259.846 67.861 259.909 67.2499V66.8802C260.153 61.3556 260.276 56.6909 263.53 51.903C265.984 48.2819 269.115 47.7287 270.038 46.6247C269.854 46.6247 269.729 46.5619 269.545 46.5619C269.052 46.5619 268.564 46.8083 268.318 47.2383C264.82 48.4051 263.103 51.5962 261.626 54.6641C261.38 55.0337 261.076 55.2776 261.013 55.7705C260.766 56.8744 260.583 57.918 260.153 59.0245C260.032 59.452 259.786 60.1284 259.786 60.5584C259.786 60.9255 259.969 61.2952 259.969 61.6623C259.969 62.1527 259.909 62.5827 259.786 63.0756C259.112 66.4502 258.928 70.1317 258.928 73.5717C258.928 76.3328 260.153 78.7871 261.013 81.3043C261.933 84.005 263.9 86.2154 265.984 88.0561L267.518 88.3025C267.888 88.6093 268.318 88.7326 268.808 88.7326C269.482 88.7326 270.159 88.4861 270.835 88.5465H271.079C271.939 87.9958 273.41 87.6261 274.087 86.8918C274.27 86.7686 274.396 86.3386 274.64 86.3386C274.7 86.3386 274.763 86.3386 274.823 86.399C276.113 84.9882 277.71 83.8214 278.874 82.3479C279.488 81.6111 279.858 80.6907 280.408 79.8936C280.592 79.6471 280.592 79.2775 280.901 79.0939C281.638 77.2532 284.583 71.3613 284.583 69.7645V69.581H284.153Z" fill="#FFF"/>
<path d="M281.359 76.8785C281.505 76.4133 281.633 75.9179 281.756 75.4074C281.879 75.2465 282.01 75.0881 282.126 74.9196C282.126 75.6815 281.726 76.2699 281.359 76.8785ZM277.584 82.8382C277.524 83.145 277.28 83.2079 277.034 83.2682C277.27 82.6069 277.577 81.9832 277.876 81.3646C278.47 81.1383 279 80.6278 279.571 80.3236C278.962 81.2012 278.306 82.0461 277.584 82.8382ZM280.881 76.5415C280.506 77.3311 280.051 78.2037 279.488 79.2775C279.015 79.4761 278.784 79.964 278.457 80.3135C278.517 80.1299 278.578 79.9413 278.691 79.8307C279.219 78.6111 280.046 77.5801 280.881 76.5415ZM274.024 85.4786C273.596 86.2757 271.876 87.259 271.079 87.259C270.222 87.259 269.482 86.4618 268.625 86.399C268.441 85.7854 267.765 86.0922 267.335 85.7854C266.291 85.0486 264.878 83.575 264.267 82.4711C263.223 80.5071 262.303 77.9296 261.75 75.8425C261.506 74.9824 261.506 70.011 261.506 68.9674C261.506 65.2834 261.38 62.3991 262.914 59.0245C262.914 58.2877 263.653 57.8577 263.653 57.3045V57.058C264.083 56.5677 264.083 55.7705 264.636 55.3405C265.187 53.5601 266.844 52.4562 267.702 50.7965C268.378 50.4923 268.564 49.5719 269.178 49.1419C270.526 48.2819 271.939 47.0547 273.657 47.0547C273.84 47.178 274.024 47.2987 274.27 47.2987C274.396 47.2987 274.454 47.2383 274.579 47.2383L274.823 47.0547C275.07 47.1151 275.377 47.3615 275.5 46.9315C276.606 47.178 278.14 46.6247 278.814 47.8519C281.208 49.3858 280.471 52.6398 281.452 54.8502C281.638 56.8141 281.822 58.778 281.882 60.8048C281.942 63.5659 282.312 66.327 282.312 69.151C282.312 71.4267 282.154 72.8877 281.774 74.2255C281.527 74.6983 281.273 75.156 281.022 75.6589C280.351 76.026 280.225 77.0067 279.488 77.2532C279.018 78.1459 278.449 79.4057 277.796 80.6806C277.786 80.6806 277.781 80.6882 277.77 80.6907C277.69 80.6253 277.675 80.5348 277.627 80.4568C277.461 80.658 277.298 80.8592 277.109 81.0377C277.202 81.171 277.293 81.3068 277.403 81.4124C276.43 83.2154 275.294 84.9103 274.024 85.4786ZM269.545 88.2397C267.644 88.2397 265.496 87.5658 264.39 85.969C263.53 84.865 262.363 83.8214 261.81 82.4711C261.259 81.8575 259.416 74.4896 259.416 73.3856C259.416 73.3253 259.416 73.0789 259.602 73.0789C260.336 73.0789 261.689 77.0067 261.81 77.56C262.363 79.4007 263.407 81.3646 264.267 83.0846C264.757 83.9447 265.434 84.5582 265.924 85.4157C266.538 85.5993 266.844 86.2757 267.518 86.399C267.828 86.9522 268.441 87.0125 268.808 87.4425C269.052 87.4425 269.729 87.6261 269.729 87.9329C269.729 88.0561 269.729 88.2397 269.545 88.2397ZM284.153 69.581C283.846 69.8274 283.295 70.1945 283.356 70.6849V70.8685C282.865 71.6078 282.802 72.4653 282.312 73.2021C282.262 73.28 282.229 73.3655 282.184 73.4435C282.943 69.3018 283.172 64.5492 283.172 61.8459C283.172 59.3287 282.312 56.8744 282.068 54.3598C281.942 52.3933 281.882 50.2458 280.592 48.649C279.304 47.178 277.524 46.0715 275.5 46.0715C275.193 46.0715 274.886 46.0715 274.579 46.1319C274.333 45.9483 274.024 45.8879 273.719 45.8879C272.799 45.8879 272.06 46.5619 271.202 46.5619C270.958 46.5619 270.712 46.5015 270.526 46.4386L270.222 46.7479L271.325 46.8083C271.388 46.9315 271.509 47.0547 271.509 47.178C271.509 47.5451 270.465 47.4219 270.342 48.0355C268.378 49.079 266.291 51.5962 265.124 53.4369C264.45 54.5434 263.837 55.8937 263.223 57.058C263.16 57.1209 262.73 58.0412 262.61 58.0412C262.61 58.4713 262.486 58.8384 262.426 59.208C261.933 59.6984 262.24 60.6188 261.75 61.1091C261.013 63.4427 260.399 66.327 260.399 68.721C260.399 68.9045 260.276 68.9674 260.093 69.0278C260.032 68.4745 259.846 67.861 259.909 67.2499V66.8802C260.153 61.3556 260.276 56.6909 263.53 51.903C265.984 48.2819 269.115 47.7287 270.038 46.6247C269.854 46.6247 269.729 46.5619 269.545 46.5619C269.052 46.5619 268.564 46.8083 268.318 47.2383C264.82 48.4051 263.103 51.5962 261.626 54.6641C261.38 55.0337 261.076 55.2776 261.013 55.7705C260.766 56.8744 260.583 57.918 260.153 59.0245C260.032 59.452 259.786 60.1284 259.786 60.5584C259.786 60.9255 259.969 61.2952 259.969 61.6623C259.969 62.1527 259.909 62.5827 259.786 63.0756C259.112 66.4502 258.928 70.1317 258.928 73.5717C258.928 76.3328 260.153 78.7871 261.013 81.3043C261.933 84.005 263.9 86.2154 265.984 88.0561L267.518 88.3025C267.888 88.6093 268.318 88.7326 268.808 88.7326C269.482 88.7326 270.159 88.4861 270.835 88.5465H271.079C271.939 87.9958 273.41 87.6261 274.087 86.8918C274.27 86.7686 274.396 86.3386 274.64 86.3386C274.7 86.3386 274.763 86.3386 274.823 86.399C276.113 84.9882 277.71 83.8214 278.874 82.3479C279.488 81.6111 279.858 80.6907 280.408 79.8936C280.592 79.6471 280.592 79.2775 280.901 79.0939C281.638 77.2532 284.583 71.3613 284.583 69.7645V69.581H284.153Z" stroke="#FFF" stroke-width="0.295603" stroke-miterlimit="10"/>
<path d="M271.391 87.6814C271.328 87.6814 271.268 87.7443 271.268 87.8046H271.391C271.391 87.7443 271.391 87.7443 271.449 87.7443C271.449 87.6814 271.449 87.6814 271.391 87.6814Z" fill="#FFF"/>
<path d="M271.391 87.6814V87.8046" stroke="#FFF" stroke-width="0.295603" stroke-miterlimit="10"/>
</svg>
