<svg width="640" height="316" viewBox="0 0 640 316" fill="none" xmlns="http://www.w3.org/2000/svg">
<path d="M96.4005 175.518C93.823 176.5 93.823 178.586 91.9852 179.937L92.4729 180.182C93.4548 179.2 96.6459 177.85 96.6459 176.377C96.6459 176.132 96.5232 175.763 96.4005 175.518ZM95.664 170.363C95.9127 170.117 96.0323 169.749 96.0323 169.381C96.0323 168.644 95.664 167.908 95.664 167.049C93.949 163.735 92.9671 159.933 90.7546 156.738C89.285 156.373 90.2637 155.143 89.1591 154.652C88.6681 152.565 87.444 150.973 85.8484 149.745C85.4802 148.886 84.2529 146.799 83.3937 146.431V147.045C84.1301 147.536 84.3756 148.272 84.7438 148.886C87.9349 154.041 91.6138 159.07 93.5775 164.839C94.1912 167.049 95.4186 169.749 95.4186 172.081C95.4186 173.063 95.2958 173.922 94.8049 174.781C94.8049 175.027 95.0504 175.272 95.2958 175.15C95.9127 174.413 96.0323 173.554 96.0323 172.572C96.0323 171.836 95.9127 171.099 95.664 170.363ZM82.78 145.572L82.5346 145.695L82.78 145.817V145.572ZM81.4299 142.503C80.2026 141.767 80.5708 140.662 78.9752 139.435C78.8525 139.312 78.9752 139.066 78.9752 138.821C78.9752 138.453 78.4843 138.453 78.2388 138.453V138.944C78.2388 140.785 80.3253 142.381 81.1845 144.099C81.7981 144.344 81.1845 144.958 82.4118 144.958C82.4118 144.099 81.6722 143.362 81.4299 142.503ZM86.3394 120.287C85.7225 120.287 83.5164 121.146 83.0255 121.64C79.7116 122.622 76.5205 127.283 76.5205 130.72C76.5205 133.298 77.6251 135.752 77.9933 138.33C79.098 140.048 79.7116 141.767 81.4299 143.117H81.6722C81.0617 140.662 79.2207 138.453 79.2207 135.875C78.4843 135.016 77.7479 133.666 77.7479 132.561C77.7479 130.478 78.7298 128.514 79.5889 126.792C81.0617 125.688 81.0617 124.092 82.4118 122.99L83.7619 122.742C84.6178 121.886 86.3394 121.146 86.8303 120.287H86.3394ZM100.942 126.301C100.573 126.301 100.205 126.056 100.205 125.568C97.5051 122.742 95.4186 120.164 91.1228 120.164C87.9349 120.164 85.5997 122.251 82.78 123.355C80.5708 125.688 78.4843 128.756 78.4843 132.193C78.4843 133.789 78.9752 135.261 79.8344 136.489C80.2026 139.066 82.0436 141.276 82.1664 143.853C82.6541 144.222 84.7438 146.677 85.112 147.29C86.3394 149.619 86.4621 149.009 88.5454 150.727C91.1228 152.936 90.2637 156.987 93.5775 159.807C94.9309 162.753 97.5051 165.698 97.5051 169.012C97.5051 169.749 97.2596 170.363 97.2596 171.099C97.2596 172.449 97.7506 173.799 97.7506 175.15C97.7506 175.886 97.6278 176.622 97.2596 177.113C92.4729 180.059 91.491 181.287 85.3575 181.287C79.2207 181.287 78.1161 176.132 74.0658 173.186V172.94C74.0658 172.572 74.5567 172.204 74.5567 171.713C74.5567 171.467 74.3113 171.222 74.0658 171.222L74.3113 170.854C75.6614 171.713 76.3978 173.186 77.6251 174.29H78.4843C80.0798 177.973 81.5527 180.059 86.0939 180.059C88.0577 180.059 89.8987 179.568 91.6138 178.709C94.4367 177.482 93.3321 175.763 94.4367 173.554V172.695C94.8049 166.067 84.4983 151.095 79.5889 146.186C78.9752 144.59 77.2569 143.485 77.0115 141.767C76.1523 140.294 75.6614 139.435 75.6614 137.594C75.6614 135.016 75.0477 132.316 75.0477 129.615C75.9068 128.142 76.0296 126.301 77.2569 125.074C81.1845 121.269 84.4983 118.814 90.3896 118.814C93.5775 118.814 101.555 121.269 101.555 125.688C101.555 125.936 101.187 126.301 100.942 126.301Z" fill="#000"/>
<path d="M137.791 169.872C136.073 171.222 133.741 171.958 132.391 173.8H133.373C135.091 172.449 137.3 172.081 138.405 170.117L137.791 169.872ZM123.189 173.309C119.752 163.735 119.504 148.763 118.522 138.453C118.157 135.016 117.911 131.211 116.807 127.9C116.561 126.918 116.316 125.568 115.825 124.586C115.453 124.954 115.579 125.568 115.453 126.056C116.435 136.612 116.316 147.29 117.175 157.969C117.298 159.193 117.052 157.969 117.052 159.319C117.052 160.301 117.543 160.792 117.543 161.771C117.543 162.016 117.666 162.262 117.911 162.385C118.28 164.471 120.612 173.8 123.063 173.8C123.309 173.8 123.309 173.677 123.309 173.431L123.189 173.309ZM146.383 164.843C145.524 167.662 142.578 169.135 141.473 171.713C141.596 173.309 141.596 174.782 141.596 176.377C141.596 179.323 141.473 182.269 141.105 185.337C140.86 187.543 141.473 191.229 139.019 192.453C138.528 191.839 138.282 191.103 138.282 190.37C138.16 184.966 138.405 179.446 138.405 173.922H138.037C136.809 173.922 133.741 176.377 129.936 176.377C127.482 176.377 125.027 175.763 122.575 175.395C121.345 173.922 119.504 174.168 118.399 172.327C116.07 168.644 116.561 162.753 115.702 158.579C115.948 158.337 115.948 158.211 115.948 157.969C115.948 157.475 115.825 157.107 115.702 156.742C114.966 155.76 115.334 154.529 115.088 153.428C115.334 153.305 115.334 153.182 115.334 152.937C115.334 152.565 115.088 152.2 115.088 151.832L115.334 151.218C114.966 147.781 114.598 135.875 113.738 133.789C114.598 133.543 113.984 132.442 114.598 132.07C114.352 131.088 114.107 129.984 114.107 128.879C114.107 128.265 114.229 127.652 114.352 127.038C114.352 126.427 113.984 125.81 113.984 125.074C113.984 124.341 114.475 123.11 115.453 123.11C123.063 123.11 119.139 169.381 127.113 174.168C131.409 173.8 134.6 170.486 138.282 168.522L138.651 167.662C138.651 164.717 138.528 161.771 138.037 158.951C138.282 158.337 138.282 157.846 138.282 157.233C138.282 154.529 137.546 151.832 137.546 149.009C137.546 142.994 139.019 135.875 138.773 130.478C139.264 128.879 139.019 127.161 139.019 125.568C139.019 124.829 139.019 124.092 139.387 123.359H140.737C140.614 123.973 141.351 123.85 141.351 124.341C141.351 129.615 140.737 134.893 140.737 140.294C140.737 142.135 140.86 143.976 140.86 145.94C140.86 150.85 141.964 155.76 141.964 160.792C141.964 162.139 142.087 163.489 142.333 164.843C145.401 163.98 145.156 159.319 148.347 159.319C148.592 159.561 148.715 159.933 148.715 160.175C148.715 161.897 146.137 163.366 146.383 164.843Z" fill="#000"/>
<path d="M187.08 159.316V159.93C191.253 157.72 194.689 157.107 196.285 151.952C192.848 154.038 190.271 156.984 187.08 159.316ZM174.07 223.013V222.399C174.07 221.172 173.333 220.067 173.333 218.84C173.333 218.472 173.459 218.103 173.579 217.735C173.579 217.49 173.333 217.244 173.088 217.244H172.842V221.663C172.842 225.345 172.965 228.905 173.459 232.464H173.824C174.441 229.641 174.07 226.818 174.441 223.995L174.07 223.013ZM189.043 129.984C184.011 129.984 178.979 131.334 173.824 131.58C173.459 131.702 172.72 131.945 172.72 132.439C172.72 134.648 172.965 136.854 172.965 139.064C172.965 147.287 172.229 155.388 172.351 163.489V165.085L172.477 165.453L173.21 165.576C176.033 165.576 180.575 161.403 182.293 161.403C188.307 157.352 201.682 148.515 201.682 140.536C201.682 132.316 196.408 129.984 189.043 129.984ZM171.738 201.656L171.495 202.027C171.615 202.15 171.615 202.15 171.738 202.15C171.738 202.15 171.864 202.15 171.983 202.027C171.864 202.027 171.738 201.779 171.738 201.656ZM171.495 199.204V200.674H171.738V199.941C171.738 199.818 171.615 199.327 171.495 199.204ZM171.001 175.147H170.879V175.518H171.124C171.001 175.392 171.001 175.147 171.001 175.147ZM170.756 192.085C170.879 192.699 170.756 193.926 171.373 194.172L171.495 193.804C171.247 193.067 171.738 192.331 170.756 192.085ZM170.879 197.609H170.514L170.879 197.854V197.609ZM170.265 190.858L170.142 190.98C170.142 190.858 170.142 190.489 170.265 190.489C170.391 190.489 170.391 190.735 170.391 190.858H170.265ZM169.532 151.338H169.774V151.706L169.532 151.338ZM169.532 148.269H169.651L169.774 149.251L169.532 148.269ZM169.16 142.378C169.16 142.009 168.918 141.644 168.918 141.276C168.918 141.153 169.037 140.905 169.037 140.782C169.16 141.027 169.283 141.396 169.283 141.764C169.283 141.887 169.16 142.135 169.16 142.378ZM168.918 139.555C168.792 139.312 168.792 139.064 168.792 138.818C168.792 138.45 168.918 137.959 169.16 137.717L168.918 139.555ZM169.16 137.468L168.792 136.244H169.16L169.283 137.226L169.16 137.468ZM197.88 152.32C196.162 156.125 191.989 159.93 187.939 161.157C186.834 161.525 186.098 162.63 184.87 162.385C183.029 164.103 180.206 164.226 178.365 166.067C176.524 166.681 175.174 167.663 173.088 167.54L172.477 168.273C172.477 171.955 172.842 175.518 172.842 179.074C172.842 181.407 172.477 183.616 172.477 185.825C172.477 196.136 172.842 206.937 174.683 217.121C175.174 219.944 175.423 222.89 175.423 225.836C175.423 229.764 175.052 233.937 173.824 237.739C173.579 238.598 173.701 239.212 173.701 240.071C173.701 241.176 173.333 241.912 171.983 241.789C171.983 240.194 171.864 238.479 171.864 236.76C171.864 231.36 172.229 225.959 172.229 220.435C172.229 219.085 171.738 211.352 171.983 210.862C171.495 210.125 172.106 209.266 171.124 208.652L170.879 208.161C170.879 205.096 171.001 202.15 171.001 199.081V198.836L170.879 199.327L170.756 200.674C170.019 200.186 170.514 199.45 170.514 198.836C170.514 198.468 170.142 198.1 169.9 197.977L170.142 196.995L170.879 197.24L171.373 196.995C171.495 196.504 171.738 196.013 171.738 195.522C171.738 195.399 171.495 194.785 171.373 194.785C170.756 194.785 170.756 195.154 170.879 195.645H170.633C170.391 195.645 170.019 195.522 169.9 195.399C169.9 195.031 170.265 194.785 170.265 194.417C170.265 194.295 170.019 194.049 169.9 193.926C170.019 193.681 170.019 193.435 170.019 193.19C170.019 192.699 169.9 192.208 169.9 191.717C170.142 191.962 170.265 191.962 170.633 191.962C171.001 191.962 171.247 191.226 171.247 190.858C171.247 190.489 171.124 190.121 170.879 189.753C170.142 189.508 169.9 188.771 169.9 188.035C170.019 187.912 170.019 187.912 170.142 187.912C170.514 187.912 170.756 188.157 171.001 188.157C171.124 188.157 171.247 187.912 171.373 187.912C171.373 186.439 169.9 187.544 169.532 186.439C169.9 186.316 169.532 185.58 169.9 185.703C170.265 185.825 170.265 186.684 170.633 186.684H170.879L171.124 186.071C170.756 185.457 170.633 184.598 169.9 184.23V183.493C169.651 181.898 170.142 180.179 170.142 178.587L170.756 178.706C171.001 178.587 171.124 178.215 171.124 177.97L170.879 177.724L170.265 177.97C170.019 177.847 170.142 177.605 170.142 177.479C170.142 177.233 170.019 177.111 169.9 177.111C170.514 176.006 169.9 174.536 171.373 173.919C171.124 173.183 170.756 172.446 170.756 171.713C170.756 171.219 171.001 170.731 171.373 170.486C171.247 170.237 171.247 169.995 171.124 169.995V170.731L171.373 172.572L170.879 168.887V168.645C171.001 168.396 170.633 168.154 170.514 168.154C169.409 168.273 168.427 168.645 167.322 168.645C166.586 168.645 165.972 168.522 165.481 168.273L165.359 168.031C165.359 167.54 165.85 167.291 166.092 166.926H166.831C168.056 166.926 169.16 166.309 170.265 166.435L170.756 165.821C170.756 158.334 171.373 150.479 172.106 142.869C171.495 141.764 171.864 140.536 171.864 139.312C171.864 137.103 171.247 134.771 170.879 132.684C170.756 132.439 170.514 132.316 170.265 132.316C170.019 132.316 169.774 132.561 169.774 132.807C169.16 133.175 169.409 134.157 169.532 134.771H169.283C168.792 134.403 169.037 133.789 169.037 133.175C169.037 132.807 168.669 132.439 168.301 132.439C165.972 132.439 163.886 133.908 161.554 133.908C161.063 133.908 160.572 133.789 159.958 133.666C160.2 131.702 166.954 131.457 168.669 130.843C169.409 129.002 169.037 127.161 169.037 125.32C169.037 119.428 170.633 113.045 169.9 107.154C170.019 106.789 170.633 106.54 171.124 106.54L171.738 106.789C171.615 107.645 171.495 108.381 171.495 109.244C171.495 110.959 171.738 112.803 171.983 114.518C172.477 115.255 172.477 117.341 172.477 118.323C172.477 121.146 172.229 123.847 172.229 126.67C172.229 127.406 172.106 128.143 172.477 128.879C172.229 129.247 172.477 129.616 172.965 129.861C178.979 129.247 184.993 128.388 191.13 128.511C191.989 128.265 192.971 128.143 193.83 128.143C195.917 128.143 200.209 130.475 200.826 132.316C201.931 135.262 202.664 138.699 202.664 141.887C202.664 148.76 199.721 148.024 197.88 152.32Z" fill="#000"/>
<path d="M242.295 128.017C241.558 126.912 241.067 126.053 239.472 126.053C239.226 126.053 238.858 126.298 238.858 126.667V126.789L239.103 126.667C240.822 126.667 241.067 128.139 242.295 128.753V128.017ZM240.822 173.183C240.331 173.551 239.472 173.306 238.858 173.306C238.49 173.306 237.999 173.428 237.999 173.919C237.999 174.901 240.822 174.656 241.313 174.656C241.681 174.533 242.663 174.042 242.663 173.551C242.417 173.06 241.313 173.183 240.822 173.183ZM244.381 134.522C243.276 133.663 243.276 132.067 242.908 131.576L239.472 128.017H239.226C237.876 128.017 234.685 137.222 234.194 138.818C234.562 139.186 235.053 139.309 235.544 139.309C236.771 139.309 237.876 138.818 239.226 138.941C241.435 138.45 243.767 138.818 245.977 138.204L244.381 134.522ZM230.266 138.818C230.266 139.186 230.512 139.677 231.003 139.555H231.617C232.353 139.555 232.967 138.941 233.089 138.204C233.948 135.627 235.79 133.049 236.035 130.472C233.335 131.945 230.266 135.627 230.266 138.818ZM230.389 141.887L230.266 142.009C228.548 143.482 228.794 143.237 228.794 145.323C228.794 146.183 228.303 147.042 228.303 147.901C228.303 148.515 228.794 148.883 228.794 149.497C228.794 149.865 228.425 150.479 228.303 150.721C228.303 152.443 228.057 154.038 228.057 155.753C228.057 157.104 229.775 164.345 230.635 164.591C230.512 163.854 230.635 163.241 230.635 162.504C230.635 161.89 230.512 161.277 230.144 160.909C230.266 160.54 230.389 160.172 230.389 159.804C230.389 158.208 229.039 154.526 229.039 152.562C229.039 149.865 230.266 145.323 231.617 142.869V142.746C231.617 142.132 230.88 141.887 230.389 141.887ZM245.363 172.446C242.54 174.287 243.399 175.515 239.226 175.515C237.508 175.515 235.79 175.147 234.317 174.533C226.953 167.168 228.057 162.627 225.848 153.298L226.462 152.562C226.462 151.58 226.216 150.479 226.216 149.497C226.216 149.248 226.83 147.287 226.953 147.042C226.83 146.428 226.83 145.814 226.83 145.201C226.83 144.464 227.198 143.482 227.321 142.746C226.83 142.378 226.216 142.255 225.606 142.255C224.13 142.255 222.78 142.746 221.307 142.746C219.101 142.746 216.523 142.869 214.191 142.5V142.132C214.191 141.641 215.173 141.518 215.541 141.518C218.61 141.518 221.798 141.641 224.743 140.782V140.659C224.743 140.414 223.884 140.536 223.761 140.536C223.516 140.536 223.393 140.414 223.393 140.291C225.234 139.432 228.425 141.15 228.425 138.327C228.425 135.381 231.617 132.558 233.458 130.472C235.421 127.894 237.14 124.825 240.822 124.825H241.313C244.626 126.298 243.645 129.735 245.977 131.945C245.977 133.172 246.59 134.399 246.59 135.627C247.572 136.854 247.204 137.836 247.692 139.186C244.381 140.536 237.017 140.659 233.089 141.518C231.248 144.707 230.389 147.901 230.389 151.461C230.389 157.717 232.107 163.486 233.212 169.623C233.335 169.991 233.335 171.342 234.071 171.219H234.562C235.421 171.219 236.28 172.078 236.894 172.692C237.385 172.692 237.999 172.815 238.49 172.815C240.944 172.815 245.854 171.833 247.204 169.501C249.413 165.818 250.76 163.241 250.76 158.948C250.76 158.085 250.518 153.056 251.374 153.056C251.991 153.056 252.233 155.262 252.233 155.631C252.233 162.136 251.009 168.641 245.363 172.446Z" fill="#000"/>
<path d="M290.969 126.541C290.11 126.541 287.287 126.786 287.287 128.01C288.146 128.01 289.005 127.645 289.864 127.645C291.337 127.645 292.687 127.523 294.16 127.523C293.178 127.028 292.073 126.541 290.969 126.541ZM274.403 151.822C274.031 151.086 274.277 150.84 274.277 150.104C274.277 149.736 274.031 149.368 273.786 149.245L273.543 149.368V155.014C273.543 159.429 273.298 163.728 273.298 168.147C273.298 168.147 273.421 169.249 273.543 169.249C273.543 168.88 273.543 165.57 273.663 165.444C273.786 165.935 273.786 166.303 273.786 166.674C274.768 166.797 274.403 165.815 274.403 165.201C274.403 164.953 274.525 164.71 274.645 164.462V163.357V163.971C274.525 164.71 274.525 165.444 274.525 166.183C274.525 166.183 274.525 166.916 274.645 167.042C275.136 166.183 275.013 165.201 275.013 164.219C275.013 163.237 275.136 162.133 275.627 161.151C275.136 158.45 275.627 154.154 274.403 151.822ZM273.543 130.223C273.172 131.079 272.93 131.938 272.93 132.801C272.93 133.782 273.049 134.764 273.049 135.866C273.049 136.237 273.049 136.602 273.421 136.848C273.543 135.746 273.663 134.516 273.663 133.414V132.552C273.663 131.819 273.663 130.956 273.543 130.223ZM271.457 142.003C269.739 143.23 268.511 144.949 267.775 146.913H268.266C269.37 145.317 271.208 143.967 271.825 142.003H271.457ZM300.788 134.642C300.051 133.782 300.174 132.552 299.683 131.696C298.456 128.873 293.669 128.136 290.969 128.136C284.464 128.136 274.277 135.62 274.277 142.739C274.277 143.23 274.403 145.808 274.645 146.053C274.645 145.931 274.645 145.808 274.768 145.808C274.768 145.808 274.894 146.176 275.013 146.913L274.894 147.404L275.258 147.772C275.258 150.84 276.731 153.541 276.731 156.487C276.731 157.96 276.366 159.555 276.366 160.905C276.366 162.133 276.609 163.357 276.609 164.588C276.609 167.407 274.645 176.368 273.786 179.436C273.786 179.682 273.663 179.804 273.421 179.804C273.172 179.804 273.049 179.804 272.93 179.682V178.332C273.049 173.913 272.067 169.371 272.681 164.953C271.948 162.375 272.562 148.386 272.316 144.09H271.699L268.389 147.649H268.14C267.652 147.649 267.529 146.79 267.158 146.79C266.916 146.79 266.67 147.035 266.547 147.281L265.688 147.404C265.566 147.281 265.443 147.158 265.443 146.913C265.443 146.176 266.547 145.563 266.793 144.826C267.529 143.967 269.122 143.476 269.122 142.003C273.172 139.306 271.825 138.934 271.825 133.902C271.825 130.346 272.93 126.663 272.316 123.104C272.93 122.49 272.562 121.508 272.562 120.772C272.562 119.913 273.172 119.544 274.031 119.667C274.525 121.017 274.031 122.49 274.031 123.84C274.031 124.577 274.154 125.19 274.403 125.681C274.894 128.136 275.136 130.591 275.258 133.043C275.013 133.534 274.894 134.025 274.894 134.642C274.894 135.129 275.136 135.746 275.507 136.111C281.273 132.061 282.377 125.804 291.582 125.804C296.492 125.804 297.842 127.277 300.539 130.956C300.788 132.061 300.665 133.043 301.156 134.025L300.788 134.642Z" fill="#000"/>
<path d="M334.395 175.518C331.817 176.5 331.817 178.586 329.976 179.937L330.467 180.182C331.449 179.2 334.64 177.85 334.64 176.377C334.64 176.132 334.518 175.763 334.395 175.518ZM333.658 170.363C333.904 170.117 334.027 169.749 334.027 169.381C334.027 168.644 333.658 167.908 333.658 167.049C331.94 163.735 330.958 159.933 328.749 156.738C327.276 156.373 328.258 155.143 327.153 154.652C326.663 152.565 325.435 150.973 323.84 149.745C323.471 148.886 322.244 146.799 321.385 146.431V147.045C322.121 147.536 322.367 148.272 322.735 148.886C325.926 154.041 329.608 159.07 331.572 164.839C332.186 167.049 333.413 169.749 333.413 172.081C333.413 173.063 333.29 173.922 332.799 174.781C332.799 175.027 333.045 175.272 333.29 175.15C333.904 174.413 334.027 173.554 334.027 172.572C334.027 171.836 333.904 171.099 333.658 170.363ZM320.771 145.572L320.526 145.695L320.771 145.817V145.572ZM319.421 142.503C318.194 141.767 318.562 140.662 316.966 139.435C316.844 139.312 316.966 139.066 316.966 138.821C316.966 138.453 316.475 138.453 316.23 138.453V138.944C316.23 140.785 318.317 142.381 319.176 144.099C319.789 144.344 319.176 144.958 320.403 144.958C320.403 144.099 319.667 143.362 319.421 142.503ZM324.331 120.287C323.717 120.287 321.508 121.146 321.017 121.64C317.706 122.622 314.512 127.283 314.512 130.72C314.512 133.298 315.616 135.752 315.985 138.33C317.089 140.048 317.706 141.767 319.421 143.117H319.667C319.053 140.662 317.212 138.453 317.212 135.875C316.475 135.016 315.742 133.666 315.742 132.561C315.742 130.478 316.724 128.514 317.58 126.792C319.053 125.688 319.053 124.092 320.403 122.99L321.753 122.742C322.612 121.886 324.331 121.146 324.822 120.287H324.331ZM338.936 126.301C338.568 126.301 338.2 126.056 338.2 125.568C335.5 122.742 333.413 120.164 329.117 120.164C325.926 120.164 323.594 122.251 320.771 123.355C318.562 125.688 316.475 128.756 316.475 132.193C316.475 133.789 316.966 135.261 317.826 136.489C318.194 139.066 320.035 141.276 320.158 143.853C320.649 144.222 322.735 146.677 323.103 147.29C324.331 149.619 324.453 149.009 326.54 150.727C329.117 152.936 328.258 156.987 331.572 159.807C332.922 162.753 335.5 165.698 335.5 169.012C335.5 169.749 335.254 170.363 335.254 171.099C335.254 172.449 335.745 173.799 335.745 175.15C335.745 175.886 335.622 176.622 335.254 177.113C330.467 180.059 329.485 181.287 323.349 181.287C317.212 181.287 316.107 176.132 312.057 173.186V172.94C312.057 172.572 312.548 172.204 312.548 171.713C312.548 171.467 312.302 171.222 312.057 171.222L312.302 170.854C313.656 171.713 314.389 173.186 315.616 174.29H316.475C318.071 177.973 319.544 180.059 324.085 180.059C326.049 180.059 327.89 179.568 329.608 178.709C332.431 177.482 331.327 175.763 332.431 173.554V172.695C332.799 166.067 322.49 151.095 317.58 146.186C316.966 144.59 315.248 143.485 315.003 141.767C314.147 140.294 313.656 139.435 313.656 137.594C313.656 135.016 313.039 132.316 313.039 129.615C313.898 128.142 314.021 126.301 315.248 125.074C319.176 121.269 322.49 118.814 328.381 118.814C331.572 118.814 339.55 121.269 339.55 125.688C339.55 125.936 339.182 126.301 338.936 126.301Z" fill="#000"/>
<path d="M374.736 128.017C373.999 126.912 373.508 126.053 371.913 126.053C371.667 126.053 371.299 126.298 371.299 126.667V126.789L371.545 126.667C373.263 126.667 373.508 128.139 374.736 128.753V128.017ZM373.263 173.183C372.772 173.551 371.913 173.306 371.299 173.306C370.931 173.306 370.44 173.428 370.44 173.919C370.44 174.901 373.263 174.656 373.754 174.656C374.122 174.533 375.104 174.042 375.104 173.551C374.858 173.06 373.754 173.183 373.263 173.183ZM376.822 134.522C375.718 133.663 375.718 132.067 375.349 131.576L371.913 128.017H371.667C370.317 128.017 367.126 137.222 366.635 138.818C367.003 139.186 367.494 139.309 367.985 139.309C369.213 139.309 370.317 138.818 371.667 138.941C373.877 138.45 376.205 138.818 378.418 138.204L376.822 134.522ZM362.708 138.818C362.708 139.186 362.953 139.677 363.444 139.555H364.058C364.794 139.555 365.408 138.941 365.531 138.204C366.39 135.627 368.231 133.049 368.476 130.472C365.776 131.945 362.708 135.627 362.708 138.818ZM362.83 141.887L362.708 142.009C360.989 143.482 361.235 143.237 361.235 145.323C361.235 146.183 360.744 147.042 360.744 147.901C360.744 148.515 361.235 148.883 361.235 149.497C361.235 149.865 360.867 150.479 360.744 150.721C360.744 152.443 360.498 154.038 360.498 155.753C360.498 157.104 362.217 164.345 363.076 164.591C362.953 163.854 363.076 163.241 363.076 162.504C363.076 161.89 362.953 161.277 362.585 160.909C362.708 160.54 362.83 160.172 362.83 159.804C362.83 158.208 361.48 154.526 361.48 152.562C361.48 149.865 362.708 145.323 364.058 142.869V142.746C364.058 142.132 363.321 141.887 362.83 141.887ZM377.804 172.446C374.981 174.287 375.84 175.515 371.667 175.515C369.949 175.515 368.231 175.147 366.758 174.533C359.394 167.168 360.498 162.627 358.289 153.298L358.903 152.562C358.903 151.58 358.657 150.479 358.657 149.497C358.657 149.248 359.271 147.287 359.394 147.042C359.271 146.428 359.271 145.814 359.271 145.201C359.271 144.464 359.639 143.482 359.762 142.746C359.271 142.378 358.657 142.255 358.047 142.255C356.571 142.255 355.221 142.746 353.748 142.746C351.542 142.746 348.964 142.869 346.632 142.5V142.132C346.632 141.641 347.614 141.518 347.983 141.518C351.051 141.518 354.239 141.641 357.184 140.782V140.659C357.184 140.414 356.325 140.536 356.203 140.536C355.957 140.536 355.834 140.414 355.834 140.291C357.675 139.432 360.867 141.15 360.867 138.327C360.867 135.381 364.058 132.558 365.899 130.472C367.862 127.894 369.581 124.825 373.263 124.825H373.754C377.068 126.298 376.086 129.735 378.418 131.945C378.418 133.172 379.031 134.399 379.031 135.627C380.013 136.854 379.645 137.836 380.133 139.186C376.822 140.536 369.458 140.659 365.531 141.518C363.689 144.707 362.83 147.901 362.83 151.461C362.83 157.717 364.549 163.486 365.653 169.623C365.776 169.991 365.776 171.342 366.512 171.219H367.003C367.862 171.219 368.722 172.078 369.335 172.692C369.826 172.692 370.44 172.815 370.931 172.815C373.386 172.815 378.295 171.833 379.645 169.501C381.854 165.818 383.201 163.241 383.201 158.948C383.201 158.085 382.959 153.056 383.815 153.056C384.432 153.056 384.674 155.262 384.674 155.631C384.674 162.136 383.45 168.641 377.804 172.446Z" fill="#000"/>
<path d="M423.637 128.017C422.9 126.912 422.409 126.053 420.814 126.053C420.568 126.053 420.2 126.298 420.2 126.667V126.789L420.445 126.667C422.164 126.667 422.409 128.139 423.637 128.753V128.017ZM422.164 173.183C421.673 173.551 420.814 173.306 420.2 173.306C419.832 173.306 419.341 173.428 419.341 173.919C419.341 174.901 422.164 174.656 422.655 174.656C423.023 174.533 424.005 174.042 424.005 173.551C423.759 173.06 422.655 173.183 422.164 173.183ZM425.723 134.522C424.618 133.663 424.618 132.067 424.25 131.576L420.814 128.017H420.568C419.218 128.017 416.027 137.222 415.536 138.818C415.904 139.186 416.395 139.309 416.886 139.309C418.113 139.309 419.218 138.818 420.568 138.941C422.777 138.45 425.109 138.818 427.319 138.204L425.723 134.522ZM411.608 138.818C411.608 139.186 411.854 139.677 412.345 139.555H412.959C413.695 139.555 414.309 138.941 414.431 138.204C415.291 135.627 417.132 133.049 417.377 130.472C414.677 131.945 411.608 135.627 411.608 138.818ZM411.731 141.887L411.608 142.009C409.89 143.482 410.136 143.237 410.136 145.323C410.136 146.183 409.645 147.042 409.645 147.901C409.645 148.515 410.136 148.883 410.136 149.497C410.136 149.865 409.767 150.479 409.645 150.721C409.645 152.443 409.399 154.038 409.399 155.753C409.399 157.104 411.118 164.345 411.977 164.591C411.854 163.854 411.977 163.241 411.977 162.504C411.977 161.89 411.854 161.277 411.486 160.909C411.608 160.54 411.731 160.172 411.731 159.804C411.731 158.208 410.381 154.526 410.381 152.562C410.381 149.865 411.608 145.323 412.959 142.869V142.746C412.959 142.132 412.222 141.887 411.731 141.887ZM426.705 172.446C423.882 174.287 424.741 175.515 420.568 175.515C418.85 175.515 417.132 175.147 415.659 174.533C408.295 167.168 409.399 162.627 407.19 153.298L407.804 152.562C407.804 151.58 407.558 150.479 407.558 149.497C407.558 149.248 408.172 147.287 408.295 147.042C408.172 146.428 408.172 145.814 408.172 145.201C408.172 144.464 408.54 143.482 408.663 142.746C408.172 142.378 407.558 142.255 406.948 142.255C405.472 142.255 404.122 142.746 402.649 142.746C400.443 142.746 397.865 142.869 395.533 142.5V142.132C395.533 141.641 396.515 141.518 396.883 141.518C399.952 141.518 403.14 141.641 406.085 140.782V140.659C406.085 140.414 405.226 140.536 405.103 140.536C404.858 140.536 404.735 140.414 404.735 140.291C406.576 139.432 409.767 141.15 409.767 138.327C409.767 135.381 412.959 132.558 414.8 130.472C416.763 127.894 418.482 124.825 422.164 124.825H422.655C425.969 126.298 424.987 129.735 427.319 131.945C427.319 133.172 427.932 134.399 427.932 135.627C428.914 136.854 428.546 137.836 429.034 139.186C425.723 140.536 418.359 140.659 414.431 141.518C412.59 144.707 411.731 147.901 411.731 151.461C411.731 157.717 413.45 163.486 414.554 169.623C414.677 169.991 414.677 171.342 415.413 171.219H415.904C416.763 171.219 417.623 172.078 418.236 172.692C418.727 172.692 419.341 172.815 419.832 172.815C422.286 172.815 427.196 171.833 428.546 169.501C430.755 165.818 432.102 163.241 432.102 158.948C432.102 158.085 431.86 153.056 432.719 153.056C433.333 153.056 433.575 155.262 433.575 155.631C433.575 162.136 432.351 168.641 426.705 172.446Z" fill="#000"/>
<path d="M483.841 148.269L483.473 148.883C483.473 149.128 483.596 149.374 483.841 149.496C483.964 149.374 484.087 149.128 484.087 149.005C484.087 148.76 483.964 148.514 483.841 148.269ZM481.632 166.923C481.387 167.54 481.264 168.153 481.264 168.767C481.264 169.749 481.387 173.919 482 174.287C482.369 173.551 482.491 172.695 482.491 171.955C482.491 170.973 482.491 167.049 481.632 166.923ZM481.264 135.504C481.264 135.872 481.019 136.366 481.019 136.734C481.019 136.977 481.264 137.348 481.387 137.348C481.878 137.348 482.246 136.243 482.491 135.872C482.491 135.384 481.509 135.504 481.264 135.504ZM481.632 142.623C481.632 141.886 482.246 141.15 482.246 140.413V140.168C481.878 139.68 482.123 138.081 481.632 138.081C481.387 138.081 480.896 138.45 480.773 138.572C480.65 140.904 480.65 143.359 480.65 145.691V149.865C480.65 154.161 480.405 159.07 481.019 163.244C481.141 163.857 481.141 164.716 481.878 164.716C482.491 162.262 482.369 159.439 482.369 156.984C482.369 153.547 481.878 150.233 481.878 146.796C481.878 145.814 482 144.709 482.491 143.85C482 143.605 481.632 143.24 481.632 142.623ZM478.564 136.117C476.232 136.854 474.023 137.836 471.936 139.189L472.304 139.312C473.163 138.45 477.336 137.716 478.564 137.716C479.423 137.716 479.791 137.348 479.791 136.486C479.791 135.995 478.932 136.117 478.564 136.117ZM479.423 144.464C480.159 142.623 479.3 140.782 479.791 138.94L479.423 138.33H478.687C475.741 138.081 473.409 140.294 470.463 140.413C469.73 141.276 468.5 141.15 467.64 142.009C462.98 143.359 458.807 146.919 455.247 150.11C453.038 152.074 452.179 156.002 452.302 158.825C451.933 159.438 451.811 160.175 451.811 160.789C451.811 166.923 459.052 168.886 463.962 168.886C468.257 168.886 475.864 167.291 479.546 165.327C479.546 164.594 479.668 163.857 480.037 163.244C479.178 157.106 479.668 150.601 479.423 144.464ZM456.229 168.153C453.652 167.785 451.565 165.327 450.952 162.875C450.829 162.262 451.197 161.893 451.197 161.28C451.197 161.034 451.074 160.911 450.952 160.666C449.233 161.399 448.742 163.363 448.374 165.085C450.215 168.886 455.247 170.359 459.175 170.85C459.911 170.359 461.752 171.219 462.12 170.237C460.402 168.886 457.947 169.5 456.229 168.153ZM449.233 159.439C448.62 160.052 447.269 160.789 447.269 161.771C447.269 161.893 447.269 162.139 447.392 162.262L448.006 162.016C448.129 161.157 449.233 160.42 449.233 159.561V159.439ZM489.978 163.734C488.137 163.857 486.542 164.959 484.823 165.698C484.087 168.521 484.332 171.59 484.332 174.533C484.332 175.392 484.332 176.251 484.21 177.11H483.964C483.351 176.987 482.614 177.847 482 177.847C481.755 177.847 481.509 177.724 481.264 177.478C480.405 174.533 480.159 171.219 480.159 168.153L479.791 167.291C476.232 168.395 472.798 169.991 469.113 169.991C467.149 170.731 462.12 171.099 459.911 171.099C453.529 171.099 454.143 169.626 448.988 167.785C448.62 167.414 448.374 167.662 448.006 167.785C446.533 164.471 446.042 165.327 446.042 161.399C446.042 160.911 446.042 160.42 446.288 160.052C447.515 159.07 448.129 152.565 449.601 152.319C459.789 141.518 465.68 138.207 479.791 134.28L480.159 133.42V129.247C480.282 129.37 480.282 129.493 480.282 129.493C480.405 129.493 480.528 129.37 480.528 129.247C480.773 128.142 480.773 126.792 480.773 125.565L480.896 124.215C480.896 122.619 479.791 122.128 479.791 119.182C479.791 117.218 480.282 115.132 480.282 113.045C480.282 112.186 480.037 111.449 479.914 110.467C479.178 106.297 479.3 101.756 479.3 97.5795C479.3 93.5322 479.423 89.359 479.546 85.3084C479.3 85.1857 479.546 81.5034 479.546 80.8897C479.546 80.1533 479.546 77.8212 479.791 78.6804C479.423 76.962 479.3 75.1208 479.055 73.4057C479.178 73.1569 479.178 73.0342 479.178 72.9147C479.178 72.4237 479.055 72.0523 479.055 71.684L479.3 71.0703H479.668C481.632 71.0703 481.878 78.8031 481.878 80.6442C481.878 82.9763 481.264 85.1857 481.264 87.5178C481.264 91.5683 481.509 95.4961 481.509 99.4238C481.509 101.02 481.509 103.226 482.369 104.699C483.351 104.085 482.86 102.861 482.86 101.879C482.86 95.1279 483.351 88.377 483.228 81.5034H483.596L483.841 81.8717C484.087 82.9763 483.964 84.4493 483.964 85.5539C483.964 94.7596 483.105 103.843 483.105 113.045C483.105 113.168 483.228 113.781 483.105 113.904C482.982 113.168 482.369 107.399 482.123 107.276C482 107.644 482 108.135 482 108.504C482 111.449 482.123 114.395 482.246 117.341C482.246 120.655 482.614 124.46 483.473 127.774C483.473 127.897 483.719 128.388 483.841 128.388C484.087 127.774 484.087 127.038 484.087 126.424C484.21 127.283 484.332 128.265 484.701 129.124C484.578 128.879 484.578 128.016 484.332 127.774C484.087 128.511 484.087 130.106 484.087 130.843C484.087 131.702 483.841 133.175 484.823 133.42H485.437C485.805 133.42 486.296 133.54 486.664 133.666C486.664 134.89 484.946 134.157 484.21 134.89C484.21 139.68 485.314 144.341 485.314 149.128C485.314 150.478 485.192 151.828 485.192 153.179C485.192 156.247 485.56 159.684 485.069 162.63C485.437 163.121 485.805 163.363 486.296 163.363C487.278 163.363 488.014 162.875 488.874 162.875C489.242 162.63 489.733 162.507 490.224 162.507C490.469 162.507 490.837 162.63 491.206 162.63V162.998C491.206 163.489 490.346 163.612 489.978 163.734Z" fill="#000"/>
<path d="M553.09 134.664H552.48L554.689 134.173C554.44 134.293 553.216 134.664 553.09 134.664ZM555.548 134.173H554.934L555.548 133.805C554.934 133.805 554.44 133.805 553.949 133.559C551.249 134.047 548.426 134.173 545.849 134.664C545.726 134.664 545.484 134.91 545.484 134.91C545.484 135.032 545.484 135.032 545.6 135.152C546.834 135.152 548.061 135.397 549.411 135.397C550.513 135.397 551.74 135.032 552.848 134.91C551.863 135.646 548.426 135.523 547.076 135.523C546.585 135.523 546.217 135.646 545.849 135.769C546.091 136.505 546.95 136.751 547.202 137.487C549.896 140.188 552.357 143.993 554.317 147.184C554.317 147.555 554.44 148.169 554.689 148.415V148.902C554.689 149.148 555.057 149.519 555.299 149.642H555.425C555.425 149.762 555.299 149.887 555.299 150.007C555.299 150.501 556.407 150.866 556.407 151.238C556.407 151.36 556.407 151.483 556.284 151.483C555.176 151.36 554.934 150.747 554.44 149.887C553.339 149.148 553.09 147.555 551.74 146.938C551.498 145.96 550.881 146.079 550.513 145.097L549.411 142.642C549.896 142.768 550.27 143.133 550.27 143.628C551.003 145.346 552.231 146.451 553.09 148.043C553.458 148.169 553.458 148.66 553.949 148.783C553.216 146.696 551.989 143.993 550.022 142.642C550.022 142.274 549.896 141.783 549.411 141.783C549.162 141.783 549.162 142.274 549.285 142.397C548.794 141.664 548.552 140.924 547.809 140.433L547.935 140.188C547.935 139.574 547.567 139.083 547.076 138.96C546.834 138.101 545.849 138.96 545.358 137.975C544.989 137.116 543.882 136.874 543.148 136.874C540.939 140.188 532.839 147.924 531.731 151.238C530.994 151.36 530.503 151.851 529.77 151.851C529.644 151.851 529.153 151.851 529.153 151.606C529.153 151.36 529.644 151.112 529.77 150.747C530.994 148.783 541.921 137.364 541.921 135.892C541.921 135.523 541.062 135.278 540.694 135.278C540.322 135.152 539.835 135.032 539.463 135.032C538.362 135.032 537.377 135.278 536.275 135.278C533.698 135.278 530.994 135.769 528.294 135.769C527.8 135.769 528.052 135.278 527.677 134.91C528.536 134.787 529.276 134.173 530.135 134.173C530.381 134.173 530.872 134.293 531.237 134.538C531.979 134.538 532.713 134.664 533.449 134.664C536.149 134.664 539.954 134.538 542.531 133.928C542.657 133.805 542.78 133.805 542.78 133.679C542.78 133.559 542.163 133.434 542.289 133.069C542.289 132.574 539.463 130.119 539.463 129.383C539.586 129.383 539.586 129.26 539.586 129.26C539.586 127.913 535.29 122.878 534.182 121.65V121.527C534.182 120.791 533.572 120.423 533.572 119.809C533.572 119.564 533.94 119.318 534.182 119.318C534.557 119.318 534.799 119.809 535.041 120.055C534.925 120.177 534.799 120.3 534.799 120.423C534.799 121.037 537.503 124.473 537.745 124.473C537.868 124.473 537.868 124.105 537.993 124.105C540.813 125.823 541.553 129.018 543.391 131.47C545.235 131.47 549.285 121.527 551.62 120.668H551.863C549.779 123.737 547.444 126.683 545.726 129.997L545.968 130.242C547.076 129.751 546.834 128.524 547.318 128.159C547.567 127.787 548.794 127.054 548.794 126.683C548.794 126.437 551.863 122.632 552.48 121.282C553.09 120.668 553.458 119.932 554.075 119.195L553.216 119.438C553.458 118.459 555.548 117.231 556.527 117.354C555.425 119.318 553.339 120.423 552.48 122.509C551.372 124.842 550.144 126.192 548.552 128.159V128.278C548.552 128.647 547.809 129.018 547.809 129.383C547.076 130.61 544.741 131.961 544.741 133.679C545.109 133.805 545.6 133.805 545.968 133.805C549.162 133.805 552.48 133.069 555.667 133.069C556.775 133.069 558.371 132.946 559.353 133.434C558.125 133.928 556.775 134.047 555.548 134.173Z" fill="#000"/>
<path d="M562.715 153.751C563.006 152.82 563.261 151.829 563.51 150.811C563.758 150.485 564.017 150.168 564.252 149.833C564.252 151.357 563.451 152.536 562.715 153.751ZM555.17 165.673C555.044 166.287 554.56 166.409 554.065 166.532C554.537 165.208 555.151 163.961 555.748 162.724C556.934 162.272 557.999 161.248 559.143 160.644C557.919 162.394 556.611 164.09 555.17 165.673ZM561.759 153.076C561.01 154.658 560.099 156.399 558.972 158.55C558.025 158.948 557.563 159.923 556.911 160.621C557.034 160.256 557.156 159.878 557.379 159.655C558.435 157.216 560.089 155.156 561.759 153.076ZM548.045 170.954C547.186 172.546 543.749 174.51 542.157 174.51C540.439 174.51 538.962 172.918 537.244 172.792C536.876 171.564 535.526 172.178 534.667 171.564C532.583 170.092 529.754 167.146 528.53 164.936C526.443 161.005 524.599 155.85 523.498 151.677C523.007 149.959 523.007 140.013 523.007 137.927C523.007 130.562 522.758 124.79 525.827 118.039C525.827 116.566 527.303 115.707 527.303 114.602V114.108C528.162 113.129 528.162 111.53 529.27 110.671C530.371 107.112 533.685 104.902 535.403 101.585C536.753 100.971 537.128 99.1334 538.352 98.2742C541.049 96.5526 543.875 94.0977 547.312 94.0977C547.68 94.3464 548.045 94.5887 548.539 94.5887C548.788 94.5887 548.904 94.466 549.156 94.466L549.647 94.0977C550.138 94.2205 550.748 94.7114 550.997 93.8522C553.206 94.3465 556.278 93.2385 557.628 95.6934C562.415 98.762 560.939 105.271 562.899 109.689C563.274 113.617 563.642 117.545 563.758 121.599C563.884 127.122 564.617 132.649 564.617 138.295C564.617 142.849 564.304 145.766 563.545 148.444C563.054 149.387 562.544 150.304 562.04 151.309C560.696 152.045 560.448 154.009 558.972 154.5C558.035 156.286 556.895 158.806 555.59 161.354C555.567 161.354 555.558 161.374 555.535 161.374C555.377 161.244 555.348 161.063 555.251 160.908C554.918 161.309 554.595 161.713 554.214 162.068C554.401 162.336 554.585 162.611 554.805 162.821C552.857 166.422 550.587 169.817 548.045 170.954ZM539.088 176.474C535.284 176.474 530.988 175.124 528.779 171.933C527.06 169.723 524.725 167.637 523.617 164.936C522.516 163.709 518.831 148.973 518.831 146.764C518.831 146.644 518.831 146.15 519.202 146.15C520.672 146.15 523.375 154.009 523.617 155.114C524.725 158.796 526.812 162.724 528.53 166.161C529.512 167.882 530.862 169.11 531.847 170.828C533.074 171.196 533.685 172.546 535.035 172.792C535.652 173.897 536.876 174.019 537.612 174.882C538.103 174.882 539.453 175.25 539.453 175.86C539.453 176.109 539.453 176.474 539.088 176.474ZM568.306 139.154C567.689 139.645 566.588 140.385 566.71 141.363V141.732C565.729 143.208 565.603 144.926 564.617 146.396C564.524 146.554 564.456 146.722 564.366 146.88C565.884 138.595 566.342 129.092 566.342 123.685C566.342 118.653 564.617 113.743 564.133 108.707C563.884 104.78 563.758 100.48 561.181 97.289C558.603 94.3464 555.044 92.1339 550.997 92.1339C550.38 92.1339 549.77 92.1339 549.156 92.2566C548.662 91.8884 548.045 91.7656 547.438 91.7656C545.593 91.7656 544.117 93.1158 542.399 93.1158C541.915 93.1158 541.424 92.9931 541.049 92.8703L540.439 93.4873L542.648 93.6068C542.774 93.8522 543.016 94.0977 543.016 94.3464C543.016 95.0797 540.929 94.8342 540.681 96.0648C536.753 98.1482 532.583 103.184 530.248 106.866C528.895 109.076 527.671 111.779 526.443 114.108C526.317 114.231 525.458 116.075 525.216 116.075C525.216 116.934 524.967 117.671 524.851 118.404C523.866 119.389 524.476 121.23 523.498 122.212C522.022 126.876 520.798 132.649 520.798 137.436C520.798 137.804 520.549 137.927 520.181 138.049C520.061 136.945 519.69 135.717 519.812 134.49V133.753C520.303 122.703 520.549 113.372 527.06 103.798C531.967 96.5526 538.229 95.4479 540.07 93.2385C539.705 93.2385 539.453 93.1158 539.088 93.1158C538.103 93.1158 537.128 93.6068 536.634 94.466C529.638 96.7981 526.201 103.184 523.249 109.321C522.758 110.061 522.148 110.548 522.022 111.53C521.531 113.743 521.163 115.826 520.303 118.039C520.061 118.898 519.57 120.248 519.57 121.108C519.57 121.844 519.938 122.58 519.938 123.317C519.938 124.299 519.812 125.158 519.57 126.14C518.22 132.894 517.852 140.259 517.852 147.135C517.852 152.659 520.303 157.569 522.022 162.604C523.866 168.005 527.794 172.424 531.967 176.109L535.035 176.6C535.775 177.214 536.634 177.459 537.612 177.459C538.962 177.459 540.313 176.968 541.666 177.088H542.157C543.875 175.986 546.821 175.25 548.171 173.777C548.539 173.532 548.788 172.672 549.279 172.672C549.398 172.672 549.521 172.672 549.647 172.792C552.224 169.969 555.419 167.637 557.744 164.691C558.972 163.218 559.714 161.374 560.816 159.781C561.181 159.287 561.181 158.55 561.798 158.182C563.274 154.5 569.165 142.713 569.165 139.525V139.154H568.306Z" fill="#000"/>
<path d="M542.771 175.356C542.645 175.356 542.522 175.482 542.522 175.602H542.771C542.771 175.482 542.771 175.482 542.891 175.482C542.891 175.356 542.891 175.356 542.771 175.356Z" fill="#000"/>
</svg>
