<svg width="320" height="183" viewBox="0 0 320 183" fill="none" xmlns="http://www.w3.org/2000/svg">
<path d="M54.1803 83.7774C52.5989 84.3815 52.5989 85.6579 51.4705 86.4872L51.7726 86.6412C52.3738 86.037 54.3343 85.2078 54.3343 84.3045C54.3343 84.1565 54.2573 83.9314 54.1803 83.7774ZM53.7301 80.6175C53.8782 80.4694 53.9552 80.2384 53.9552 80.0134C53.9552 79.5632 53.7301 79.1131 53.7301 78.5859C52.6759 76.5514 52.0747 74.2207 50.7183 72.2602C49.8151 72.0351 50.4162 71.2859 49.741 70.9838C49.439 69.7044 48.6867 68.7242 47.7065 67.972C47.4814 67.4448 46.7292 66.1655 46.2021 65.9404V66.3135C46.6522 66.6156 46.8062 67.0717 47.0313 67.4448C48.9888 70.6047 51.2455 73.6935 52.4508 77.2325C52.8239 78.5859 53.5761 80.2384 53.5761 81.6718C53.5761 82.273 53.5051 82.8001 53.203 83.3273C53.203 83.4753 53.3511 83.6293 53.5051 83.5523C53.8782 83.1022 53.9552 82.575 53.9552 81.9709C53.9552 81.5208 53.8782 81.0676 53.7301 80.6175ZM45.8259 65.4132L45.6749 65.4902L45.8259 65.5613V65.4132ZM44.9967 63.5327C44.2445 63.0826 44.4696 62.4014 43.4923 61.6492C43.4153 61.5752 43.4923 61.4241 43.4923 61.2731C43.4923 61.048 43.1902 61.048 43.0422 61.048V61.3501C43.0422 62.4784 44.3215 63.4557 44.8487 64.51C45.2248 64.661 44.8487 65.0371 45.6009 65.0371C45.6009 64.51 45.1507 64.0598 44.9967 63.5327ZM48.0086 49.9099C47.6354 49.9099 46.2791 50.437 45.977 50.7391C43.9424 51.3373 41.9879 54.2011 41.9879 56.3067C41.9879 57.8881 42.6631 59.3896 42.8911 60.971C43.5693 62.0253 43.9424 63.0826 44.9967 63.9058H45.1507C44.7717 62.4014 43.6463 61.048 43.6463 59.4666C43.1902 58.9394 42.7401 58.1132 42.7401 57.435C42.7401 56.1527 43.3442 54.9503 43.8714 53.899C44.7717 53.2179 44.7717 52.2406 45.6009 51.5653L46.4271 51.4143C46.9543 50.8872 48.0086 50.437 48.3106 49.9099H48.0086ZM56.967 53.5969C56.742 53.5969 56.5139 53.4488 56.5139 53.1468C54.8585 51.4143 53.5761 49.8329 50.9434 49.8329C48.9888 49.8329 47.5584 51.1122 45.8259 51.7904C44.4696 53.2179 43.1902 55.1014 43.1902 57.207C43.1902 58.1872 43.4923 59.0905 44.0194 59.8457C44.2445 61.4241 45.3758 62.7805 45.4498 64.3619C45.7519 64.587 47.0313 66.0885 47.2563 66.4675C48.0086 67.8979 48.0856 67.5218 49.362 68.5731C50.9434 69.9295 50.4162 72.4142 52.4508 74.1437C53.28 75.9502 54.8585 77.7567 54.8585 79.7883C54.8585 80.2384 54.7074 80.6175 54.7074 81.0676C54.7074 81.8969 55.0095 82.7231 55.0095 83.5523C55.0095 84.0025 54.9325 84.4556 54.7074 84.7577C51.7726 86.5642 51.1685 87.3164 47.4103 87.3164C43.6463 87.3164 42.9652 84.1565 40.4805 82.35V82.196C40.4805 81.9709 40.7825 81.7458 40.7825 81.4438C40.7825 81.2927 40.6345 81.1446 40.4805 81.1446L40.6345 80.9196C41.4607 81.4438 41.9138 82.35 42.6631 83.0252H43.1902C44.1734 85.2848 45.0737 86.5642 47.8605 86.5642C49.0628 86.5642 50.1912 86.2621 51.2455 85.7349C52.9779 84.9827 52.2997 83.9314 52.9779 82.575V82.0479C53.203 77.9818 46.8773 68.7982 43.8714 65.7894C43.4923 64.8121 42.438 64.1339 42.2899 63.0826C41.7628 62.1763 41.4607 61.6492 41.4607 60.5209C41.4607 58.9394 41.0846 57.284 41.0846 55.6285C41.6118 54.7252 41.6888 53.5969 42.438 52.8447C44.8487 50.5111 46.8773 49.0037 50.4932 49.0037C52.4508 49.0037 57.3402 50.5111 57.3402 53.2179C57.3402 53.3719 57.1151 53.5969 56.967 53.5969Z" fill="#FFF"/>
<path d="M54.1803 83.7774C52.5989 84.3815 52.5989 85.6579 51.4705 86.4872L51.7726 86.6412C52.3738 86.037 54.3343 85.2078 54.3343 84.3045C54.3343 84.1565 54.2573 83.9314 54.1803 83.7774ZM53.7301 80.6175C53.8782 80.4694 53.9552 80.2384 53.9552 80.0134C53.9552 79.5632 53.7301 79.1131 53.7301 78.5859C52.6759 76.5514 52.0747 74.2207 50.7183 72.2602C49.8151 72.0351 50.4162 71.2859 49.741 70.9838C49.439 69.7044 48.6867 68.7242 47.7065 67.972C47.4814 67.4448 46.7292 66.1655 46.2021 65.9404V66.3135C46.6522 66.6156 46.8062 67.0717 47.0313 67.4448C48.9888 70.6047 51.2455 73.6935 52.4508 77.2325C52.8239 78.5859 53.5761 80.2384 53.5761 81.6718C53.5761 82.273 53.5051 82.8001 53.203 83.3273C53.203 83.4753 53.3511 83.6293 53.5051 83.5523C53.8782 83.1022 53.9552 82.575 53.9552 81.9709C53.9552 81.5208 53.8782 81.0676 53.7301 80.6175ZM45.8259 65.4132L45.6749 65.4902L45.8259 65.5613V65.4132ZM44.9967 63.5327C44.2445 63.0826 44.4696 62.4014 43.4923 61.6492C43.4153 61.5752 43.4923 61.4241 43.4923 61.2731C43.4923 61.048 43.1902 61.048 43.0422 61.048V61.3501C43.0422 62.4784 44.3215 63.4557 44.8487 64.51C45.2248 64.661 44.8487 65.0371 45.6009 65.0371C45.6009 64.51 45.1507 64.0598 44.9967 63.5327ZM48.0086 49.9099C47.6354 49.9099 46.2791 50.437 45.977 50.7391C43.9424 51.3373 41.9879 54.2011 41.9879 56.3067C41.9879 57.8881 42.6631 59.3896 42.8911 60.971C43.5693 62.0253 43.9424 63.0826 44.9967 63.9058H45.1507C44.7717 62.4014 43.6463 61.048 43.6463 59.4666C43.1902 58.9394 42.7401 58.1132 42.7401 57.435C42.7401 56.1527 43.3442 54.9503 43.8714 53.899C44.7717 53.2179 44.7717 52.2406 45.6009 51.5653L46.4271 51.4143C46.9543 50.8872 48.0086 50.437 48.3106 49.9099H48.0086ZM56.967 53.5969C56.742 53.5969 56.5139 53.4488 56.5139 53.1468C54.8585 51.4143 53.5761 49.8329 50.9434 49.8329C48.9888 49.8329 47.5584 51.1122 45.8259 51.7904C44.4696 53.2179 43.1902 55.1014 43.1902 57.207C43.1902 58.1872 43.4923 59.0905 44.0194 59.8457C44.2445 61.4241 45.3758 62.7805 45.4498 64.3619C45.7519 64.587 47.0313 66.0885 47.2563 66.4675C48.0086 67.8979 48.0856 67.5218 49.362 68.5731C50.9434 69.9295 50.4162 72.4142 52.4508 74.1437C53.28 75.9502 54.8585 77.7567 54.8585 79.7883C54.8585 80.2384 54.7074 80.6175 54.7074 81.0676C54.7074 81.8969 55.0095 82.7231 55.0095 83.5523C55.0095 84.0025 54.9325 84.4556 54.7074 84.7577C51.7726 86.5642 51.1685 87.3164 47.4103 87.3164C43.6463 87.3164 42.9652 84.1565 40.4805 82.35V82.196C40.4805 81.9709 40.7825 81.7458 40.7825 81.4438C40.7825 81.2927 40.6345 81.1446 40.4805 81.1446L40.6345 80.9196C41.4607 81.4438 41.9138 82.35 42.6631 83.0252H43.1902C44.1734 85.2848 45.0737 86.5642 47.8605 86.5642C49.0628 86.5642 50.1912 86.2621 51.2455 85.7349C52.9779 84.9827 52.2997 83.9314 52.9779 82.575V82.0479C53.203 77.9818 46.8773 68.7982 43.8714 65.7894C43.4923 64.8121 42.438 64.1339 42.2899 63.0826C41.7628 62.1763 41.4607 61.6492 41.4607 60.5209C41.4607 58.9394 41.0846 57.284 41.0846 55.6285C41.6118 54.7252 41.6888 53.5969 42.438 52.8447C44.8487 50.5111 46.8773 49.0037 50.4932 49.0037C52.4508 49.0037 57.3402 50.5111 57.3402 53.2179C57.3402 53.3719 57.1151 53.5969 56.967 53.5969Z" stroke="#FFF" stroke-width="0.29985" stroke-miterlimit="10"/>
<path d="M80.0189 80.3125C78.9646 81.1417 77.5372 81.5919 76.7109 82.7202H77.3091C78.3634 81.8939 79.7168 81.6689 80.3979 80.4665L80.0189 80.3125ZM71.0634 82.4181C68.9577 76.5485 68.8037 67.3679 68.2026 61.0451C67.9775 58.9365 67.8265 56.6058 67.1483 54.5713C67.0002 53.9701 66.8462 53.1439 66.5501 52.5397C66.3191 52.7648 66.3961 53.1439 66.3191 53.4459C66.9232 59.9138 66.8462 66.4646 67.3733 73.0095C67.4503 73.7676 67.2993 73.0095 67.2993 73.8387C67.2993 74.4429 67.6014 74.7449 67.6014 75.3461C67.6014 75.4942 67.6754 75.6482 67.8265 75.7193C68.0515 77.0045 69.4849 82.7202 70.9893 82.7202C71.1374 82.7202 71.1374 82.6462 71.1374 82.4951L71.0634 82.4181ZM85.2903 77.2296C84.7632 78.9562 82.9537 79.8624 82.2785 81.4438C82.3555 82.4181 82.3555 83.3243 82.3555 84.3016C82.3555 86.1081 82.2785 87.9146 82.0534 89.7981C81.8994 91.1515 82.2785 93.4082 80.7711 94.1604C80.472 93.7873 80.3209 93.3312 80.3209 92.8811C80.244 89.5731 80.3979 86.1822 80.3979 82.7972H80.1729C79.4207 82.7972 77.5372 84.3016 75.2005 84.3016C73.6991 84.3016 72.1917 83.9285 70.6872 83.6975C69.935 82.7972 68.8037 82.9453 68.1285 81.8199C66.6981 79.5603 67.0002 75.9473 66.4731 73.3886C66.6211 73.2405 66.6211 73.1635 66.6211 73.0095C66.6211 72.7133 66.5501 72.4853 66.4731 72.2573C66.0229 71.6561 66.248 70.9039 66.094 70.2287C66.248 70.1517 66.248 70.0747 66.248 69.9266C66.248 69.7015 66.094 69.4764 66.094 69.2484L66.248 68.8723C66.0229 66.7667 65.7919 59.4637 65.2648 58.1843C65.7919 58.0333 65.4188 57.3581 65.7919 57.133C65.6438 56.5288 65.4958 55.8536 65.4958 55.1725C65.4958 54.7964 65.5668 54.4232 65.6438 54.0442C65.6438 53.671 65.4188 53.2919 65.4188 52.8418C65.4188 52.3887 65.7208 51.6365 66.3191 51.6365C70.9893 51.6365 68.5787 80.0104 73.474 82.9453C76.1068 82.7202 78.0643 80.6916 80.3209 79.4833L80.546 78.9562C80.546 77.1526 80.472 75.3461 80.1729 73.6136C80.3209 73.2405 80.3209 72.9384 80.3209 72.5594C80.3209 70.9039 79.8708 69.2484 79.8708 67.5189C79.8708 63.8319 80.7711 59.4637 80.623 56.1498C80.9221 55.1725 80.7711 54.1212 80.7711 53.1439C80.7711 52.6878 80.7711 52.2377 80.9991 51.7875H81.8254C81.7513 52.1636 82.2015 52.0896 82.2015 52.3887C82.2015 55.6256 81.8254 58.8625 81.8254 62.1734C81.8254 63.3047 81.8994 64.4301 81.8994 65.6354C81.8994 68.6472 82.5806 71.6561 82.5806 74.7449C82.5806 75.5712 82.6516 76.4004 82.8056 77.2296C84.6862 76.7025 84.5351 73.8387 86.4927 73.8387C86.6408 73.9927 86.7178 74.2178 86.7178 74.3659C86.7178 75.4201 85.1363 76.3234 85.2903 77.2296Z" fill="#FFF" stroke="#FFF" stroke-width="0.29985" stroke-miterlimit="10"/>
<path d="M110.715 73.8445V74.2236C113.276 72.8672 115.382 72.4882 116.359 69.3283C114.254 70.6076 112.672 72.4171 110.715 73.8445ZM102.736 112.907V112.533C102.736 111.781 102.286 111.103 102.286 110.351C102.286 110.126 102.36 109.901 102.434 109.67C102.434 109.522 102.286 109.373 102.135 109.373H101.984V112.08C101.984 114.34 102.061 116.522 102.36 118.705H102.588C102.961 116.973 102.736 115.243 102.961 113.511L102.736 112.907ZM111.92 55.8594C108.834 55.8594 105.748 56.6827 102.588 56.8367C102.36 56.9137 101.91 57.0618 101.91 57.3639C101.91 58.7173 102.061 60.0736 102.061 61.427C102.061 66.4704 101.608 71.4368 101.685 76.4062V77.3835L101.759 77.6086L102.209 77.6856C103.945 77.6856 106.725 75.1269 107.78 75.1269C111.467 72.6422 119.673 67.2227 119.673 62.3273C119.673 57.2869 116.436 55.8594 111.92 55.8594ZM101.306 99.8108L101.158 100.036C101.232 100.113 101.232 100.113 101.306 100.113C101.306 100.113 101.383 100.113 101.457 100.036C101.383 100.036 101.306 99.8878 101.306 99.8108ZM101.158 98.3064V99.2126H101.306V98.7595C101.306 98.6855 101.232 98.3834 101.158 98.3064ZM100.856 83.5552H100.779V83.7803H100.933C100.856 83.7033 100.856 83.5552 100.856 83.5552ZM100.708 93.9412C100.779 94.3202 100.708 95.0695 101.081 95.2205L101.158 94.9954C101.004 94.5453 101.306 94.0922 100.708 93.9412ZM100.779 97.3291H100.554L100.779 97.4801V97.3291ZM100.406 93.1889L100.329 93.2659C100.329 93.1889 100.329 92.9639 100.406 92.9639C100.477 92.9639 100.477 93.1119 100.477 93.1889H100.406ZM99.9496 68.9551H100.104V69.1802L99.9496 68.9551ZM99.9496 67.0746H100.027L100.104 67.6728L99.9496 67.0746ZM99.7245 63.4586C99.7245 63.2335 99.5765 63.0085 99.5765 62.7834C99.5765 62.7064 99.6535 62.5583 99.6535 62.4813C99.7245 62.6294 99.8015 62.8545 99.8015 63.0855C99.8015 63.1565 99.7245 63.3105 99.7245 63.4586ZM99.5765 61.7291C99.4995 61.5781 99.4995 61.427 99.4995 61.276C99.4995 61.0509 99.5765 60.7489 99.7245 60.6008L99.5765 61.7291ZM99.7245 60.4468L99.4995 59.6946H99.7245L99.8015 60.2987L99.7245 60.4468ZM117.336 69.5533C116.282 71.89 113.726 74.2236 111.242 74.9758C110.567 75.2009 110.11 75.8791 109.358 75.7251C108.233 76.7794 106.5 76.8564 105.372 77.9847C104.241 78.3608 103.418 78.962 102.135 78.8879L101.759 79.341C101.759 81.5977 101.984 83.7803 101.984 85.9629C101.984 87.3963 101.759 88.7497 101.759 90.106C101.759 96.4258 101.984 103.048 103.115 109.296C103.418 111.026 103.566 112.835 103.566 114.642C103.566 117.05 103.341 119.605 102.588 121.942C102.434 122.469 102.511 122.842 102.511 123.369C102.511 124.051 102.286 124.501 101.457 124.424C101.457 123.446 101.383 122.392 101.383 121.338C101.383 118.027 101.608 114.716 101.608 111.328C101.608 110.499 101.306 105.757 101.457 105.455C101.158 105.005 101.534 104.481 100.933 104.102L100.779 103.8C100.779 101.919 100.856 100.113 100.856 98.2323V98.0813L100.779 98.3834L100.708 99.2126C100.252 98.9105 100.554 98.4574 100.554 98.0813C100.554 97.8562 100.329 97.6282 100.181 97.5571L100.329 96.953L100.779 97.1011L101.081 96.953C101.158 96.6509 101.306 96.3488 101.306 96.0468C101.306 95.9757 101.158 95.5966 101.081 95.5966C100.708 95.5966 100.708 95.8217 100.779 96.1238H100.631C100.477 96.1238 100.252 96.0468 100.181 95.9757C100.181 95.7477 100.406 95.5966 100.406 95.3716C100.406 95.2946 100.252 95.1465 100.181 95.0695C100.252 94.9214 100.252 94.7704 100.252 94.6193C100.252 94.3202 100.181 94.0182 100.181 93.7161C100.329 93.8671 100.406 93.8671 100.631 93.8671C100.856 93.8671 101.004 93.414 101.004 93.1889C101.004 92.9639 100.933 92.7388 100.779 92.5137C100.329 92.3597 100.181 91.9096 100.181 91.4594C100.252 91.3824 100.252 91.3824 100.329 91.3824C100.554 91.3824 100.708 91.5335 100.856 91.5335C100.933 91.5335 101.004 91.3824 101.081 91.3824C101.081 90.4792 100.181 91.1574 99.9496 90.4792C100.181 90.4022 99.9496 89.952 100.181 90.029C100.406 90.106 100.406 90.6302 100.631 90.6302H100.779L100.933 90.2541C100.708 89.875 100.631 89.3479 100.181 89.1228V88.6727C100.027 87.6954 100.329 86.6441 100.329 85.6609L100.708 85.7379C100.856 85.6609 100.933 85.4358 100.933 85.2877L100.779 85.1367L100.406 85.2877C100.252 85.2107 100.329 85.0597 100.329 84.9856C100.329 84.8346 100.252 84.7606 100.181 84.7606C100.554 84.0824 100.181 83.1762 101.081 82.803C100.933 82.3529 100.708 81.8998 100.708 81.4467C100.708 81.1476 100.856 80.8455 101.081 80.6974C101.004 80.5434 101.004 80.3953 100.933 80.3953V80.8455L101.081 81.9738L100.779 79.7142V79.5661C100.856 79.418 100.631 79.264 100.554 79.264C99.8785 79.341 99.2744 79.5661 98.5992 79.5661C98.1461 79.5661 97.77 79.4891 97.4709 79.341L97.3939 79.187C97.3939 78.8879 97.6959 78.7369 97.844 78.5118H98.2971C99.0493 78.5118 99.7245 78.1357 100.406 78.2098L100.708 77.8337C100.708 73.2463 101.081 68.428 101.534 63.7607C101.158 63.0855 101.383 62.3273 101.383 61.5781C101.383 60.2217 101.004 58.7943 100.779 57.512C100.708 57.3639 100.554 57.2869 100.406 57.2869C100.252 57.2869 100.104 57.4379 100.104 57.589C99.7245 57.814 99.8785 58.4152 99.9496 58.7943H99.8015C99.4995 58.5662 99.6535 58.1901 99.6535 57.814C99.6535 57.589 99.4254 57.3639 99.1974 57.3639C97.77 57.3639 96.4876 58.2671 95.0602 58.2671C94.7611 58.2671 94.459 58.1901 94.08 58.1161C94.234 56.9137 98.3711 56.7597 99.4254 56.3866C99.8785 55.2553 99.6535 54.127 99.6535 52.9957C99.6535 49.3856 100.631 45.4706 100.181 41.8576C100.252 41.6325 100.631 41.4814 100.933 41.4814L101.306 41.6325C101.232 42.1596 101.158 42.6098 101.158 43.1369C101.158 44.1912 101.306 45.3195 101.457 46.3738C101.759 46.824 101.759 48.1063 101.759 48.7045C101.759 50.4399 101.608 52.0954 101.608 53.8249C101.608 54.2751 101.534 54.7282 101.759 55.1783C101.608 55.4034 101.759 55.6284 102.061 55.7824C105.748 55.4034 109.435 54.8792 113.199 54.9532C113.726 54.8022 114.331 54.7282 114.855 54.7282C116.134 54.7282 118.77 56.1556 119.146 57.2869C119.821 59.0934 120.271 61.202 120.271 63.1565C120.271 67.3737 118.468 66.9206 117.336 69.5533Z" fill="#FFF"/>
<path d="M100.779 103.8L100.933 104.102C101.534 104.481 101.158 105.005 101.457 105.455C101.306 105.757 101.608 110.499 101.608 111.328C101.608 114.716 101.383 118.027 101.383 121.338C101.383 122.392 101.457 123.446 101.457 124.424C102.286 124.501 102.511 124.051 102.511 123.369C102.511 122.842 102.434 122.469 102.588 121.942C103.341 119.605 103.566 117.05 103.566 114.642C103.566 112.835 103.418 111.026 103.115 109.296C101.984 103.048 101.759 96.4258 101.759 90.106C101.759 88.7497 101.984 87.3963 101.984 85.9629C101.984 83.7803 101.759 81.5977 101.759 79.341L102.135 78.8879C103.418 78.962 104.241 78.3608 105.372 77.9847C106.5 76.8564 108.233 76.7794 109.358 75.7251C110.11 75.8791 110.567 75.2009 111.242 74.9758C113.726 74.2236 116.282 71.89 117.336 69.5533C118.468 66.9206 120.271 67.3737 120.271 63.1565C120.271 61.202 119.821 59.0934 119.146 57.2869C118.77 56.1556 116.134 54.7282 114.855 54.7282C114.331 54.7282 113.726 54.8022 113.199 54.9532C109.435 54.8792 105.748 55.4034 102.061 55.7824C101.759 55.6284 101.608 55.4034 101.759 55.1783C101.534 54.7282 101.608 54.2751 101.608 53.8249C101.608 52.0954 101.759 50.4399 101.759 48.7045C101.759 48.1063 101.759 46.824 101.457 46.3738C101.306 45.3195 101.158 44.1912 101.158 43.1369C101.158 42.6098 101.232 42.1596 101.306 41.6325L100.933 41.4814C100.631 41.4814 100.252 41.6325 100.181 41.8576C100.631 45.4706 99.6535 49.3856 99.6535 52.9957C99.6535 54.127 99.8785 55.2553 99.4254 56.3866C98.3711 56.7597 94.234 56.9137 94.08 58.1161C94.459 58.1901 94.7611 58.2671 95.0602 58.2671C96.4876 58.2671 97.77 57.3639 99.1974 57.3639C99.4254 57.3639 99.6535 57.589 99.6535 57.814C99.6535 58.1901 99.4995 58.5662 99.8015 58.7943H99.9496C99.8785 58.4152 99.7245 57.814 100.104 57.589C100.104 57.4379 100.252 57.2869 100.406 57.2869C100.554 57.2869 100.708 57.3639 100.779 57.512C101.004 58.7943 101.383 60.2217 101.383 61.5781C101.383 62.3273 101.158 63.0855 101.534 63.7607C101.081 68.428 100.708 73.2463 100.708 77.8337L100.406 78.2098C99.7245 78.1357 99.0493 78.5118 98.2971 78.5118H97.844C97.6959 78.7369 97.3939 78.8879 97.3939 79.187L97.4709 79.341C97.77 79.4891 98.1461 79.5661 98.5992 79.5661C99.2744 79.5661 99.8785 79.341 100.554 79.264C100.631 79.264 100.856 79.418 100.779 79.5661V79.7142L101.081 81.9738L100.933 80.8455V80.3953C101.004 80.3953 101.004 80.5434 101.081 80.6974C100.856 80.8455 100.708 81.1476 100.708 81.4467C100.708 81.8998 100.933 82.3529 101.081 82.803C100.181 83.1762 100.554 84.0824 100.181 84.7606C100.252 84.7606 100.329 84.8346 100.329 84.9856C100.329 85.0597 100.252 85.2107 100.406 85.2877L100.779 85.1367L100.933 85.2877C100.933 85.4358 100.856 85.6609 100.708 85.7378L100.329 85.6609C100.329 86.6441 100.027 87.6954 100.181 88.6727V89.1228C100.631 89.3479 100.708 89.875 100.933 90.2541L100.779 90.6302H100.631C100.406 90.6302 100.406 90.106 100.181 90.029C99.9496 89.952 100.181 90.4022 99.9496 90.4792C100.181 91.1574 101.081 90.4792 101.081 91.3824C101.004 91.3824 100.933 91.5335 100.856 91.5335C100.708 91.5335 100.554 91.3824 100.329 91.3824C100.252 91.3824 100.252 91.3824 100.181 91.4594C100.181 91.9096 100.329 92.3597 100.779 92.5137C100.933 92.7388 101.004 92.9639 101.004 93.1889C101.004 93.414 100.856 93.8671 100.631 93.8671C100.406 93.8671 100.329 93.8671 100.181 93.7161C100.181 94.0182 100.252 94.3202 100.252 94.6193C100.252 94.7704 100.252 94.9214 100.181 95.0695C100.252 95.1465 100.406 95.2946 100.406 95.3716C100.406 95.5966 100.181 95.7477 100.181 95.9757C100.252 96.0468 100.477 96.1238 100.631 96.1238H100.779C100.708 95.8217 100.708 95.5966 101.081 95.5966C101.158 95.5966 101.306 95.9757 101.306 96.0468C101.306 96.3488 101.158 96.6509 101.081 96.953L100.779 97.1011L100.329 96.953L100.181 97.5571C100.329 97.6282 100.554 97.8562 100.554 98.0813C100.554 98.4574 100.252 98.9105 100.708 99.2126L100.779 98.3834L100.856 98.0813V98.2323C100.856 100.113 100.779 101.919 100.779 103.8ZM100.779 103.8L101.004 104.102M110.715 73.8445V74.2236C113.276 72.8672 115.382 72.4882 116.359 69.3283C114.254 70.6076 112.672 72.4171 110.715 73.8445ZM102.736 112.906V112.533C102.736 111.781 102.286 111.103 102.286 110.351C102.286 110.126 102.36 109.901 102.434 109.67C102.434 109.522 102.286 109.373 102.135 109.373H101.984V112.08C101.984 114.34 102.061 116.522 102.36 118.705H102.588C102.961 116.973 102.736 115.243 102.961 113.511L102.736 112.906ZM111.92 55.8594C108.834 55.8594 105.748 56.6827 102.588 56.8367C102.36 56.9137 101.91 57.0618 101.91 57.3639C101.91 58.7173 102.061 60.0736 102.061 61.427C102.061 66.4704 101.608 71.4368 101.685 76.4062V77.3835L101.759 77.6086L102.209 77.6856C103.945 77.6856 106.725 75.1269 107.78 75.1269C111.467 72.6422 119.673 67.2227 119.673 62.3273C119.673 57.2869 116.436 55.8594 111.92 55.8594ZM101.306 99.8108L101.158 100.036C101.232 100.113 101.232 100.113 101.306 100.113C101.306 100.113 101.383 100.113 101.457 100.036C101.383 100.036 101.306 99.8878 101.306 99.8108ZM101.158 98.3064V99.2126H101.306V98.7595C101.306 98.6855 101.232 98.3834 101.158 98.3064ZM100.856 83.5552H100.779V83.7803H100.933C100.856 83.7033 100.856 83.5552 100.856 83.5552ZM100.708 93.9412C100.779 94.3202 100.708 95.0695 101.081 95.2205L101.158 94.9954C101.004 94.5453 101.306 94.0922 100.708 93.9412ZM100.779 97.3291H100.554L100.779 97.4801V97.3291ZM100.406 93.1889L100.329 93.2659C100.329 93.1889 100.329 92.9639 100.406 92.9639C100.477 92.9639 100.477 93.1119 100.477 93.1889H100.406ZM99.9496 68.9551H100.104V69.1802L99.9496 68.9551ZM99.9496 67.0746H100.027L100.104 67.6728L99.9496 67.0746ZM99.7245 63.4586C99.7245 63.2335 99.5765 63.0085 99.5765 62.7834C99.5765 62.7064 99.6535 62.5583 99.6535 62.4813C99.7245 62.6294 99.8015 62.8545 99.8015 63.0855C99.8015 63.1565 99.7245 63.3105 99.7245 63.4586ZM99.5765 61.7291C99.4995 61.5781 99.4995 61.427 99.4995 61.276C99.4995 61.0509 99.5765 60.7489 99.7245 60.6008L99.5765 61.7291ZM99.7245 60.4468L99.4995 59.6946H99.7245L99.8015 60.2987L99.7245 60.4468Z" stroke="#FFF" stroke-width="0.29985" stroke-miterlimit="10"/>
<path d="M145.053 54.6482C144.6 53.973 144.301 53.4459 143.321 53.4459C143.173 53.4459 142.948 53.5939 142.948 53.819V53.896L143.096 53.819C144.15 53.819 144.301 54.7252 145.053 55.0984V54.6482ZM144.15 82.347C143.848 82.572 143.321 82.421 142.948 82.421C142.717 82.421 142.421 82.498 142.421 82.7971C142.421 83.4013 144.15 83.2502 144.449 83.2502C144.674 83.1732 145.278 82.8741 145.278 82.572C145.124 82.2729 144.449 82.347 144.15 82.347ZM146.333 58.6373C145.652 58.1102 145.652 57.1329 145.427 56.8308L143.321 54.6482H143.173C142.344 54.6482 140.386 60.2928 140.084 61.2701C140.309 61.4952 140.611 61.5722 140.913 61.5722C141.662 61.5722 142.344 61.2701 143.173 61.3471C144.526 61.045 145.954 61.2701 147.31 60.8969L146.333 58.6373ZM137.676 61.2701C137.676 61.4952 137.827 61.7972 138.129 61.7262H138.503C138.953 61.7262 139.332 61.3471 139.409 60.8969C139.936 59.3155 141.064 57.737 141.212 56.1526C139.557 57.0559 137.676 59.3155 137.676 61.2701ZM137.75 63.1536L137.676 63.2276C136.622 64.1338 136.773 63.9798 136.773 65.2592C136.773 65.7864 136.474 66.3135 136.474 66.8406C136.474 67.2167 136.773 67.4418 136.773 67.8209C136.773 68.046 136.545 68.425 136.474 68.5731C136.474 69.6274 136.32 70.6017 136.32 71.656C136.32 72.4852 137.374 76.9275 137.901 77.0755C137.827 76.6254 137.901 76.2493 137.901 75.7991C137.901 75.4201 137.827 75.0469 137.602 74.8218C137.676 74.5968 137.75 74.3658 137.75 74.1407C137.75 73.1634 136.924 70.9038 136.924 69.7014C136.924 68.046 137.676 65.2592 138.503 63.7548V63.6778C138.503 63.3046 138.052 63.1536 137.75 63.1536ZM146.934 81.8939C145.201 83.0222 145.729 83.7744 143.173 83.7744C142.119 83.7744 141.064 83.5493 140.161 83.1732C135.645 78.657 136.32 75.8732 134.967 70.1516L135.343 69.7014C135.343 69.1003 135.195 68.425 135.195 67.8209C135.195 67.6669 135.568 66.4645 135.645 66.3135C135.568 65.9374 135.568 65.5613 135.568 65.1881C135.568 64.7321 135.793 64.1338 135.87 63.6778C135.568 63.4527 135.195 63.3787 134.816 63.3787C133.912 63.3787 133.083 63.6778 132.183 63.6778C130.826 63.6778 129.248 63.7548 127.815 63.5297V63.3046C127.815 63.0026 128.419 62.9285 128.644 62.9285C130.527 62.9285 132.485 63.0026 134.288 62.4754V62.4014C134.288 62.2503 133.764 62.3244 133.687 62.3244C133.536 62.3244 133.462 62.2503 133.462 62.1763C134.59 61.6492 136.545 62.7034 136.545 60.968C136.545 59.1645 138.503 57.435 139.634 56.1526C140.836 54.5712 141.891 52.6907 144.15 52.6907H144.449C146.481 53.5939 145.883 55.7025 147.31 57.0559C147.31 57.8081 147.686 58.5603 147.686 59.3155C148.29 60.0677 148.062 60.6719 148.361 61.4952C146.333 62.3244 141.816 62.4014 139.409 62.9285C138.277 64.8861 137.75 66.8406 137.75 69.0233C137.75 72.8643 138.805 76.4003 139.486 80.1644C139.557 80.3894 139.557 81.2186 140.01 81.1416H140.309C140.836 81.1416 141.363 81.6688 141.739 82.0479C142.042 82.0479 142.421 82.1189 142.717 82.1189C144.224 82.1189 147.236 81.5207 148.062 80.0874C149.416 77.8277 150.245 76.2493 150.245 73.6136C150.245 73.0894 150.097 70.0035 150.621 70.0035C150.997 70.0035 151.148 71.3599 151.148 71.5849C151.148 75.5741 150.396 79.5602 146.934 81.8939Z" fill="#FFF"/>
<path d="M145.053 54.6482C144.6 53.973 144.301 53.4459 143.321 53.4459C143.173 53.4459 142.948 53.5939 142.948 53.819V53.896L143.096 53.819C144.15 53.819 144.301 54.7252 145.053 55.0984V54.6482ZM144.15 82.347C143.848 82.572 143.321 82.421 142.948 82.421C142.717 82.421 142.421 82.498 142.421 82.7971C142.421 83.4013 144.15 83.2502 144.449 83.2502C144.674 83.1732 145.278 82.8741 145.278 82.572C145.124 82.2729 144.449 82.347 144.15 82.347ZM146.333 58.6373C145.652 58.1102 145.652 57.1329 145.427 56.8308L143.321 54.6482H143.173C142.344 54.6482 140.386 60.2928 140.084 61.2701C140.309 61.4952 140.611 61.5722 140.913 61.5722C141.662 61.5722 142.344 61.2701 143.173 61.3471C144.526 61.045 145.954 61.2701 147.31 60.8969L146.333 58.6373ZM137.676 61.2701C137.676 61.4952 137.827 61.7972 138.129 61.7262H138.503C138.953 61.7262 139.332 61.3471 139.409 60.8969C139.936 59.3155 141.064 57.737 141.212 56.1526C139.557 57.0559 137.676 59.3155 137.676 61.2701ZM137.75 63.1536L137.676 63.2276C136.622 64.1338 136.773 63.9798 136.773 65.2592C136.773 65.7864 136.474 66.3135 136.474 66.8406C136.474 67.2167 136.773 67.4418 136.773 67.8209C136.773 68.046 136.545 68.425 136.474 68.5731C136.474 69.6274 136.32 70.6017 136.32 71.656C136.32 72.4852 137.374 76.9275 137.901 77.0755C137.827 76.6254 137.901 76.2493 137.901 75.7991C137.901 75.4201 137.827 75.0469 137.602 74.8218C137.676 74.5968 137.75 74.3658 137.75 74.1407C137.75 73.1634 136.924 70.9038 136.924 69.7014C136.924 68.046 137.676 65.2592 138.503 63.7548V63.6778C138.503 63.3046 138.052 63.1536 137.75 63.1536ZM146.934 81.8939C145.201 83.0222 145.729 83.7744 143.173 83.7744C142.119 83.7744 141.064 83.5493 140.161 83.1732C135.645 78.657 136.32 75.8732 134.967 70.1516L135.343 69.7014C135.343 69.1003 135.195 68.425 135.195 67.8209C135.195 67.6669 135.568 66.4645 135.645 66.3135C135.568 65.9374 135.568 65.5613 135.568 65.1881C135.568 64.7321 135.793 64.1338 135.87 63.6778C135.568 63.4527 135.195 63.3787 134.816 63.3787C133.912 63.3787 133.083 63.6778 132.183 63.6778C130.826 63.6778 129.248 63.7548 127.815 63.5297V63.3046C127.815 63.0026 128.419 62.9285 128.644 62.9285C130.527 62.9285 132.485 63.0026 134.288 62.4754V62.4014C134.288 62.2503 133.764 62.3244 133.687 62.3244C133.536 62.3244 133.462 62.2503 133.462 62.1763C134.59 61.6492 136.545 62.7034 136.545 60.968C136.545 59.1645 138.503 57.435 139.634 56.1526C140.836 54.5712 141.891 52.6907 144.15 52.6907H144.449C146.481 53.5939 145.883 55.7025 147.31 57.0559C147.31 57.8081 147.686 58.5603 147.686 59.3155C148.29 60.0677 148.062 60.6719 148.361 61.4952C146.333 62.3244 141.816 62.4014 139.409 62.9285C138.277 64.8861 137.75 66.8406 137.75 69.0233C137.75 72.8643 138.805 76.4003 139.486 80.1644C139.557 80.3894 139.557 81.2186 140.01 81.1416H140.309C140.836 81.1416 141.363 81.6688 141.739 82.0479C142.042 82.0479 142.421 82.1189 142.717 82.1189C144.224 82.1189 147.236 81.5207 148.062 80.0874C149.416 77.8277 150.245 76.2493 150.245 73.6136C150.245 73.0894 150.097 70.0035 150.621 70.0035C150.997 70.0035 151.148 71.3599 151.148 71.5849C151.148 75.5741 150.396 79.5602 146.934 81.8939Z" stroke="#FFF" stroke-width="0.29985" stroke-miterlimit="10"/>
<path d="M175.319 53.7391C174.792 53.7391 173.06 53.8931 173.06 54.6424C173.587 54.6424 174.114 54.4173 174.641 54.4173C175.545 54.4173 176.374 54.3433 177.277 54.3433C176.676 54.0412 175.995 53.7391 175.319 53.7391ZM165.159 69.2425C164.934 68.7924 165.082 68.6443 165.082 68.1912C165.082 67.9661 164.934 67.741 164.78 67.664L164.631 67.741V71.203C164.631 73.9128 164.48 76.5455 164.48 79.2553C164.48 79.2553 164.554 79.9364 164.631 79.9364C164.631 79.7054 164.631 77.6768 164.708 77.5998C164.78 77.9019 164.78 78.127 164.78 78.352C165.384 78.4261 165.159 77.8249 165.159 77.4517C165.159 77.2977 165.236 77.1497 165.307 76.9986V76.3205V76.6995C165.236 77.1497 165.236 77.5998 165.236 78.0529C165.236 78.0529 165.236 78.5031 165.307 78.5801C165.609 78.0529 165.532 77.4517 165.532 76.8476C165.532 76.2435 165.609 75.5682 165.911 74.9641C165.609 73.3086 165.911 70.6759 165.159 69.2425ZM164.631 55.9988C164.406 56.5259 164.255 57.053 164.255 57.5802C164.255 58.1814 164.329 58.7855 164.329 59.4607C164.329 59.6858 164.329 59.9109 164.554 60.0649C164.631 59.3837 164.708 58.6315 164.708 57.9563V57.4292C164.708 56.976 164.708 56.4489 164.631 55.9988ZM163.352 63.2248C162.301 63.977 161.543 65.0313 161.093 66.2366H161.395C162.07 65.2564 163.201 64.4271 163.577 63.2248H163.352ZM181.34 58.7085C180.887 58.1814 180.964 57.4292 180.662 56.902C179.913 55.1695 176.975 54.7194 175.319 54.7194C171.33 54.7194 165.082 59.3127 165.082 63.6749C165.082 63.977 165.159 65.5555 165.307 65.7095C165.307 65.6325 165.307 65.5555 165.384 65.5555C165.384 65.5555 165.461 65.7805 165.532 66.2366L165.461 66.5387L165.686 66.7637C165.686 68.6443 166.586 70.2998 166.586 72.1063C166.586 73.0066 166.361 73.9868 166.361 74.816C166.361 75.5682 166.515 76.3205 166.515 77.0727C166.515 78.8051 165.307 84.2987 164.78 86.1792C164.78 86.3332 164.708 86.4043 164.554 86.4043C164.406 86.4043 164.329 86.4043 164.255 86.3332V85.504C164.329 82.7943 163.728 80.0075 164.104 77.2977C163.651 75.7163 164.027 67.1369 163.879 64.5041H163.503L161.472 66.6868H161.318C161.018 66.6868 160.944 66.1596 160.716 66.1596C160.565 66.1596 160.417 66.3077 160.34 66.4617L159.816 66.5387C159.739 66.4617 159.662 66.3847 159.662 66.2366C159.662 65.7805 160.34 65.4074 160.491 64.9572C160.944 64.4271 161.922 64.128 161.922 63.2248C164.406 61.5663 163.577 61.3413 163.577 58.2584C163.577 56.0758 164.255 53.8161 163.879 51.6335C164.255 51.2574 164.027 50.6562 164.027 50.2061C164.027 49.679 164.406 49.448 164.934 49.525C165.236 50.3542 164.934 51.2574 164.934 52.0866C164.934 52.5368 165.005 52.9159 165.159 53.212C165.461 54.7194 165.609 56.2238 165.686 57.7312C165.532 58.0303 165.461 58.3324 165.461 58.7085C165.461 59.0106 165.609 59.3837 165.834 59.6088C169.373 57.13 170.051 53.289 175.693 53.289C178.704 53.289 179.534 54.1923 181.189 56.4489C181.34 57.13 181.266 57.7312 181.568 58.3324L181.34 58.7085Z" fill="#FFF"/>
<path d="M175.319 53.7391C174.792 53.7391 173.06 53.8931 173.06 54.6424C173.587 54.6424 174.114 54.4173 174.641 54.4173C175.545 54.4173 176.374 54.3433 177.277 54.3433C176.676 54.0412 175.995 53.7391 175.319 53.7391ZM165.159 69.2425C164.934 68.7924 165.082 68.6443 165.082 68.1912C165.082 67.9661 164.934 67.741 164.78 67.664L164.631 67.741V71.203C164.631 73.9128 164.48 76.5455 164.48 79.2553C164.48 79.2553 164.554 79.9364 164.631 79.9364C164.631 79.7054 164.631 77.6768 164.708 77.5998C164.78 77.9019 164.78 78.127 164.78 78.352C165.384 78.4261 165.159 77.8249 165.159 77.4517C165.159 77.2977 165.236 77.1497 165.307 76.9986V76.3205V76.6995C165.236 77.1497 165.236 77.5998 165.236 78.0529C165.236 78.0529 165.236 78.5031 165.307 78.5801C165.609 78.0529 165.532 77.4517 165.532 76.8476C165.532 76.2435 165.609 75.5682 165.911 74.9641C165.609 73.3086 165.911 70.6759 165.159 69.2425ZM164.631 55.9988C164.406 56.5259 164.255 57.053 164.255 57.5802C164.255 58.1814 164.329 58.7855 164.329 59.4607C164.329 59.6858 164.329 59.9109 164.554 60.0649C164.631 59.3837 164.708 58.6315 164.708 57.9563V57.4292C164.708 56.976 164.708 56.4489 164.631 55.9988ZM163.352 63.2248C162.301 63.977 161.543 65.0313 161.093 66.2366H161.395C162.07 65.2564 163.201 64.4271 163.577 63.2248H163.352ZM181.34 58.7085C180.887 58.1814 180.964 57.4292 180.662 56.902C179.913 55.1695 176.975 54.7194 175.319 54.7194C171.33 54.7194 165.082 59.3127 165.082 63.6749C165.082 63.977 165.159 65.5555 165.307 65.7095C165.307 65.6325 165.307 65.5555 165.384 65.5555C165.384 65.5555 165.461 65.7805 165.532 66.2366L165.461 66.5387L165.686 66.7637C165.686 68.6443 166.586 70.2998 166.586 72.1063C166.586 73.0066 166.361 73.9868 166.361 74.816C166.361 75.5682 166.515 76.3205 166.515 77.0727C166.515 78.8051 165.307 84.2987 164.78 86.1792C164.78 86.3332 164.708 86.4043 164.554 86.4043C164.406 86.4043 164.329 86.4043 164.255 86.3332V85.504C164.329 82.7943 163.728 80.0075 164.104 77.2977C163.651 75.7163 164.027 67.1369 163.879 64.5041H163.503L161.472 66.6867H161.318C161.018 66.6867 160.944 66.1596 160.716 66.1596C160.565 66.1596 160.417 66.3077 160.34 66.4617L159.816 66.5387C159.739 66.4617 159.662 66.3847 159.662 66.2366C159.662 65.7805 160.34 65.4074 160.491 64.9572C160.944 64.4271 161.922 64.128 161.922 63.2248C164.406 61.5663 163.577 61.3413 163.577 58.2584C163.577 56.0758 164.255 53.8161 163.879 51.6335C164.255 51.2574 164.027 50.6562 164.027 50.2061C164.027 49.679 164.406 49.448 164.934 49.525C165.236 50.3542 164.934 51.2574 164.934 52.0866C164.934 52.5368 165.005 52.9159 165.159 53.212C165.461 54.7194 165.609 56.2238 165.686 57.7312C165.532 58.0303 165.461 58.3324 165.461 58.7085C165.461 59.0106 165.609 59.3837 165.834 59.6088C169.373 57.13 170.051 53.289 175.693 53.289C178.704 53.289 179.534 54.1923 181.189 56.4489C181.34 57.13 181.266 57.7312 181.568 58.3324L181.34 58.7085Z" stroke="#FFF" stroke-width="0.29985" stroke-miterlimit="10"/>
<path d="M269.658 74.6974H269.285L270.638 74.3953C270.487 74.4694 269.735 74.6974 269.658 74.6974ZM271.165 74.3953H270.789L271.165 74.1702C270.789 74.1702 270.487 74.1702 270.185 74.0192C268.526 74.3183 266.8 74.3953 265.218 74.6974C265.141 74.6974 264.993 74.8484 264.993 74.8484C264.993 74.9225 264.993 74.9225 265.064 74.9965C265.823 74.9965 266.575 75.1475 267.401 75.1475C268.076 75.1475 268.829 74.9225 269.51 74.8484C268.906 75.2986 266.8 75.2245 265.971 75.2245C265.669 75.2245 265.444 75.2986 265.218 75.3756C265.367 75.8257 265.894 75.9768 266.048 76.4299C267.7 78.0824 269.208 80.416 270.41 82.3736C270.41 82.6016 270.487 82.9777 270.638 83.1258V83.4278C270.638 83.5789 270.863 83.804 271.014 83.878H271.088C271.088 83.955 271.014 84.029 271.014 84.1031C271.014 84.4051 271.692 84.6302 271.692 84.8582C271.692 84.9323 271.692 85.0093 271.615 85.0093C270.937 84.9323 270.789 84.5562 270.487 84.029C269.812 83.5789 269.658 82.6016 268.829 82.2225C268.68 81.6213 268.301 81.6954 268.076 81.0942L267.401 79.5898C267.7 79.6638 267.928 79.8918 267.928 80.1909C268.378 81.2452 269.131 81.9234 269.658 82.9007C269.883 82.9777 269.883 83.2768 270.185 83.3538C269.735 82.0744 268.983 80.416 267.777 79.5898C267.777 79.3647 267.7 79.0626 267.401 79.0626C267.25 79.0626 267.25 79.3647 267.324 79.4387C267.025 78.9886 266.874 78.5355 266.421 78.2334L266.498 78.0824C266.498 77.7063 266.273 77.4042 265.971 77.3301C265.823 76.803 265.218 77.3301 264.916 76.729C264.691 76.2018 264.013 76.0538 263.563 76.0538C262.207 78.0824 257.24 82.8267 256.562 84.8582C256.112 84.9323 255.81 85.2343 255.36 85.2343C255.283 85.2343 254.981 85.2343 254.981 85.0833C254.981 84.9323 255.283 84.7812 255.36 84.5562C256.112 83.3538 262.811 76.3529 262.811 75.4496C262.811 75.2245 262.284 75.0735 262.059 75.0735C261.831 74.9965 261.531 74.9225 261.303 74.9225C260.628 74.9225 260.024 75.0735 259.349 75.0735C257.767 75.0735 256.112 75.3756 254.454 75.3756C254.154 75.3756 254.305 75.0735 254.077 74.8484C254.605 74.7714 255.058 74.3953 255.585 74.3953C255.733 74.3953 256.035 74.4694 256.26 74.6204C256.713 74.6204 257.166 74.6974 257.616 74.6974C259.272 74.6974 261.603 74.6204 263.184 74.2443C263.261 74.1702 263.338 74.1702 263.338 74.0932C263.338 74.0192 262.959 73.9422 263.036 73.7171C263.036 73.418 261.303 71.9106 261.303 71.4605C261.377 71.4605 261.377 71.3835 261.377 71.3835C261.377 70.5572 258.745 67.4714 258.067 66.7192V66.6422C258.067 66.192 257.69 65.9669 257.69 65.5908C257.69 65.4398 257.915 65.2888 258.067 65.2888C258.295 65.2888 258.443 65.5908 258.594 65.7419C258.52 65.8159 258.443 65.8929 258.443 65.9669C258.443 66.343 260.101 68.4487 260.249 68.4487C260.326 68.4487 260.326 68.2236 260.4 68.2236C262.13 69.2779 262.586 71.2354 263.711 72.7399C264.839 72.7399 267.324 66.6422 268.757 66.118H268.906C267.626 67.9985 266.196 69.805 265.141 71.8366L265.293 71.9876C265.971 71.6856 265.823 70.9333 266.119 70.7083C266.273 70.4802 267.025 70.0301 267.025 69.805C267.025 69.654 268.906 67.3203 269.285 66.4941C269.658 66.118 269.883 65.6649 270.262 65.2147L269.735 65.3628C269.883 64.7616 271.165 64.0094 271.763 64.0834C271.088 65.2888 269.812 65.9669 269.285 67.2433C268.603 68.6767 267.851 69.503 266.874 70.7083V70.7823C266.874 71.0074 266.421 71.2354 266.421 71.4605C265.971 72.2127 264.54 73.0419 264.54 74.0932C264.765 74.1702 265.064 74.1702 265.293 74.1702C267.25 74.1702 269.285 73.7171 271.239 73.7171C271.917 73.7171 272.895 73.6431 273.499 73.9422C272.747 74.2443 271.917 74.3183 271.165 74.3953Z" fill="#FFF" stroke="#FFF" stroke-width="0.29985" stroke-miterlimit="10"/>
<path d="M275.566 86.3894C275.744 85.8179 275.901 85.2108 276.055 84.5859C276.206 84.3875 276.363 84.195 276.508 83.9877C276.508 84.9206 276.016 85.6432 275.566 86.3894ZM270.94 93.6984C270.863 94.0745 270.564 94.1485 270.265 94.2255C270.552 93.4141 270.928 92.65 271.293 91.8919C272.021 91.6135 272.673 90.9857 273.374 90.6155C272.625 91.6875 271.823 92.727 270.94 93.6984ZM274.98 85.9748C274.521 86.9462 273.961 88.0123 273.271 89.3332C272.69 89.576 272.409 90.1742 272.006 90.6007C272.083 90.3786 272.157 90.1476 272.294 90.0084C272.942 88.5128 273.955 87.2512 274.98 85.9748ZM266.572 96.9353C266.045 97.9126 263.939 99.1179 262.962 99.1179C261.908 99.1179 261.004 98.1406 259.95 98.0636C259.725 97.3114 258.896 97.6875 258.369 97.3114C257.092 96.4081 255.357 94.6016 254.608 93.2453C253.328 90.8376 252.197 87.6777 251.522 85.119C251.22 84.0647 251.22 77.967 251.22 76.6876C251.22 72.1714 251.069 68.6354 252.949 64.4952C252.949 63.592 253.855 63.0648 253.855 62.3866V62.0875C254.379 61.4863 254.379 60.5061 255.061 59.9789C255.736 57.7963 257.767 56.44 258.819 54.4084C259.648 54.0323 259.876 52.904 260.628 52.3768C262.281 51.3225 264.016 49.8181 266.122 49.8181C266.347 49.9691 266.572 50.1172 266.874 50.1172C267.028 50.1172 267.099 50.0432 267.253 50.0432L267.552 49.8181C267.854 49.8921 268.23 50.1942 268.381 49.6671C269.738 49.9691 271.618 49.2909 272.447 50.7954C275.382 52.6789 274.476 56.668 275.678 59.3778C275.909 61.7854 276.135 64.1931 276.206 66.6778C276.283 70.0628 276.733 73.4507 276.733 76.9127C276.733 79.7054 276.54 81.4941 276.075 83.1377C275.773 83.7152 275.459 84.2779 275.154 84.8939C274.328 85.344 274.177 86.5464 273.271 86.8485C272.696 87.9442 271.997 89.4872 271.198 91.0508C271.183 91.0508 271.177 91.0627 271.165 91.0627C271.067 90.9857 271.05 90.8731 270.99 90.7784C270.786 91.0242 270.588 91.27 270.354 91.4891C270.469 91.652 270.582 91.8208 270.718 91.9482C269.522 94.1604 268.13 96.2393 266.572 96.9353ZM261.078 100.32C258.748 100.32 256.115 99.494 254.759 97.5365C253.704 96.1831 252.274 94.9037 251.596 93.2453C250.918 92.4931 248.658 83.4605 248.658 82.1071C248.658 82.0331 248.658 81.731 248.889 81.731C249.789 81.731 251.445 86.5464 251.596 87.2246C252.274 89.4842 253.553 91.8919 254.608 93.9975C255.209 95.0547 256.038 95.807 256.639 96.8583C257.391 97.0834 257.767 97.9126 258.594 98.0636C258.973 98.7418 259.725 98.8158 260.175 99.343C260.477 99.343 261.306 99.5681 261.306 99.9442C261.306 100.095 261.306 100.32 261.078 100.32ZM278.992 77.4398C278.616 77.7419 277.938 78.195 278.015 78.7962V79.0213C277.414 79.9245 277.337 80.9788 276.733 81.8821C276.674 81.9768 276.635 82.0805 276.579 82.1782C277.509 77.0993 277.79 71.2711 277.79 67.9572C277.79 64.8713 276.733 61.8624 276.437 58.7766C276.283 56.3659 276.206 53.7302 274.627 51.7756C273.046 49.9691 270.863 48.6157 268.381 48.6157C268.005 48.6157 267.629 48.6157 267.253 48.6898C266.951 48.4647 266.572 48.3877 266.199 48.3877C265.067 48.3877 264.164 49.2169 263.11 49.2169C262.814 49.2169 262.512 49.1399 262.281 49.0659L261.908 49.442L263.264 49.516C263.338 49.6671 263.489 49.8181 263.489 49.9691C263.489 50.4193 262.21 50.2682 262.056 51.0234C259.648 52.3028 257.092 55.3886 255.659 57.6453C254.833 59.0017 254.08 60.6571 253.328 62.0875C253.251 62.1616 252.724 63.2899 252.576 63.2899C252.576 63.817 252.422 64.2701 252.351 64.7203C251.747 65.3244 252.12 66.4498 251.522 67.0539C250.618 69.9118 249.866 73.4507 249.866 76.3856C249.866 76.6106 249.712 76.6876 249.487 76.7617C249.416 76.0864 249.185 75.3342 249.262 74.582V74.1289C249.564 67.356 249.712 61.6344 253.704 55.7648C256.713 51.3225 260.554 50.6443 261.683 49.2909C261.457 49.2909 261.306 49.2169 261.078 49.2169C260.477 49.2169 259.876 49.516 259.577 50.0432C255.286 51.4736 253.177 55.3886 251.371 59.1497C251.069 59.6028 250.692 59.9019 250.618 60.5061C250.316 61.8624 250.091 63.1388 249.564 64.4952C249.416 65.0223 249.114 65.8486 249.114 66.3757C249.114 66.8289 249.339 67.279 249.339 67.7321C249.339 68.3333 249.262 68.8604 249.114 69.4616C248.285 73.6018 248.06 78.118 248.06 82.3322C248.06 85.7202 249.564 88.732 250.618 91.8178C251.747 95.1288 254.154 97.8385 256.713 100.095L258.594 100.397C259.05 100.773 259.577 100.924 260.175 100.924C261.004 100.924 261.831 100.622 262.66 100.696H262.962C264.016 100.021 265.82 99.5681 266.649 98.6678C266.874 98.5167 267.028 97.9896 267.327 97.9896C267.401 97.9896 267.478 97.9896 267.552 98.0636C269.134 96.3311 271.091 94.9037 272.519 93.0942C273.271 92.194 273.727 91.0627 274.402 90.0854C274.627 89.7833 274.627 89.3332 275.003 89.1081C275.909 86.8485 279.52 79.6225 279.52 77.6679V77.4398H278.992Z" fill="#FFF"/>
<path d="M275.566 86.3894C275.744 85.8179 275.901 85.2108 276.055 84.5859C276.206 84.3875 276.363 84.195 276.508 83.9877C276.508 84.9206 276.016 85.6432 275.566 86.3894ZM270.94 93.6984C270.863 94.0745 270.564 94.1485 270.265 94.2255C270.552 93.4141 270.928 92.65 271.293 91.8919C272.021 91.6135 272.673 90.9857 273.374 90.6155C272.625 91.6875 271.823 92.727 270.94 93.6984ZM274.98 85.9748C274.521 86.9462 273.961 88.0123 273.271 89.3332C272.69 89.576 272.409 90.1742 272.006 90.6007C272.083 90.3786 272.157 90.1476 272.294 90.0084C272.942 88.5128 273.955 87.2512 274.98 85.9748ZM266.572 96.9353C266.045 97.9126 263.939 99.1179 262.962 99.1179C261.908 99.1179 261.004 98.1406 259.95 98.0636C259.725 97.3114 258.896 97.6875 258.369 97.3114C257.092 96.4081 255.357 94.6016 254.608 93.2453C253.328 90.8376 252.197 87.6777 251.522 85.119C251.22 84.0647 251.22 77.967 251.22 76.6876C251.22 72.1714 251.069 68.6354 252.949 64.4952C252.949 63.592 253.855 63.0648 253.855 62.3866V62.0875C254.379 61.4863 254.379 60.5061 255.061 59.9789C255.736 57.7963 257.767 56.44 258.819 54.4084C259.648 54.0323 259.876 52.904 260.628 52.3768C262.281 51.3225 264.016 49.8181 266.122 49.8181C266.347 49.9691 266.572 50.1172 266.874 50.1172C267.028 50.1172 267.099 50.0432 267.253 50.0432L267.552 49.8181C267.854 49.8921 268.23 50.1942 268.381 49.6671C269.738 49.9691 271.618 49.2909 272.447 50.7954C275.382 52.6789 274.476 56.668 275.678 59.3778C275.909 61.7854 276.135 64.1931 276.206 66.6778C276.283 70.0628 276.733 73.4507 276.733 76.9127C276.733 79.7054 276.54 81.4941 276.075 83.1377C275.773 83.7152 275.459 84.2779 275.154 84.8939C274.328 85.344 274.177 86.5464 273.271 86.8485C272.696 87.9442 271.997 89.4872 271.198 91.0508C271.183 91.0508 271.177 91.0627 271.165 91.0627C271.067 90.9857 271.05 90.8731 270.99 90.7784C270.786 91.0242 270.588 91.27 270.354 91.4891C270.469 91.652 270.582 91.8208 270.718 91.9482C269.522 94.1604 268.13 96.2393 266.572 96.9353ZM261.078 100.32C258.748 100.32 256.115 99.494 254.759 97.5365C253.704 96.1831 252.274 94.9037 251.596 93.2453C250.918 92.4931 248.658 83.4605 248.658 82.1071C248.658 82.0331 248.658 81.731 248.889 81.731C249.789 81.731 251.445 86.5464 251.596 87.2246C252.274 89.4842 253.553 91.8919 254.608 93.9975C255.209 95.0547 256.038 95.807 256.639 96.8583C257.391 97.0834 257.767 97.9126 258.594 98.0636C258.973 98.7418 259.725 98.8158 260.175 99.343C260.477 99.343 261.306 99.568 261.306 99.9442C261.306 100.095 261.306 100.32 261.078 100.32ZM278.992 77.4398C278.616 77.7419 277.938 78.195 278.015 78.7962V79.0213C277.414 79.9245 277.337 80.9788 276.733 81.8821C276.674 81.9768 276.635 82.0805 276.579 82.1782C277.509 77.0993 277.79 71.2711 277.79 67.9572C277.79 64.8713 276.733 61.8624 276.437 58.7766C276.283 56.3659 276.206 53.7302 274.627 51.7756C273.046 49.9691 270.863 48.6157 268.381 48.6157C268.005 48.6157 267.629 48.6157 267.253 48.6898C266.951 48.4647 266.572 48.3877 266.199 48.3877C265.067 48.3877 264.164 49.2169 263.11 49.2169C262.814 49.2169 262.512 49.1399 262.281 49.0659L261.908 49.442L263.264 49.516C263.338 49.6671 263.489 49.8181 263.489 49.9691C263.489 50.4193 262.21 50.2682 262.056 51.0234C259.648 52.3028 257.092 55.3886 255.659 57.6453C254.833 59.0017 254.08 60.6571 253.328 62.0875C253.251 62.1616 252.724 63.2899 252.576 63.2899C252.576 63.817 252.422 64.2701 252.351 64.7203C251.747 65.3244 252.12 66.4498 251.522 67.0539C250.618 69.9118 249.866 73.4507 249.866 76.3856C249.866 76.6106 249.712 76.6876 249.487 76.7617C249.416 76.0864 249.185 75.3342 249.262 74.582V74.1289C249.564 67.356 249.712 61.6344 253.704 55.7647C256.713 51.3225 260.554 50.6443 261.683 49.2909C261.457 49.2909 261.306 49.2169 261.078 49.2169C260.477 49.2169 259.876 49.516 259.577 50.0432C255.286 51.4736 253.177 55.3886 251.371 59.1497C251.069 59.6028 250.692 59.9019 250.618 60.5061C250.316 61.8624 250.091 63.1388 249.564 64.4952C249.416 65.0223 249.114 65.8486 249.114 66.3757C249.114 66.8289 249.339 67.279 249.339 67.7321C249.339 68.3333 249.262 68.8604 249.114 69.4616C248.285 73.6018 248.06 78.118 248.06 82.3322C248.06 85.7202 249.564 88.732 250.618 91.8178C251.747 95.1288 254.154 97.8385 256.713 100.095L258.594 100.397C259.05 100.773 259.577 100.924 260.175 100.924C261.004 100.924 261.831 100.622 262.66 100.696H262.962C264.016 100.021 265.82 99.5681 266.649 98.6678C266.874 98.5167 267.028 97.9896 267.327 97.9896C267.401 97.9896 267.478 97.9896 267.552 98.0636C269.134 96.3311 271.091 94.9037 272.519 93.0942C273.271 92.194 273.727 91.0627 274.402 90.0854C274.627 89.7833 274.627 89.3332 275.003 89.1081C275.909 86.8485 279.52 79.6225 279.52 77.6679V77.4398H278.992Z" stroke="#FFF" stroke-width="0.29985" stroke-miterlimit="10"/>
<path d="M263.329 99.6421C263.252 99.6421 263.175 99.7191 263.175 99.7931H263.329C263.329 99.7191 263.329 99.7191 263.4 99.7191C263.4 99.6421 263.4 99.6421 263.329 99.6421Z" fill="#FFF"/>
<path d="M263.329 99.6421V99.7931" stroke="#FFF" stroke-width="0.29985" stroke-miterlimit="10"/>
<path d="M142.625 138.686C141.044 139.284 141.044 140.567 139.915 141.396L140.217 141.544C140.818 140.943 142.779 140.114 142.779 139.213C142.779 139.059 142.702 138.834 142.625 138.686ZM142.175 135.526C142.323 135.372 142.4 135.147 142.4 134.922C142.4 134.469 142.175 134.019 142.175 133.492C141.121 131.46 140.519 129.123 139.163 127.169C138.26 126.944 138.861 126.189 138.186 125.892C137.884 124.61 137.131 123.633 136.151 122.881C135.926 122.354 135.174 121.074 134.647 120.846V121.222C135.097 121.524 135.251 121.974 135.476 122.354C137.434 125.513 139.69 128.599 140.895 132.135C141.269 133.492 142.021 135.147 142.021 136.58C142.021 137.179 141.95 137.706 141.648 138.233C141.648 138.384 141.796 138.532 141.95 138.461C142.323 138.008 142.4 137.481 142.4 136.877C142.4 136.426 142.323 135.976 142.175 135.526ZM134.271 120.319L134.12 120.396L134.271 120.47V120.319ZM133.441 118.438C132.689 117.985 132.914 117.31 131.937 116.555C131.86 116.484 131.937 116.33 131.937 116.182C131.937 115.957 131.635 115.957 131.487 115.957V116.259C131.487 117.384 132.766 118.364 133.293 119.419C133.669 119.567 133.293 119.946 134.046 119.946C134.046 119.419 133.595 118.963 133.441 118.438ZM136.453 104.816C136.08 104.816 134.724 105.34 134.422 105.642C132.387 106.246 130.433 109.104 130.433 111.212C130.433 112.791 131.108 114.298 131.336 115.88C132.014 116.934 132.387 117.985 133.441 118.815H133.595C133.216 117.31 132.091 115.957 132.091 114.375C131.635 113.848 131.185 113.022 131.185 112.341C131.185 111.061 131.789 109.856 132.316 108.802C133.216 108.127 133.216 107.149 134.046 106.471L134.872 106.323C135.399 105.796 136.453 105.34 136.755 104.816H136.453ZM145.412 108.503C145.187 108.503 144.959 108.352 144.959 108.05C143.303 106.323 142.021 104.742 139.388 104.742C137.434 104.742 136.003 106.021 134.271 106.696C132.914 108.127 131.635 110.01 131.635 112.116C131.635 113.093 131.937 113.999 132.464 114.748C132.689 116.33 133.821 117.686 133.895 119.265C134.197 119.49 135.476 120.997 135.701 121.373C136.453 122.804 136.53 122.425 137.807 123.482C139.388 124.835 138.861 127.32 140.895 129.052C141.725 130.859 143.303 132.662 143.303 134.697C143.303 135.147 143.152 135.526 143.152 135.976C143.152 136.806 143.454 137.632 143.454 138.461C143.454 138.911 143.377 139.361 143.152 139.663C140.217 141.47 139.613 142.222 135.855 142.222C132.091 142.222 131.41 139.059 128.925 137.256V137.105C128.925 136.877 129.227 136.652 129.227 136.349C129.227 136.201 129.079 136.053 128.925 136.053L129.079 135.822C129.905 136.349 130.359 137.256 131.108 137.934H131.635C132.618 140.191 133.518 141.47 136.305 141.47C137.508 141.47 138.636 141.168 139.69 140.641C141.423 139.888 140.744 138.834 141.423 137.481V136.954C141.648 132.888 135.322 123.707 132.316 120.698C131.937 119.721 130.883 119.04 130.735 117.985C130.207 117.082 129.905 116.555 129.905 115.43C129.905 113.848 129.529 112.193 129.529 110.537C130.056 109.631 130.133 108.503 130.883 107.75C133.293 105.417 135.322 103.912 138.938 103.912C140.895 103.912 145.785 105.417 145.785 108.127C145.785 108.278 145.56 108.503 145.412 108.503Z" fill="#FFF"/>
<path d="M142.625 138.686C141.044 139.284 141.044 140.567 139.915 141.396L140.217 141.544C140.818 140.943 142.779 140.114 142.779 139.213C142.779 139.059 142.702 138.834 142.625 138.686ZM142.175 135.526C142.323 135.372 142.4 135.147 142.4 134.922C142.4 134.469 142.175 134.019 142.175 133.492C141.121 131.46 140.519 129.123 139.163 127.169C138.26 126.944 138.861 126.189 138.186 125.892C137.884 124.61 137.131 123.633 136.151 122.881C135.926 122.354 135.174 121.074 134.647 120.846V121.222C135.097 121.524 135.251 121.974 135.476 122.354C137.434 125.513 139.69 128.599 140.895 132.135C141.269 133.492 142.021 135.147 142.021 136.58C142.021 137.179 141.95 137.706 141.648 138.233C141.648 138.384 141.796 138.532 141.95 138.461C142.323 138.008 142.4 137.481 142.4 136.877C142.4 136.426 142.323 135.976 142.175 135.526ZM134.271 120.319L134.12 120.396L134.271 120.47V120.319ZM133.441 118.438C132.689 117.985 132.914 117.31 131.937 116.555C131.86 116.484 131.937 116.33 131.937 116.182C131.937 115.957 131.635 115.957 131.487 115.957V116.259C131.487 117.384 132.766 118.364 133.293 119.419C133.669 119.567 133.293 119.946 134.046 119.946C134.046 119.419 133.595 118.963 133.441 118.438ZM136.453 104.816C136.08 104.816 134.724 105.34 134.422 105.642C132.387 106.246 130.433 109.104 130.433 111.212C130.433 112.791 131.108 114.298 131.336 115.88C132.014 116.934 132.387 117.985 133.441 118.815H133.595C133.216 117.31 132.091 115.957 132.091 114.375C131.635 113.848 131.185 113.022 131.185 112.341C131.185 111.061 131.789 109.856 132.316 108.802C133.216 108.127 133.216 107.149 134.046 106.471L134.872 106.323C135.399 105.796 136.453 105.34 136.755 104.816H136.453ZM145.412 108.503C145.187 108.503 144.959 108.352 144.959 108.05C143.303 106.323 142.021 104.742 139.388 104.742C137.434 104.742 136.003 106.021 134.271 106.696C132.914 108.127 131.635 110.01 131.635 112.116C131.635 113.093 131.937 113.999 132.464 114.748C132.689 116.33 133.821 117.686 133.895 119.265C134.197 119.49 135.476 120.997 135.701 121.373C136.453 122.804 136.53 122.425 137.807 123.482C139.388 124.835 138.861 127.32 140.895 129.052C141.725 130.859 143.303 132.662 143.303 134.697C143.303 135.147 143.152 135.526 143.152 135.976C143.152 136.806 143.454 137.632 143.454 138.461C143.454 138.911 143.377 139.361 143.152 139.663C140.217 141.47 139.613 142.222 135.855 142.222C132.091 142.222 131.41 139.059 128.925 137.256V137.105C128.925 136.877 129.227 136.652 129.227 136.349C129.227 136.201 129.079 136.053 128.925 136.053L129.079 135.822C129.905 136.349 130.359 137.256 131.108 137.934H131.635C132.618 140.191 133.518 141.47 136.305 141.47C137.508 141.47 138.636 141.168 139.69 140.641C141.423 139.888 140.744 138.834 141.423 137.481V136.954C141.648 132.888 135.322 123.707 132.316 120.698C131.937 119.721 130.883 119.04 130.735 117.985C130.207 117.082 129.905 116.555 129.905 115.43C129.905 113.848 129.529 112.193 129.529 110.537C130.056 109.631 130.133 108.503 130.883 107.75C133.293 105.417 135.322 103.912 138.938 103.912C140.895 103.912 145.785 105.417 145.785 108.127C145.785 108.278 145.56 108.503 145.412 108.503Z" stroke="#FFF" stroke-width="0.29985" stroke-miterlimit="10"/>
<path d="M167.916 109.554C167.463 108.876 167.164 108.349 166.183 108.349C166.035 108.349 165.81 108.497 165.81 108.725V108.799L165.958 108.725C167.013 108.725 167.164 109.625 167.916 110.004V109.554ZM167.013 137.25C166.711 137.475 166.183 137.327 165.81 137.327C165.579 137.327 165.283 137.398 165.283 137.7C165.283 138.304 167.013 138.156 167.312 138.156C167.537 138.079 168.141 137.777 168.141 137.475C167.987 137.173 167.312 137.25 167.013 137.25ZM169.195 113.543C168.514 113.016 168.514 112.036 168.289 111.734L166.183 109.554H166.035C165.206 109.554 163.249 115.196 162.947 116.176C163.172 116.401 163.474 116.478 163.776 116.478C164.525 116.478 165.206 116.176 166.035 116.253C167.389 115.951 168.816 116.176 170.173 115.8L169.195 113.543ZM160.539 116.176C160.539 116.401 160.69 116.703 160.992 116.626H161.365C161.815 116.626 162.194 116.253 162.271 115.8C162.798 114.219 163.927 112.637 164.075 111.059C162.419 111.962 160.539 114.219 160.539 116.176ZM160.613 118.06L160.539 118.131C159.485 119.037 159.636 118.886 159.636 120.165C159.636 120.692 159.336 121.219 159.336 121.747C159.336 122.123 159.636 122.348 159.636 122.724C159.636 122.949 159.408 123.325 159.336 123.479C159.336 124.533 159.183 125.508 159.183 126.562C159.183 127.391 160.237 131.83 160.764 131.982C160.69 131.528 160.764 131.155 160.764 130.705C160.764 130.326 160.69 129.947 160.465 129.722C160.539 129.497 160.613 129.272 160.613 129.047C160.613 128.066 159.787 125.81 159.787 124.604C159.787 122.949 160.539 120.165 161.365 118.661V118.584C161.365 118.208 160.915 118.06 160.613 118.06ZM169.796 136.8C168.064 137.928 168.591 138.68 166.035 138.68C164.981 138.68 163.927 138.455 163.024 138.079C158.507 133.563 159.183 130.776 157.829 125.058L158.205 124.604C158.205 124.006 158.057 123.325 158.057 122.724C158.057 122.573 158.43 121.368 158.507 121.22C158.43 120.84 158.43 120.467 158.43 120.088C158.43 119.638 158.655 119.037 158.732 118.584C158.43 118.359 158.057 118.285 157.678 118.285C156.775 118.285 155.946 118.584 155.045 118.584C153.689 118.584 152.11 118.661 150.677 118.433V118.208C150.677 117.906 151.281 117.835 151.506 117.835C153.39 117.835 155.347 117.906 157.151 117.378V117.307C157.151 117.153 156.624 117.23 156.55 117.23C156.399 117.23 156.325 117.153 156.325 117.076C157.453 116.549 159.408 117.604 159.408 115.874C159.408 114.07 161.365 112.338 162.496 111.059C163.699 109.477 164.753 107.597 167.013 107.597H167.312C169.343 108.497 168.745 110.609 170.173 111.962C170.173 112.714 170.549 113.466 170.549 114.219C171.153 114.971 170.925 115.575 171.224 116.401C169.195 117.23 164.679 117.307 162.271 117.835C161.14 119.786 160.613 121.747 160.613 123.929C160.613 127.764 161.667 131.303 162.348 135.067C162.419 135.292 162.419 136.122 162.873 136.048H163.172C163.699 136.048 164.226 136.575 164.602 136.948C164.904 136.948 165.283 137.025 165.579 137.025C167.087 137.025 170.099 136.421 170.925 134.99C172.278 132.734 173.107 131.155 173.107 128.52C173.107 127.995 172.959 124.907 173.483 124.907C173.86 124.907 174.011 126.26 174.011 126.485C174.011 130.474 173.258 134.463 169.796 136.8Z" fill="#FFF"/>
<path d="M167.916 109.554C167.463 108.876 167.164 108.349 166.183 108.349C166.035 108.349 165.81 108.497 165.81 108.725V108.799L165.958 108.725C167.013 108.725 167.164 109.625 167.916 110.004V109.554ZM167.013 137.25C166.711 137.475 166.183 137.327 165.81 137.327C165.579 137.327 165.283 137.398 165.283 137.7C165.283 138.304 167.013 138.156 167.312 138.156C167.537 138.079 168.141 137.777 168.141 137.475C167.987 137.173 167.312 137.25 167.013 137.25ZM169.195 113.543C168.514 113.016 168.514 112.036 168.289 111.734L166.183 109.554H166.035C165.206 109.554 163.249 115.196 162.947 116.176C163.172 116.401 163.474 116.478 163.776 116.478C164.525 116.478 165.206 116.176 166.035 116.253C167.389 115.951 168.816 116.176 170.173 115.8L169.195 113.543ZM160.539 116.176C160.539 116.401 160.69 116.703 160.992 116.626H161.365C161.815 116.626 162.194 116.253 162.271 115.8C162.798 114.219 163.927 112.637 164.075 111.059C162.419 111.962 160.539 114.219 160.539 116.176ZM160.613 118.06L160.539 118.131C159.485 119.037 159.636 118.886 159.636 120.165C159.636 120.692 159.336 121.22 159.336 121.747C159.336 122.123 159.636 122.348 159.636 122.724C159.636 122.949 159.408 123.325 159.336 123.479C159.336 124.533 159.183 125.508 159.183 126.562C159.183 127.391 160.237 131.83 160.764 131.982C160.69 131.528 160.764 131.155 160.764 130.705C160.764 130.326 160.69 129.947 160.465 129.722C160.539 129.497 160.613 129.272 160.613 129.047C160.613 128.066 159.787 125.81 159.787 124.604C159.787 122.949 160.539 120.165 161.365 118.661V118.584C161.365 118.208 160.915 118.06 160.613 118.06ZM169.796 136.8C168.064 137.928 168.591 138.68 166.035 138.68C164.981 138.68 163.927 138.455 163.024 138.079C158.507 133.563 159.183 130.776 157.829 125.058L158.205 124.604C158.205 124.006 158.057 123.325 158.057 122.724C158.057 122.573 158.43 121.368 158.507 121.22C158.43 120.84 158.43 120.467 158.43 120.088C158.43 119.638 158.655 119.037 158.732 118.584C158.43 118.359 158.057 118.285 157.678 118.285C156.775 118.285 155.946 118.584 155.045 118.584C153.689 118.584 152.11 118.661 150.677 118.433V118.208C150.677 117.906 151.281 117.835 151.506 117.835C153.39 117.835 155.347 117.906 157.151 117.378V117.307C157.151 117.153 156.624 117.23 156.55 117.23C156.399 117.23 156.325 117.153 156.325 117.076C157.453 116.549 159.408 117.604 159.408 115.874C159.408 114.07 161.365 112.338 162.496 111.059C163.699 109.477 164.753 107.597 167.013 107.597H167.312C169.343 108.497 168.745 110.609 170.173 111.962C170.173 112.714 170.549 113.466 170.549 114.219C171.153 114.971 170.925 115.575 171.224 116.401C169.195 117.23 164.679 117.307 162.271 117.835C161.14 119.786 160.613 121.747 160.613 123.929C160.613 127.764 161.667 131.303 162.348 135.067C162.419 135.292 162.419 136.122 162.873 136.048H163.172C163.699 136.048 164.226 136.575 164.602 136.948C164.904 136.948 165.283 137.025 165.579 137.025C167.087 137.025 170.099 136.421 170.925 134.99C172.278 132.734 173.107 131.155 173.107 128.52C173.107 127.995 172.959 124.907 173.483 124.907C173.86 124.907 174.011 126.26 174.011 126.485C174.011 130.474 173.258 134.463 169.796 136.8Z" stroke="#FFF" stroke-width="0.29985" stroke-miterlimit="10"/>
<path d="M198.404 109.554C197.951 108.876 197.649 108.349 196.672 108.349C196.524 108.349 196.299 108.497 196.299 108.725V108.799L196.447 108.725C197.501 108.725 197.649 109.625 198.404 110.004V109.554ZM197.501 137.25C197.199 137.475 196.672 137.327 196.299 137.327C196.068 137.327 195.771 137.398 195.771 137.7C195.771 138.304 197.501 138.156 197.8 138.156C198.025 138.079 198.629 137.777 198.629 137.475C198.475 137.173 197.8 137.25 197.501 137.25ZM199.684 113.543C199.002 113.016 199.002 112.036 198.777 111.734L196.672 109.554H196.524C195.694 109.554 193.737 115.196 193.435 116.176C193.66 116.401 193.962 116.478 194.264 116.478C195.013 116.478 195.694 116.176 196.524 116.253C197.877 115.951 199.304 116.176 200.661 115.8L199.684 113.543ZM191.027 116.176C191.027 116.401 191.178 116.703 191.48 116.626H191.853C192.304 116.626 192.683 116.253 192.76 115.8C193.287 114.219 194.415 112.637 194.563 111.059C192.908 111.962 191.027 114.219 191.027 116.176ZM191.101 118.06L191.027 118.131C189.973 119.037 190.124 118.886 190.124 120.165C190.124 120.692 189.825 121.219 189.825 121.747C189.825 122.123 190.124 122.348 190.124 122.724C190.124 122.949 189.896 123.325 189.825 123.479C189.825 124.533 189.671 125.508 189.671 126.562C189.671 127.391 190.725 131.83 191.252 131.982C191.178 131.528 191.252 131.155 191.252 130.705C191.252 130.326 191.178 129.947 190.953 129.722C191.027 129.497 191.101 129.272 191.101 129.047C191.101 128.066 190.275 125.81 190.275 124.604C190.275 122.949 191.027 120.165 191.853 118.661V118.584C191.853 118.208 191.403 118.06 191.101 118.06ZM200.285 136.8C198.552 137.928 199.079 138.68 196.524 138.68C195.469 138.68 194.415 138.455 193.512 138.079C188.996 133.563 189.671 130.776 188.317 125.058L188.693 124.604C188.693 124.006 188.545 123.325 188.545 122.724C188.545 122.573 188.919 121.368 188.996 121.22C188.919 120.84 188.919 120.467 188.919 120.088C188.919 119.638 189.144 119.037 189.221 118.584C188.919 118.359 188.545 118.285 188.166 118.285C187.263 118.285 186.434 118.584 185.534 118.584C184.177 118.584 182.599 118.661 181.165 118.433V118.208C181.165 117.906 181.77 117.835 181.995 117.835C183.878 117.835 185.836 117.906 187.639 117.378V117.307C187.639 117.153 187.115 117.23 187.038 117.23C186.887 117.23 186.813 117.153 186.813 117.076C187.941 116.549 189.896 117.604 189.896 115.874C189.896 114.07 191.853 112.338 192.985 111.059C194.187 109.477 195.244 107.597 197.501 107.597H197.8C199.832 108.497 199.233 110.609 200.661 111.962C200.661 112.714 201.037 113.466 201.037 114.219C201.641 114.971 201.413 115.575 201.712 116.401C199.684 117.23 195.167 117.307 192.76 117.835C191.628 119.786 191.101 121.747 191.101 123.929C191.101 127.764 192.155 131.303 192.831 135.067C192.908 135.292 192.908 136.122 193.361 136.048H193.66C194.187 136.048 194.714 136.575 195.09 136.948C195.392 136.948 195.771 137.025 196.068 137.025C197.575 137.025 200.587 136.421 201.413 134.99C202.766 132.734 203.596 131.155 203.596 128.52C203.596 127.995 203.448 124.907 203.972 124.907C204.348 124.907 204.499 126.26 204.499 126.485C204.499 130.474 203.747 134.463 200.285 136.8Z" fill="#FFF"/>
<path d="M198.404 109.554C197.951 108.876 197.649 108.349 196.672 108.349C196.524 108.349 196.299 108.497 196.299 108.725V108.799L196.447 108.725C197.501 108.725 197.649 109.625 198.404 110.004V109.554ZM197.501 137.25C197.199 137.475 196.672 137.327 196.299 137.327C196.068 137.327 195.771 137.398 195.771 137.7C195.771 138.304 197.501 138.156 197.8 138.156C198.025 138.079 198.629 137.777 198.629 137.475C198.475 137.173 197.8 137.25 197.501 137.25ZM199.684 113.543C199.002 113.016 199.002 112.036 198.777 111.734L196.672 109.554H196.524C195.694 109.554 193.737 115.196 193.435 116.176C193.66 116.401 193.962 116.478 194.264 116.478C195.013 116.478 195.694 116.176 196.524 116.253C197.877 115.951 199.304 116.176 200.661 115.8L199.684 113.543ZM191.027 116.176C191.027 116.401 191.178 116.703 191.48 116.626H191.853C192.304 116.626 192.683 116.253 192.76 115.8C193.287 114.219 194.415 112.637 194.563 111.059C192.908 111.962 191.027 114.219 191.027 116.176ZM191.101 118.06L191.027 118.131C189.973 119.037 190.124 118.886 190.124 120.165C190.124 120.692 189.825 121.22 189.825 121.747C189.825 122.123 190.124 122.348 190.124 122.724C190.124 122.949 189.896 123.325 189.825 123.479C189.825 124.533 189.671 125.508 189.671 126.562C189.671 127.391 190.725 131.83 191.252 131.982C191.178 131.528 191.252 131.155 191.252 130.705C191.252 130.326 191.178 129.947 190.953 129.722C191.027 129.497 191.101 129.272 191.101 129.047C191.101 128.066 190.275 125.81 190.275 124.604C190.275 122.949 191.027 120.165 191.853 118.661V118.584C191.853 118.208 191.403 118.06 191.101 118.06ZM200.285 136.8C198.552 137.928 199.079 138.68 196.524 138.68C195.469 138.68 194.415 138.455 193.512 138.079C188.996 133.563 189.671 130.776 188.317 125.058L188.693 124.604C188.693 124.006 188.545 123.325 188.545 122.724C188.545 122.573 188.919 121.368 188.996 121.22C188.919 120.84 188.919 120.467 188.919 120.088C188.919 119.638 189.144 119.037 189.221 118.584C188.919 118.359 188.545 118.285 188.166 118.285C187.263 118.285 186.434 118.584 185.534 118.584C184.177 118.584 182.599 118.661 181.165 118.433V118.208C181.165 117.906 181.77 117.835 181.995 117.835C183.878 117.835 185.836 117.906 187.639 117.378V117.307C187.639 117.153 187.115 117.23 187.038 117.23C186.887 117.23 186.813 117.153 186.813 117.076C187.941 116.549 189.896 117.604 189.896 115.874C189.896 114.07 191.853 112.338 192.985 111.059C194.187 109.477 195.244 107.597 197.501 107.597H197.8C199.832 108.497 199.233 110.609 200.661 111.962C200.661 112.714 201.037 113.466 201.037 114.219C201.641 114.971 201.413 115.575 201.712 116.401C199.684 117.23 195.167 117.307 192.76 117.835C191.628 119.786 191.101 121.747 191.101 123.929C191.101 127.764 192.155 131.303 192.831 135.067C192.908 135.292 192.908 136.122 193.361 136.048H193.66C194.187 136.048 194.714 136.575 195.09 136.948C195.392 136.948 195.771 137.025 196.068 137.025C197.575 137.025 200.587 136.421 201.413 134.99C202.766 132.734 203.596 131.155 203.596 128.52C203.596 127.995 203.448 124.907 203.972 124.907C204.348 124.907 204.499 126.26 204.499 126.485C204.499 130.474 203.747 134.463 200.285 136.8Z" stroke="#FFF" stroke-width="0.29985" stroke-miterlimit="10"/>
<path d="M235.764 121.978L235.539 122.357C235.539 122.505 235.61 122.656 235.764 122.73C235.838 122.656 235.912 122.505 235.912 122.428C235.912 122.28 235.838 122.132 235.764 121.978ZM234.407 133.418C234.256 133.794 234.182 134.173 234.182 134.546C234.182 135.15 234.256 137.706 234.633 137.937C234.861 137.481 234.935 136.957 234.935 136.504C234.935 135.902 234.935 133.495 234.407 133.418ZM234.182 114.15C234.182 114.378 234.031 114.675 234.031 114.906C234.031 115.054 234.182 115.279 234.256 115.279C234.559 115.279 234.784 114.603 234.935 114.378C234.935 114.076 234.333 114.15 234.182 114.15ZM234.407 118.516C234.407 118.065 234.784 117.612 234.784 117.159V117.011C234.559 116.709 234.71 115.729 234.407 115.729C234.256 115.729 233.954 115.957 233.883 116.031C233.806 117.461 233.806 118.966 233.806 120.396V122.955C233.806 125.593 233.658 128.599 234.031 131.161C234.108 131.534 234.108 132.061 234.559 132.061C234.935 130.557 234.861 128.83 234.861 127.32C234.861 125.214 234.559 123.183 234.559 121.077C234.559 120.473 234.633 119.795 234.935 119.268C234.633 119.12 234.407 118.895 234.407 118.516ZM232.527 114.526C231.097 114.977 229.74 115.581 228.461 116.41L228.686 116.484C229.213 115.957 231.775 115.504 232.527 115.504C233.054 115.504 233.279 115.279 233.279 114.752C233.279 114.449 232.752 114.526 232.527 114.526ZM233.054 119.647C233.504 118.516 232.977 117.384 233.279 116.259L233.054 115.883H232.604C230.794 115.729 229.367 117.085 227.558 117.159C227.107 117.686 226.355 117.612 225.828 118.136C222.97 118.966 220.409 121.148 218.226 123.109C216.87 124.311 216.342 126.719 216.419 128.451C216.194 128.83 216.117 129.281 216.117 129.654C216.117 133.418 220.56 134.623 223.568 134.623C226.201 134.623 230.871 133.646 233.131 132.44C233.131 131.99 233.202 131.534 233.427 131.161C232.9 127.397 233.202 123.408 233.054 119.647ZM218.827 134.173C217.249 133.945 215.969 132.44 215.59 130.936C215.516 130.557 215.744 130.332 215.744 129.956C215.744 129.805 215.667 129.731 215.59 129.58C214.539 130.033 214.237 131.238 214.012 132.292C215.14 134.623 218.226 135.529 220.634 135.825C221.087 135.529 222.212 136.053 222.443 135.452C221.386 134.623 219.881 134.996 218.827 134.173ZM214.539 128.83C214.16 129.204 213.337 129.654 213.337 130.258C213.337 130.332 213.337 130.483 213.408 130.557L213.787 130.409C213.861 129.882 214.539 129.429 214.539 128.901V128.83ZM239.528 131.463C238.397 131.534 237.419 132.215 236.368 132.666C235.912 134.398 236.066 136.279 236.066 138.085C236.066 138.612 236.066 139.139 235.989 139.666H235.838C235.462 139.589 235.012 140.117 234.633 140.117C234.484 140.117 234.333 140.043 234.182 139.892C233.658 138.085 233.504 136.053 233.504 134.173L233.279 133.646C231.097 134.321 228.988 135.298 226.734 135.298C225.526 135.754 222.443 135.979 221.087 135.979C217.172 135.979 217.548 135.073 214.388 133.945C214.16 133.72 214.012 133.871 213.787 133.945C212.88 131.913 212.578 132.44 212.578 130.033C212.578 129.731 212.578 129.429 212.732 129.204C213.485 128.599 213.861 124.61 214.764 124.462C221.01 117.84 224.623 115.806 233.279 113.398L233.504 112.871V110.312C233.581 110.386 233.581 110.46 233.581 110.46C233.658 110.46 233.729 110.386 233.729 110.312C233.883 109.634 233.883 108.805 233.883 108.053L233.954 107.226C233.954 106.249 233.279 105.947 233.279 104.141C233.279 102.935 233.581 101.656 233.581 100.376C233.581 99.8493 233.427 99.3992 233.356 98.798C232.9 96.2363 232.977 93.4525 232.977 90.8908C232.977 88.4121 233.054 85.8504 233.131 83.3657C232.977 83.2917 233.131 81.0321 233.131 80.6589C233.131 80.2058 233.131 78.7784 233.279 79.3026C233.054 78.2512 232.977 77.1199 232.829 76.0656C232.9 75.9146 232.9 75.8406 232.9 75.7665C232.9 75.4645 232.829 75.2394 232.829 75.0143L232.977 74.6353H233.202C234.407 74.6353 234.559 79.3766 234.559 80.5049C234.559 81.9383 234.182 83.2917 234.182 84.7191C234.182 87.2038 234.333 89.6144 234.333 92.0221C234.333 92.9994 234.333 94.3528 234.861 95.259C235.462 94.88 235.16 94.1277 235.16 93.5266C235.16 89.3894 235.462 85.2462 235.385 81.0321H235.61L235.764 81.2571C235.912 81.9383 235.838 82.8386 235.838 83.5167C235.838 89.1643 235.311 94.7319 235.311 100.376C235.311 100.453 235.385 100.827 235.311 100.904C235.237 100.453 234.861 96.9145 234.71 96.8375C234.633 97.0655 234.633 97.3646 234.633 97.5897C234.633 99.3992 234.71 101.206 234.784 103.012C234.784 105.041 235.012 107.377 235.539 109.409C235.539 109.486 235.687 109.785 235.764 109.785C235.912 109.409 235.912 108.959 235.912 108.58C235.989 109.107 236.066 109.711 236.291 110.235C236.214 110.087 236.214 109.56 236.066 109.409C235.912 109.859 235.912 110.839 235.912 111.29C235.912 111.817 235.764 112.72 236.368 112.871H236.741C236.966 112.871 237.268 112.948 237.493 113.022C237.493 113.774 236.439 113.321 235.989 113.774C235.989 116.709 236.664 119.57 236.664 122.505C236.664 123.334 236.593 124.16 236.593 124.989C236.593 126.87 236.818 128.978 236.516 130.782C236.741 131.084 236.966 131.238 237.268 131.238C237.869 131.238 238.323 130.936 238.847 130.936C239.072 130.782 239.374 130.711 239.676 130.711C239.83 130.711 240.055 130.782 240.28 130.782V131.007C240.28 131.309 239.753 131.386 239.528 131.463Z" fill="#FFF"/>
<path d="M235.764 121.978L235.539 122.357C235.539 122.505 235.61 122.656 235.764 122.73C235.838 122.656 235.912 122.505 235.912 122.428C235.912 122.28 235.838 122.132 235.764 121.978ZM234.407 133.418C234.256 133.794 234.182 134.173 234.182 134.546C234.182 135.15 234.256 137.706 234.633 137.937C234.861 137.481 234.935 136.957 234.935 136.504C234.935 135.902 234.935 133.495 234.407 133.418ZM234.182 114.15C234.182 114.378 234.031 114.675 234.031 114.906C234.031 115.054 234.182 115.279 234.256 115.279C234.559 115.279 234.784 114.603 234.935 114.378C234.935 114.076 234.333 114.15 234.182 114.15ZM234.407 118.516C234.407 118.065 234.784 117.612 234.784 117.159V117.011C234.559 116.709 234.71 115.729 234.407 115.729C234.256 115.729 233.954 115.957 233.883 116.031C233.806 117.461 233.806 118.966 233.806 120.396V122.955C233.806 125.593 233.658 128.599 234.031 131.161C234.108 131.534 234.108 132.061 234.559 132.061C234.935 130.557 234.861 128.83 234.861 127.32C234.861 125.214 234.559 123.183 234.559 121.077C234.559 120.473 234.633 119.795 234.935 119.268C234.633 119.12 234.407 118.895 234.407 118.516ZM232.527 114.526C231.097 114.977 229.74 115.581 228.461 116.41L228.686 116.484C229.213 115.957 231.775 115.504 232.527 115.504C233.054 115.504 233.279 115.279 233.279 114.752C233.279 114.449 232.752 114.526 232.527 114.526ZM233.054 119.647C233.504 118.516 232.977 117.384 233.279 116.259L233.054 115.883H232.604C230.794 115.729 229.367 117.085 227.558 117.159C227.107 117.686 226.355 117.612 225.828 118.136C222.97 118.966 220.409 121.148 218.226 123.109C216.87 124.311 216.342 126.719 216.419 128.451C216.194 128.83 216.117 129.281 216.117 129.654C216.117 133.418 220.56 134.623 223.568 134.623C226.201 134.623 230.871 133.646 233.131 132.44C233.131 131.99 233.202 131.534 233.427 131.161C232.9 127.397 233.202 123.408 233.054 119.647ZM218.827 134.173C217.249 133.945 215.969 132.44 215.59 130.936C215.516 130.557 215.744 130.332 215.744 129.956C215.744 129.805 215.667 129.731 215.59 129.58C214.539 130.033 214.237 131.238 214.012 132.292C215.14 134.623 218.226 135.529 220.634 135.825C221.087 135.529 222.212 136.053 222.443 135.452C221.386 134.623 219.881 134.996 218.827 134.173ZM214.539 128.83C214.16 129.204 213.337 129.654 213.337 130.258C213.337 130.332 213.337 130.483 213.408 130.557L213.787 130.409C213.861 129.882 214.539 129.429 214.539 128.901V128.83ZM239.528 131.463C238.397 131.534 237.419 132.215 236.368 132.666C235.912 134.398 236.066 136.279 236.066 138.085C236.066 138.612 236.066 139.139 235.989 139.666H235.838C235.462 139.589 235.012 140.117 234.633 140.117C234.484 140.117 234.333 140.043 234.182 139.892C233.658 138.085 233.504 136.053 233.504 134.173L233.279 133.646C231.097 134.321 228.988 135.298 226.734 135.298C225.526 135.754 222.443 135.979 221.087 135.979C217.172 135.979 217.548 135.073 214.388 133.945C214.16 133.72 214.012 133.871 213.787 133.945C212.88 131.913 212.578 132.44 212.578 130.033C212.578 129.731 212.578 129.429 212.732 129.204C213.485 128.599 213.861 124.61 214.764 124.462C221.01 117.84 224.623 115.806 233.279 113.398L233.504 112.871V110.312C233.581 110.386 233.581 110.46 233.581 110.46C233.658 110.46 233.729 110.386 233.729 110.312C233.883 109.634 233.883 108.805 233.883 108.053L233.954 107.226C233.954 106.249 233.279 105.947 233.279 104.141C233.279 102.935 233.581 101.656 233.581 100.376C233.581 99.8493 233.427 99.3992 233.356 98.798C232.9 96.2363 232.977 93.4525 232.977 90.8908C232.977 88.4121 233.054 85.8504 233.131 83.3657C232.977 83.2917 233.131 81.0321 233.131 80.6589C233.131 80.2058 233.131 78.7784 233.279 79.3026C233.054 78.2512 232.977 77.1199 232.829 76.0656C232.9 75.9146 232.9 75.8406 232.9 75.7665C232.9 75.4645 232.829 75.2394 232.829 75.0143L232.977 74.6353H233.202C234.407 74.6353 234.559 79.3766 234.559 80.5049C234.559 81.9383 234.182 83.2917 234.182 84.7191C234.182 87.2038 234.333 89.6144 234.333 92.0221C234.333 92.9994 234.333 94.3528 234.861 95.259C235.462 94.88 235.16 94.1277 235.16 93.5266C235.16 89.3894 235.462 85.2462 235.385 81.0321H235.61L235.764 81.2571C235.912 81.9383 235.838 82.8386 235.838 83.5167C235.838 89.1643 235.311 94.7319 235.311 100.376C235.311 100.453 235.385 100.827 235.311 100.904C235.237 100.453 234.861 96.9145 234.71 96.8375C234.633 97.0655 234.633 97.3646 234.633 97.5897C234.633 99.3992 234.71 101.206 234.784 103.012C234.784 105.041 235.012 107.377 235.539 109.409C235.539 109.486 235.687 109.785 235.764 109.785C235.912 109.409 235.912 108.959 235.912 108.58C235.989 109.107 236.066 109.711 236.291 110.235C236.214 110.087 236.214 109.56 236.066 109.409C235.912 109.859 235.912 110.839 235.912 111.29C235.912 111.817 235.764 112.72 236.368 112.871H236.741C236.966 112.871 237.268 112.948 237.493 113.022C237.493 113.774 236.439 113.321 235.989 113.774C235.989 116.709 236.664 119.57 236.664 122.505C236.664 123.334 236.593 124.16 236.593 124.989C236.593 126.87 236.818 128.978 236.516 130.782C236.741 131.084 236.966 131.238 237.268 131.238C237.869 131.238 238.323 130.936 238.847 130.936C239.072 130.782 239.374 130.711 239.676 130.711C239.83 130.711 240.055 130.782 240.28 130.782V131.007C240.28 131.309 239.753 131.386 239.528 131.463Z" stroke="#FFF" stroke-width="0.29985" stroke-miterlimit="10"/>
</svg>
