<svg width="640" height="366" viewBox="0 0 640 366" fill="none" xmlns="http://www.w3.org/2000/svg">
<path d="M108.36 167.561C105.199 168.767 105.199 171.323 102.94 172.981L103.545 173.286C104.75 172.08 108.665 170.425 108.665 168.615C108.665 168.318 108.512 167.866 108.36 167.561ZM107.459 161.24C107.755 160.943 107.911 160.487 107.911 160.034C107.911 159.133 107.459 158.235 107.459 157.181C105.351 153.112 104.146 148.448 101.437 144.531C99.6266 144.082 100.832 142.576 99.482 141.975C98.8772 139.415 97.3747 137.456 95.4119 135.95C94.963 134.896 93.4567 132.34 92.4068 131.892V132.637C93.3045 133.242 93.6126 134.151 94.0615 134.896C97.9795 141.218 102.491 147.395 104.903 154.47C105.652 157.181 107.154 160.487 107.154 163.347C107.154 164.553 107.01 165.606 106.405 166.66C106.405 166.957 106.702 167.265 107.01 167.113C107.755 166.211 107.911 165.158 107.911 163.952C107.911 163.05 107.755 162.141 107.459 161.24ZM91.6498 130.838L91.3531 130.99L91.6498 131.135V130.838ZM89.9913 127.073C88.4888 126.171 88.9377 124.813 86.9863 123.311C86.8303 123.159 86.9863 122.858 86.9863 122.554C86.9863 122.105 86.3815 122.105 86.0848 122.105V122.706C86.0848 124.965 88.641 126.92 89.6946 129.028C90.4516 129.332 89.6946 130.081 91.1972 130.081C91.1972 129.028 90.2995 128.126 89.9913 127.073ZM96.0167 99.8315C95.2673 99.8315 92.559 100.881 91.9541 101.486C87.884 102.684 83.9774 108.408 83.9774 112.623C83.9774 115.784 85.3278 118.792 85.7804 121.953C87.1384 124.06 87.884 126.171 89.9913 127.822H90.2995C89.5425 124.813 87.2906 122.105 87.2906 118.944C86.3815 117.891 85.4799 116.232 85.4799 114.882C85.4799 112.319 86.6858 109.915 87.7394 107.808C89.5425 106.45 89.5425 104.495 91.1972 103.144L92.8557 102.836C93.9093 101.783 96.0167 100.881 96.6177 99.8315H96.0167ZM113.933 107.203C113.484 107.203 113.024 106.906 113.024 106.301C109.718 102.836 107.154 99.6755 101.886 99.6755C97.9795 99.6755 95.1152 102.235 91.6498 103.593C88.9377 106.45 86.3815 110.211 86.3815 114.426C86.3815 116.388 86.9863 118.187 88.0399 119.701C88.4888 122.858 90.7483 125.57 90.9005 128.731C91.5053 129.18 94.0615 132.188 94.5103 132.945C96.0167 135.805 96.1688 135.049 98.725 137.156C101.886 139.868 100.832 144.835 104.903 148.296C106.557 151.906 109.718 155.523 109.718 159.585C109.718 160.487 109.414 161.24 109.414 162.141C109.414 163.8 110.019 165.454 110.019 167.113C110.019 168.01 109.863 168.919 109.414 169.524C103.545 173.134 102.339 174.636 94.8185 174.636C87.2906 174.636 85.9326 168.318 80.9609 164.705V164.401C80.9609 163.952 81.5658 163.499 81.5658 162.898C81.5658 162.59 81.2652 162.293 80.9609 162.293L81.2652 161.845C82.9237 162.898 83.8253 164.705 85.3278 166.059H86.3815C88.3443 170.578 90.1435 173.134 95.72 173.134C98.124 173.134 100.384 172.533 102.491 171.479C105.956 169.973 104.598 167.866 105.956 165.158V164.104C106.405 155.972 93.7572 137.608 87.7394 131.584C86.9863 129.632 84.8789 128.278 84.5784 126.171C83.5248 124.364 82.9237 123.311 82.9237 121.052C82.9237 117.891 82.1668 114.578 82.1668 111.265C83.2204 109.462 83.3726 107.203 84.8789 105.7C89.6946 101.037 93.7572 98.021 100.985 98.021C104.903 98.021 114.682 101.037 114.682 106.45C114.682 106.754 114.23 107.203 113.933 107.203Z" fill="#FFF"/>
<path d="M160.036 160.635C157.929 162.294 155.072 163.191 153.417 165.451H154.615C156.723 163.796 159.431 163.343 160.793 160.94L160.036 160.635ZM142.127 164.85C137.913 153.108 137.608 134.752 136.402 122.102C135.95 117.887 135.653 113.224 134.295 109.154C133.995 107.956 133.69 106.302 133.097 105.096C132.637 105.545 132.789 106.302 132.637 106.903C133.842 119.842 133.69 132.942 134.744 146.034C134.896 147.544 134.599 146.034 134.599 147.688C134.599 148.894 135.2 149.499 135.2 150.704C135.2 151.001 135.349 151.309 135.653 151.454C136.102 154.017 138.966 165.451 141.975 165.451C142.272 165.451 142.272 165.299 142.272 165.002L142.127 164.85ZM170.58 154.466C169.527 157.927 165.905 159.734 164.555 162.895C164.707 164.85 164.707 166.656 164.707 168.611C164.707 172.225 164.555 175.842 164.106 179.604C163.798 182.316 164.555 186.827 161.538 188.329C160.945 187.58 160.641 186.674 160.641 185.773C160.485 179.155 160.793 172.377 160.793 165.607H160.34C158.838 165.607 155.072 168.611 150.401 168.611C147.396 168.611 144.379 167.866 141.37 167.406C139.868 165.607 137.608 165.903 136.254 163.652C133.394 159.133 133.995 151.902 132.941 146.787C133.241 146.49 133.241 146.338 133.241 146.034C133.241 145.436 133.097 144.98 132.941 144.527C132.043 143.322 132.492 141.819 132.188 140.469C132.492 140.317 132.492 140.161 132.492 139.864C132.492 139.415 132.188 138.963 132.188 138.506L132.492 137.757C132.043 133.543 131.583 118.941 130.529 116.385C131.583 116.081 130.834 114.726 131.583 114.278C131.286 113.072 130.99 111.722 130.99 110.36C130.99 109.607 131.134 108.858 131.286 108.101C131.286 107.355 130.834 106.598 130.834 105.697C130.834 104.788 131.438 103.285 132.637 103.285C141.975 103.285 137.156 160.031 146.943 165.903C152.211 165.451 156.126 161.392 160.641 158.977L161.09 157.927C161.09 154.314 160.945 150.704 160.34 147.239C160.641 146.49 160.641 145.889 160.641 145.132C160.641 141.819 159.739 138.506 159.739 135.049C159.739 127.674 161.538 118.941 161.242 112.315C161.847 110.36 161.538 108.253 161.538 106.302C161.538 105.393 161.538 104.491 161.999 103.59H163.646C163.501 104.339 164.403 104.194 164.403 104.788C164.403 111.261 163.646 117.735 163.646 124.361C163.646 126.62 163.798 128.872 163.798 131.283C163.798 137.308 165.16 143.322 165.16 149.499C165.16 151.153 165.304 152.811 165.609 154.466C169.371 153.412 169.066 147.688 172.984 147.688C173.281 147.996 173.433 148.445 173.433 148.742C173.433 150.849 170.272 152.659 170.58 154.466Z" fill="#FFF"/>
<path d="M221.43 147.688V148.445C226.554 145.733 230.765 144.98 232.72 138.658C228.505 141.214 225.348 144.831 221.43 147.688ZM205.477 225.809V225.06C205.477 223.557 204.575 222.2 204.575 220.693C204.575 220.244 204.72 219.792 204.872 219.335C204.872 219.039 204.575 218.738 204.267 218.738H203.97V224.151C203.97 228.673 204.122 233.036 204.72 237.402H205.176C205.925 233.937 205.477 230.48 205.925 227.015L205.477 225.809ZM223.842 111.718C217.668 111.718 211.498 113.368 205.176 113.673C204.72 113.825 203.818 114.125 203.818 114.726C203.818 117.438 204.122 120.146 204.122 122.855C204.122 132.942 203.213 142.873 203.369 152.811V154.763L203.521 155.215L204.423 155.367C207.888 155.367 213.453 150.252 215.561 150.252C222.933 145.284 239.346 134.444 239.346 124.657C239.346 114.574 232.872 111.718 223.842 111.718ZM202.612 199.618L202.316 200.07C202.468 200.223 202.468 200.223 202.612 200.223C202.612 200.223 202.764 200.223 202.917 200.07C202.764 200.07 202.612 199.77 202.612 199.618ZM202.316 196.609V198.42H202.612V197.511C202.612 197.366 202.468 196.765 202.316 196.609ZM201.711 167.109H201.559V167.558H201.863C201.711 167.406 201.711 167.109 201.711 167.109ZM201.414 187.876C201.559 188.633 201.414 190.139 202.16 190.436L202.316 189.983C202.007 189.086 202.612 188.184 201.414 187.876ZM201.559 194.658H201.11L201.559 194.955V194.658ZM200.809 186.374L200.657 186.526C200.657 186.374 200.657 185.925 200.809 185.925C200.954 185.925 200.954 186.222 200.954 186.374H200.809ZM199.9 137.909H200.208V138.362L199.9 137.909ZM199.9 134.147H200.056L200.208 135.345L199.9 134.147ZM199.451 126.917C199.451 126.468 199.155 126.015 199.155 125.566C199.155 125.414 199.307 125.118 199.307 124.962C199.451 125.262 199.603 125.711 199.603 126.167C199.603 126.316 199.451 126.62 199.451 126.917ZM199.155 123.459C199.002 123.155 199.002 122.855 199.002 122.55C199.002 122.101 199.155 121.497 199.451 121.2L199.155 123.459ZM199.451 120.896L199.002 119.39H199.451L199.603 120.595L199.451 120.896ZM234.675 139.107C232.568 143.778 227.452 148.445 222.484 149.947C221.133 150.396 220.224 151.758 218.722 151.45C216.466 153.557 213.001 153.709 210.741 155.972C208.482 156.718 206.835 157.923 204.267 157.771L203.521 158.68C203.521 163.191 203.97 167.558 203.97 171.924C203.97 174.788 203.521 177.496 203.521 180.208C203.521 192.848 203.97 206.091 206.23 218.586C206.835 222.044 207.131 225.665 207.131 229.274C207.131 234.089 206.682 239.205 205.176 243.876C204.872 244.93 205.024 245.679 205.024 246.732C205.024 248.09 204.575 248.992 202.917 248.84C202.917 246.885 202.764 244.777 202.764 242.67C202.764 236.044 203.213 229.426 203.213 222.648C203.213 220.994 202.612 211.512 202.917 210.907C202.316 210.009 203.069 208.956 201.863 208.199L201.559 207.594C201.559 203.832 201.711 200.223 201.711 196.457V196.16L201.559 196.765L201.414 198.42C200.505 197.819 201.11 196.91 201.11 196.16C201.11 195.712 200.657 195.251 200.36 195.107L200.657 193.901L201.559 194.198L202.16 193.901C202.316 193.296 202.612 192.695 202.612 192.091C202.612 191.946 202.316 191.189 202.16 191.189C201.414 191.189 201.414 191.642 201.559 192.243H201.262C200.954 192.243 200.505 192.091 200.36 191.946C200.36 191.49 200.809 191.189 200.809 190.74C200.809 190.588 200.505 190.292 200.36 190.139C200.505 189.839 200.505 189.535 200.505 189.238C200.505 188.633 200.36 188.032 200.36 187.427C200.657 187.732 200.809 187.732 201.262 187.732C201.711 187.732 202.007 186.826 202.007 186.374C202.007 185.925 201.863 185.472 201.559 185.024C200.657 184.719 200.36 183.818 200.36 182.916C200.505 182.764 200.505 182.764 200.657 182.764C201.11 182.764 201.414 183.061 201.711 183.061C201.863 183.061 202.007 182.764 202.16 182.764C202.16 180.954 200.36 182.312 199.9 180.954C200.36 180.802 199.9 179.9 200.36 180.052C200.809 180.208 200.809 181.258 201.262 181.258H201.559L201.863 180.505C201.414 179.748 201.262 178.694 200.36 178.246V177.344C200.056 175.389 200.657 173.282 200.657 171.319L201.414 171.475C201.711 171.319 201.863 170.871 201.863 170.574L201.559 170.266L200.809 170.574C200.505 170.422 200.657 170.114 200.657 169.969C200.657 169.665 200.505 169.52 200.36 169.52C201.11 168.162 200.36 166.352 202.16 165.603C201.863 164.701 201.414 163.796 201.414 162.895C201.414 162.29 201.711 161.689 202.16 161.388C202.007 161.084 202.007 160.787 201.863 160.787V161.689L202.16 163.948L201.559 159.43V159.129C201.711 158.832 201.262 158.528 201.11 158.528C199.756 158.68 198.55 159.129 197.199 159.129C196.29 159.129 195.541 158.977 194.94 158.68L194.788 158.376C194.788 157.771 195.389 157.474 195.689 157.022H196.595C198.101 157.022 199.451 156.269 200.809 156.421L201.414 155.664C201.414 146.49 202.16 136.855 203.069 127.522C202.316 126.167 202.764 124.657 202.764 123.155C202.764 120.443 202.007 117.59 201.559 115.023C201.414 114.726 201.11 114.574 200.809 114.574C200.505 114.574 200.208 114.878 200.208 115.175C199.451 115.628 199.756 116.834 199.9 117.59H199.603C199.002 117.13 199.307 116.385 199.307 115.628C199.307 115.175 198.846 114.726 198.398 114.726C195.541 114.726 192.977 116.537 190.124 116.537C189.519 116.537 188.915 116.385 188.161 116.229C188.466 113.825 196.743 113.521 198.846 112.771C199.756 110.512 199.307 108.253 199.307 105.993C199.307 98.7743 201.262 90.9389 200.36 83.7198C200.505 83.271 201.262 82.9629 201.863 82.9629L202.612 83.271C202.468 84.3208 202.316 85.2222 202.316 86.2758C202.316 88.383 202.612 90.6423 202.917 92.7494C203.521 93.6509 203.521 96.2145 203.521 97.4126C203.521 100.878 203.213 104.191 203.213 107.652C203.213 108.549 203.069 109.458 203.521 110.36C203.213 110.813 203.521 111.261 204.122 111.566C211.498 110.813 218.874 109.759 226.402 109.911C227.452 109.603 228.661 109.458 229.715 109.458C232.271 109.458 237.539 112.315 238.293 114.574C239.647 118.184 240.545 122.406 240.545 126.316C240.545 134.748 236.935 133.839 234.675 139.107Z" fill="#FFF"/>
<path d="M290.109 109.317C289.2 107.967 288.607 106.913 286.644 106.913C286.347 106.913 285.894 107.21 285.894 107.659V107.815L286.191 107.659C288.299 107.659 288.607 109.469 290.109 110.219V109.317ZM288.299 164.712C287.698 165.165 286.644 164.857 285.894 164.857C285.438 164.857 284.841 165.013 284.841 165.614C284.841 166.819 288.299 166.515 288.903 166.515C289.352 166.363 290.558 165.766 290.558 165.165C290.254 164.56 288.903 164.712 288.299 164.712ZM292.665 117.293C291.307 116.24 291.307 114.289 290.859 113.684L286.644 109.317H286.347C284.689 109.317 280.774 120.606 280.17 122.561C280.619 123.01 281.223 123.166 281.824 123.166C283.331 123.166 284.689 122.561 286.347 122.713C289.056 122.112 291.912 122.561 294.621 121.812L292.665 117.293ZM275.354 122.561C275.354 123.01 275.658 123.615 276.259 123.47H277.009C277.91 123.47 278.667 122.713 278.819 121.812C279.873 118.651 282.132 115.494 282.429 112.326C279.116 114.133 275.354 118.651 275.354 122.561ZM275.506 126.323L275.354 126.479C273.247 128.286 273.551 127.981 273.551 130.537C273.551 131.591 272.946 132.644 272.946 133.698C272.946 134.455 273.551 134.904 273.551 135.661C273.551 136.11 273.094 136.866 272.946 137.163C272.946 139.27 272.642 141.225 272.642 143.332C272.642 144.987 274.749 153.872 275.803 154.173C275.658 153.271 275.803 152.514 275.803 151.613C275.803 150.86 275.658 150.11 275.206 149.662C275.354 149.209 275.506 148.753 275.506 148.3C275.506 146.349 273.848 141.83 273.848 139.422C273.848 136.11 275.354 130.537 277.009 127.533V127.377C277.009 126.631 276.107 126.323 275.506 126.323ZM293.871 163.803C290.406 166.066 291.46 167.569 286.347 167.569C284.24 167.569 282.132 167.116 280.322 166.363C271.291 157.333 272.642 151.769 269.933 140.324L270.687 139.422C270.687 138.217 270.39 136.866 270.39 135.661C270.39 135.356 271.139 132.949 271.291 132.644C271.139 131.895 271.139 131.142 271.139 130.393C271.139 129.484 271.588 128.286 271.74 127.377C271.139 126.928 270.39 126.776 269.633 126.776C267.826 126.776 266.168 127.377 264.368 127.377C261.656 127.377 258.495 127.533 255.635 127.08V126.631C255.635 126.026 256.84 125.874 257.289 125.874C261.055 125.874 264.969 126.026 268.579 124.973V124.821C268.579 124.524 267.529 124.668 267.373 124.668C267.077 124.668 266.925 124.524 266.925 124.372C269.184 123.318 273.094 125.425 273.094 121.957C273.094 118.347 277.009 114.89 279.268 112.326C281.672 109.165 283.78 105.4 288.299 105.4H288.903C292.966 107.21 291.768 111.424 294.621 114.133C294.621 115.639 295.378 117.141 295.378 118.651C296.583 120.157 296.123 121.363 296.728 123.01C292.665 124.668 283.635 124.821 278.819 125.874C276.56 129.792 275.506 133.698 275.506 138.065C275.506 145.744 277.613 152.822 278.971 160.346C279.116 160.798 279.116 162.453 280.025 162.301H280.619C281.672 162.301 282.726 163.354 283.483 164.111C284.088 164.111 284.841 164.256 285.438 164.256C288.451 164.256 294.476 163.058 296.123 160.194C298.835 155.675 300.49 152.514 300.49 147.246C300.49 146.193 300.193 140.027 301.247 140.027C301.996 140.027 302.301 142.735 302.301 143.188C302.301 151.164 300.798 159.14 293.871 163.803Z" fill="#FFF"/>
<path d="M350.667 107.496C349.613 107.496 346.148 107.8 346.148 109.306C347.201 109.306 348.255 108.854 349.309 108.854C351.116 108.854 352.774 108.702 354.585 108.702C353.375 108.101 352.017 107.496 350.667 107.496ZM330.346 138.502C329.894 137.601 330.191 137.304 330.191 136.395C330.191 135.946 329.894 135.494 329.59 135.342L329.293 135.494V142.42C329.293 147.84 328.985 153.104 328.985 158.524C328.985 158.524 329.137 159.886 329.293 159.886C329.293 159.426 329.293 155.364 329.445 155.211C329.59 155.816 329.59 156.265 329.59 156.718C330.795 156.87 330.346 155.664 330.346 154.915C330.346 154.61 330.499 154.314 330.643 154.013V152.655V153.412C330.499 154.314 330.499 155.211 330.499 156.12C330.499 156.12 330.499 157.022 330.643 157.174C331.244 156.12 331.092 154.915 331.092 153.709C331.092 152.503 331.244 151.153 331.849 149.947C331.244 146.634 331.849 141.367 330.346 138.502ZM329.293 112.014C328.84 113.068 328.536 114.122 328.536 115.175C328.536 116.381 328.688 117.587 328.688 118.937C328.688 119.39 328.688 119.838 329.137 120.143C329.293 118.785 329.445 117.282 329.445 115.932V114.879C329.445 113.97 329.445 112.916 329.293 112.014ZM326.733 126.464C324.625 127.97 323.115 130.078 322.214 132.489H322.819C324.169 130.526 326.428 128.868 327.185 126.464H326.733ZM362.706 117.435C361.805 116.381 361.957 114.879 361.356 113.825C359.849 110.36 353.98 109.459 350.667 109.459C342.69 109.459 330.191 118.64 330.191 127.366C330.191 127.97 330.346 131.127 330.643 131.435C330.643 131.283 330.643 131.127 330.795 131.127C330.795 131.127 330.947 131.58 331.092 132.489L330.947 133.09L331.4 133.543C331.4 137.304 333.199 140.617 333.199 144.227C333.199 146.03 332.751 147.992 332.751 149.647C332.751 151.153 333.055 152.655 333.055 154.158C333.055 157.627 330.643 168.608 329.59 172.373C329.59 172.677 329.445 172.822 329.137 172.822C328.84 172.822 328.688 172.822 328.536 172.677V171.023C328.688 165.603 327.482 160.031 328.239 154.61C327.33 151.45 328.087 134.288 327.786 129.024H327.033L322.971 133.39H322.666C322.062 133.39 321.917 132.337 321.457 132.337C321.16 132.337 320.863 132.634 320.711 132.938L319.658 133.09C319.505 132.938 319.353 132.786 319.353 132.489C319.353 131.58 320.711 130.831 321.008 129.929C321.917 128.868 323.872 128.275 323.872 126.464C328.84 123.151 327.185 122.702 327.185 116.533C327.185 112.167 328.536 107.648 327.786 103.282C328.536 102.532 328.087 101.327 328.087 100.429C328.087 99.3753 328.84 98.9151 329.894 99.0672C330.499 100.726 329.894 102.532 329.894 104.191C329.894 105.092 330.038 105.849 330.346 106.442C330.947 109.459 331.244 112.467 331.4 115.48C331.092 116.077 330.947 116.678 330.947 117.435C330.947 118.039 331.244 118.785 331.697 119.237C338.772 114.274 340.13 106.594 351.416 106.594C357.438 106.594 359.096 108.405 362.409 112.916C362.706 114.274 362.561 115.48 363.163 116.678L362.706 117.435Z" fill="#FFF"/>
<path d="M539.32 149.403H538.571L541.283 148.798C540.979 148.951 539.472 149.403 539.32 149.403ZM542.337 148.798H541.58L542.337 148.35C541.58 148.35 540.979 148.35 540.374 148.049C537.061 148.646 533.603 148.798 530.442 149.403C530.29 149.403 529.993 149.704 529.993 149.704C529.993 149.852 529.993 149.852 530.137 150.004C531.648 150.004 533.15 150.305 534.809 150.305C536.159 150.305 537.662 149.852 539.023 149.704C537.818 150.605 533.603 150.457 531.944 150.457C531.343 150.457 530.891 150.605 530.442 150.757C530.738 151.659 531.792 151.959 532.096 152.864C535.402 156.174 538.419 160.84 540.823 164.754C540.823 165.207 540.979 165.96 541.283 166.261V166.861C541.283 167.162 541.732 167.618 542.028 167.767H542.184C542.184 167.915 542.028 168.067 542.028 168.216C542.028 168.82 543.39 169.269 543.39 169.722C543.39 169.874 543.39 170.026 543.238 170.026C541.876 169.874 541.58 169.121 540.979 168.067C539.624 167.162 539.32 165.207 537.662 164.454C537.365 163.252 536.612 163.4 536.159 162.198L534.809 159.186C535.402 159.338 535.862 159.787 535.862 160.392C536.764 162.499 538.266 163.853 539.32 165.808C539.769 165.96 539.769 166.565 540.374 166.713C539.472 164.153 537.97 160.84 535.558 159.186C535.558 158.733 535.402 158.132 534.809 158.132C534.504 158.132 534.504 158.733 534.656 158.885C534.052 157.984 533.755 157.079 532.846 156.474L532.998 156.174C532.998 155.42 532.549 154.819 531.944 154.671C531.648 153.618 530.442 154.671 529.837 153.465C529.388 152.412 528.03 152.111 527.129 152.111C524.416 156.174 514.485 165.66 513.127 169.722C512.225 169.874 511.624 170.475 510.723 170.475C510.57 170.475 509.966 170.475 509.966 170.174C509.966 169.874 510.57 169.57 510.723 169.121C512.225 166.713 525.626 152.712 525.626 150.906C525.626 150.457 524.572 150.156 524.12 150.156C523.663 150.004 523.066 149.852 522.61 149.852C521.259 149.852 520.053 150.156 518.699 150.156C515.538 150.156 512.225 150.757 508.912 150.757C508.311 150.757 508.615 150.156 508.159 149.704C509.212 149.552 510.118 148.798 511.171 148.798C511.472 148.798 512.073 148.951 512.526 149.251C513.431 149.251 514.332 149.403 515.234 149.403C518.547 149.403 523.211 149.251 526.372 148.498C526.524 148.35 526.68 148.35 526.68 148.197C526.68 148.049 525.923 147.897 526.075 147.444C526.075 146.843 522.61 143.831 522.61 142.93C522.762 142.93 522.762 142.777 522.762 142.777C522.762 141.123 517.493 134.953 516.135 133.447V133.295C516.135 132.394 515.386 131.941 515.386 131.188C515.386 130.888 515.839 130.587 516.135 130.587C516.592 130.587 516.892 131.188 517.189 131.492C517.045 131.641 516.892 131.793 516.892 131.941C516.892 132.694 520.206 136.909 520.502 136.909C520.654 136.909 520.654 136.456 520.807 136.456C524.264 138.563 525.173 142.481 527.425 145.486C529.685 145.486 534.656 133.295 537.517 132.242H537.818C535.257 136.007 532.397 139.617 530.29 143.683L530.586 143.983C531.944 143.382 531.648 141.876 532.245 141.427C532.549 140.971 534.052 140.073 534.052 139.617C534.052 139.316 537.818 134.653 538.571 132.995C539.32 132.242 539.769 131.34 540.526 130.439L539.472 130.735C539.769 129.533 542.337 128.031 543.535 128.179C542.184 130.587 539.624 131.941 538.571 134.497C537.213 137.361 535.71 139.016 533.755 141.427V141.575C533.755 142.024 532.846 142.481 532.846 142.93C531.944 144.432 529.084 146.09 529.084 148.197C529.533 148.35 530.137 148.35 530.586 148.35C534.504 148.35 538.571 147.444 542.481 147.444C543.839 147.444 545.794 147.296 547 147.897C545.498 148.498 543.839 148.646 542.337 148.798Z" fill="#FFF"/>
<path d="M551.131 172.795C551.488 171.654 551.8 170.437 552.108 169.189C552.409 168.79 552.725 168.406 553.014 167.995C553.014 169.859 552.032 171.304 551.131 172.795ZM541.876 187.412C541.724 188.165 541.131 188.314 540.526 188.466C541.104 186.842 541.853 185.313 542.587 183.799C544.044 183.244 545.345 181.988 546.749 181.243C545.25 183.392 543.645 185.472 541.876 187.412ZM549.959 171.97C549.043 173.91 547.92 176.043 546.54 178.679C545.379 179.166 544.813 180.36 544.014 181.22C544.166 180.771 544.314 180.307 544.588 180.033C545.882 177.044 547.913 174.514 549.959 171.97ZM533.142 193.886C532.089 195.841 527.878 198.249 525.923 198.249C523.815 198.249 522.005 196.294 519.897 196.141C519.448 194.639 517.79 195.388 516.736 194.639C514.18 192.828 510.715 189.219 509.212 186.507C506.652 181.692 504.393 175.37 503.042 170.254C502.437 168.147 502.437 155.953 502.437 153.393C502.437 144.364 502.133 137.289 505.899 129.009C505.899 127.202 507.706 126.152 507.706 124.794V124.193C508.76 122.991 508.76 121.033 510.118 119.979C511.472 115.613 515.53 112.901 517.638 108.838C519.296 108.085 519.753 105.83 521.259 104.776C524.565 102.665 528.03 99.6567 532.241 99.6567C532.694 99.9609 533.142 100.258 533.747 100.258C534.052 100.258 534.196 100.109 534.504 100.109L535.105 99.6567C535.71 99.8088 536.456 100.41 536.764 99.3562C539.472 99.9609 543.234 98.6069 544.893 101.612C550.762 105.377 548.955 113.357 551.359 118.773C551.816 123.589 552.268 128.408 552.413 133.375C552.565 140.145 553.466 146.92 553.466 153.846C553.466 159.429 553.078 163.005 552.147 166.291C551.546 167.447 550.918 168.573 550.305 169.802C548.655 170.703 548.35 173.111 546.54 173.716C545.391 175.903 543.995 178.991 542.393 182.118C542.367 182.118 542.355 182.14 542.329 182.14C542.135 181.985 542.097 181.76 541.979 181.57C541.572 182.061 541.172 182.555 540.708 182.992C540.937 183.32 541.161 183.658 541.435 183.913C539.042 188.333 536.258 192.494 533.142 193.886ZM522.157 200.656C517.493 200.656 512.225 199.002 509.517 195.088C507.409 192.38 504.545 189.82 503.187 186.507C501.836 185.005 497.317 166.941 497.317 164.23C497.317 164.081 497.317 163.476 497.774 163.476C499.577 163.476 502.89 173.111 503.187 174.465C504.545 178.98 507.105 183.799 509.212 188.013C510.418 190.124 512.073 191.627 513.279 193.734C514.785 194.183 515.53 195.841 517.189 196.141C517.942 197.495 519.448 197.644 520.35 198.701C520.951 198.701 522.609 199.154 522.609 199.903C522.609 200.207 522.609 200.656 522.157 200.656ZM557.985 154.899C557.229 155.5 555.878 156.406 556.03 157.608V158.056C554.824 159.867 554.672 161.974 553.466 163.781C553.349 163.971 553.269 164.18 553.155 164.37C555.015 154.215 555.581 142.561 555.581 135.931C555.581 129.762 553.466 123.741 552.869 117.571C552.565 112.752 552.413 107.484 549.252 103.571C546.091 99.9609 541.724 97.249 536.764 97.249C536.007 97.249 535.257 97.249 534.504 97.3973C533.899 96.9485 533.142 96.7964 532.397 96.7964C530.137 96.7964 528.327 98.4509 526.219 98.4509C525.622 98.4509 525.021 98.3026 524.565 98.1505L523.815 98.9074L526.524 99.0557C526.676 99.3562 526.976 99.6567 526.976 99.9609C526.976 100.862 524.416 100.558 524.112 102.068C519.296 104.624 514.18 110.797 511.316 115.312C509.661 118.02 508.159 121.333 506.652 124.193C506.5 124.342 505.446 126.601 505.15 126.601C505.15 127.655 504.845 128.56 504.697 129.461C503.491 130.667 504.241 132.923 503.042 134.128C501.232 139.845 499.729 146.92 499.729 152.792C499.729 153.241 499.425 153.393 498.972 153.542C498.828 152.188 498.371 150.685 498.523 149.179V148.277C499.124 134.729 499.425 123.288 507.409 111.547C513.423 102.665 521.103 101.311 523.363 98.6069C522.914 98.6069 522.609 98.4509 522.157 98.4509C520.951 98.4509 519.753 99.0557 519.152 100.109C510.57 102.966 506.355 110.797 502.738 118.321C502.133 119.226 501.384 119.827 501.232 121.033C500.631 123.741 500.178 126.301 499.124 129.009C498.828 130.062 498.227 131.721 498.227 132.774C498.227 133.676 498.675 134.577 498.675 135.482C498.675 136.684 498.523 137.738 498.227 138.944C496.568 147.224 496.119 156.254 496.119 164.686C496.119 171.456 499.124 177.477 501.232 183.65C503.491 190.272 508.311 195.693 513.423 200.207L517.189 200.808C518.098 201.561 519.152 201.862 520.35 201.862C522.005 201.862 523.663 201.261 525.318 201.409H525.923C528.03 200.059 531.64 199.154 533.295 197.347C533.747 197.047 534.052 195.993 534.656 195.993C534.801 195.993 534.953 195.993 535.105 196.141C538.266 192.68 542.18 189.82 545.037 186.206C546.54 184.4 547.449 182.14 548.803 180.189C549.252 179.584 549.252 178.679 550.009 178.23C551.816 173.716 559.039 159.266 559.039 155.352V154.899H557.985Z" fill="#FFF"/>
<path d="M526.68 199.294C526.528 199.294 526.375 199.447 526.375 199.595H526.68C526.68 199.447 526.68 199.447 526.824 199.447C526.824 199.294 526.824 199.294 526.68 199.294Z" fill="#FFF"/>
<path d="M285.259 277.377C282.098 278.576 282.098 281.139 279.839 282.798L280.443 283.094C281.649 281.889 285.563 280.234 285.563 278.431C285.563 278.127 285.411 277.674 285.259 277.377ZM284.358 271.056C284.654 270.752 284.81 270.303 284.81 269.85C284.81 268.941 284.358 268.044 284.358 266.99C282.25 262.928 281.044 258.257 278.336 254.347C276.525 253.898 277.731 252.384 276.381 251.791C275.776 249.224 274.273 247.272 272.311 245.766C271.862 244.713 270.355 242.157 269.306 241.7V242.453C270.203 243.058 270.511 243.959 270.96 244.713C274.878 251.034 279.39 257.203 281.801 264.278C282.551 266.99 284.053 270.303 284.053 273.163C284.053 274.361 283.909 275.415 283.304 276.468C283.304 276.773 283.601 277.073 283.909 276.929C284.654 276.02 284.81 274.966 284.81 273.76C284.81 272.859 284.654 271.957 284.358 271.056ZM268.549 240.647L268.252 240.799L268.549 240.951V240.647ZM266.89 236.881C265.388 235.98 265.836 234.629 263.885 233.119C263.729 232.975 263.885 232.667 263.885 232.37C263.885 231.921 263.28 231.921 262.984 231.921V232.522C262.984 234.774 265.54 236.737 266.593 238.844C267.35 239.14 266.593 239.897 268.096 239.897C268.096 238.844 267.198 237.935 266.89 236.881ZM272.915 209.64C272.166 209.64 269.458 210.69 268.853 211.295C264.783 212.5 260.876 218.217 260.876 222.431C260.876 225.592 262.227 228.608 262.679 231.769C264.037 233.876 264.783 235.98 266.89 237.638H267.198C266.441 234.629 264.189 231.921 264.189 228.76C263.28 227.707 262.379 226.049 262.379 224.691C262.379 222.135 263.585 219.723 264.638 217.616C266.441 216.266 266.441 214.311 268.096 212.953L269.754 212.652C270.808 211.599 272.915 210.69 273.516 209.64H272.915ZM290.832 217.011C290.383 217.011 289.923 216.715 289.923 216.11C286.617 212.652 284.053 209.492 278.785 209.492C274.878 209.492 272.014 212.051 268.549 213.402C265.836 216.266 263.28 220.028 263.28 224.242C263.28 226.197 263.885 228.004 264.939 229.51C265.388 232.667 267.647 235.379 267.799 238.539C268.404 238.988 270.96 242.004 271.409 242.754C272.915 245.614 273.068 244.857 275.624 246.972C278.785 249.676 277.731 254.644 281.801 258.113C283.456 261.722 286.617 265.332 286.617 269.401C286.617 270.303 286.313 271.056 286.313 271.957C286.313 273.616 286.918 275.27 286.918 276.929C286.918 277.826 286.762 278.728 286.313 279.333C280.443 282.942 279.238 284.444 271.717 284.444C264.189 284.444 262.831 278.127 257.86 274.513V274.217C257.86 273.76 258.465 273.308 258.465 272.707C258.465 272.406 258.164 272.11 257.86 272.11L258.164 271.653C259.823 272.707 260.724 274.513 262.227 275.875H263.28C265.243 280.386 267.042 282.942 272.619 282.942C275.023 282.942 277.282 282.341 279.39 281.288C282.855 279.781 281.497 277.674 282.855 274.966V273.912C283.304 265.78 270.656 247.425 264.638 241.4C263.885 239.448 261.778 238.087 261.477 235.98C260.424 234.173 259.823 233.119 259.823 230.868C259.823 227.707 259.066 224.394 259.066 221.081C260.119 219.271 260.271 217.011 261.778 215.509C266.593 210.846 270.656 207.837 277.883 207.837C281.801 207.837 291.581 210.846 291.581 216.266C291.581 216.563 291.128 217.011 290.832 217.011Z" fill="#FFF"/>
<path d="M335.85 219.126C334.941 217.769 334.348 216.715 332.385 216.715C332.088 216.715 331.636 217.012 331.636 217.468V217.616L331.932 217.468C334.04 217.468 334.348 219.271 335.85 220.028V219.126ZM334.04 274.514C333.439 274.966 332.385 274.666 331.636 274.666C331.179 274.666 330.582 274.814 330.582 275.415C330.582 276.621 334.04 276.324 334.645 276.324C335.093 276.172 336.299 275.567 336.299 274.966C335.995 274.362 334.645 274.514 334.04 274.514ZM338.407 227.102C337.049 226.049 337.049 224.09 336.6 223.485L332.385 219.126H332.088C330.43 219.126 326.516 230.408 325.911 232.37C326.36 232.819 326.965 232.975 327.566 232.975C329.072 232.975 330.43 232.37 332.088 232.523C334.797 231.922 337.653 232.37 340.362 231.613L338.407 227.102ZM321.095 232.37C321.095 232.819 321.399 233.424 322 233.272H322.75C323.651 233.272 324.408 232.523 324.56 231.613C325.614 228.453 327.874 225.296 328.17 222.135C324.857 223.942 321.095 228.453 321.095 232.37ZM321.247 236.132L321.095 236.28C318.988 238.087 319.292 237.79 319.292 240.346C319.292 241.4 318.687 242.454 318.687 243.507C318.687 244.264 319.292 244.713 319.292 245.462C319.292 245.911 318.836 246.668 318.687 246.972C318.687 249.079 318.383 251.034 318.383 253.142C318.383 254.796 320.49 263.674 321.544 263.982C321.399 263.073 321.544 262.323 321.544 261.422C321.544 260.669 321.399 259.912 320.947 259.463C321.095 259.01 321.247 258.562 321.247 258.109C321.247 256.15 319.589 251.639 319.589 249.224C319.589 245.911 321.095 240.346 322.75 237.342V237.186C322.75 236.433 321.848 236.132 321.247 236.132ZM339.612 273.612C336.147 275.875 337.201 277.378 332.088 277.378C329.981 277.378 327.874 276.925 326.063 276.172C317.033 267.142 318.383 261.57 315.675 250.133L316.428 249.224C316.428 248.026 316.131 246.668 316.131 245.462C316.131 245.166 316.88 242.75 317.033 242.454C316.88 241.697 316.88 240.951 316.88 240.194C316.88 239.293 317.329 238.087 317.481 237.186C316.88 236.737 316.131 236.585 315.374 236.585C313.567 236.585 311.909 237.186 310.11 237.186C307.397 237.186 304.236 237.342 301.376 236.881V236.433C301.376 235.828 302.582 235.683 303.031 235.683C306.796 235.683 310.711 235.828 314.32 234.774V234.63C314.32 234.325 313.271 234.478 313.115 234.478C312.818 234.478 312.666 234.325 312.666 234.173C314.925 233.12 318.836 235.227 318.836 231.766C318.836 228.156 322.75 224.691 325.009 222.135C327.413 218.974 329.521 215.209 334.04 215.209H334.645C338.707 217.012 337.509 221.234 340.362 223.942C340.362 225.448 341.119 226.95 341.119 228.453C342.325 229.959 341.864 231.165 342.469 232.819C338.407 234.478 329.376 234.63 324.56 235.683C322.301 239.593 321.247 243.507 321.247 247.874C321.247 255.545 323.355 262.62 324.713 270.147C324.857 270.6 324.857 272.254 325.766 272.11H326.36C327.413 272.11 328.467 273.163 329.224 273.913C329.829 273.913 330.582 274.065 331.179 274.065C334.196 274.065 340.217 272.859 341.864 269.995C344.576 265.484 346.231 262.323 346.231 257.055C346.231 256.002 345.934 249.829 346.988 249.829C347.737 249.829 348.042 252.537 348.042 252.989C348.042 260.965 346.539 268.942 339.612 273.612Z" fill="#FFF"/>
<path d="M396.808 219.126C395.899 217.769 395.298 216.715 393.343 216.715C393.046 216.715 392.593 217.012 392.593 217.468V217.616L392.89 217.468C394.997 217.468 395.298 219.271 396.808 220.028V219.126ZM394.997 274.514C394.396 274.966 393.343 274.666 392.593 274.666C392.137 274.666 391.54 274.814 391.54 275.415C391.54 276.621 394.997 276.324 395.602 276.324C396.051 276.172 397.257 275.567 397.257 274.966C396.953 274.362 395.602 274.514 394.997 274.514ZM399.364 227.102C398.006 226.049 398.006 224.09 397.557 223.485L393.343 219.126H393.046C391.388 219.126 387.473 230.408 386.868 232.37C387.317 232.819 387.922 232.975 388.523 232.975C390.03 232.975 391.388 232.37 393.046 232.523C395.754 231.922 398.611 232.37 401.319 231.613L399.364 227.102ZM382.053 232.37C382.053 232.819 382.357 233.424 382.958 233.272H383.707C384.609 233.272 385.366 232.523 385.518 231.613C386.572 228.453 388.831 225.296 389.128 222.135C385.815 223.942 382.053 228.453 382.053 232.37ZM382.205 236.132L382.053 236.28C379.945 238.087 380.25 237.79 380.25 240.346C380.25 241.4 379.645 242.454 379.645 243.507C379.645 244.264 380.25 244.713 380.25 245.462C380.25 245.911 379.793 246.668 379.645 246.972C379.645 249.079 379.341 251.034 379.341 253.142C379.341 254.796 381.448 263.674 382.502 263.982C382.357 263.073 382.502 262.323 382.502 261.422C382.502 260.669 382.357 259.912 381.904 259.463C382.053 259.01 382.205 258.562 382.205 258.109C382.205 256.15 380.546 251.639 380.546 249.224C380.546 245.911 382.053 240.346 383.707 237.342V237.186C383.707 236.433 382.806 236.132 382.205 236.132ZM400.57 273.612C397.105 275.875 398.158 277.378 393.046 277.378C390.939 277.378 388.831 276.925 387.021 276.172C377.99 267.142 379.341 261.57 376.632 250.133L377.385 249.224C377.385 248.026 377.089 246.668 377.089 245.462C377.089 245.166 377.838 242.75 377.99 242.454C377.838 241.697 377.838 240.951 377.838 240.194C377.838 239.293 378.287 238.087 378.439 237.186C377.838 236.737 377.089 236.585 376.332 236.585C374.525 236.585 372.866 237.186 371.067 237.186C368.355 237.186 365.194 237.342 362.333 236.881V236.433C362.333 235.828 363.539 235.683 363.988 235.683C367.754 235.683 371.668 235.828 375.278 234.774V234.63C375.278 234.325 374.228 234.478 374.072 234.478C373.776 234.478 373.623 234.325 373.623 234.173C375.883 233.12 379.793 235.227 379.793 231.766C379.793 228.156 383.707 224.691 385.967 222.135C388.371 218.974 390.486 215.209 394.997 215.209H395.602C399.665 217.012 398.467 221.234 401.319 223.942C401.319 225.448 402.076 226.95 402.076 228.453C403.282 229.959 402.822 231.165 403.427 232.819C399.364 234.478 390.334 234.63 385.518 235.683C383.259 239.593 382.205 243.507 382.205 247.874C382.205 255.545 384.312 262.62 385.663 270.147C385.815 270.6 385.815 272.254 386.724 272.11H387.317C388.371 272.11 389.425 273.163 390.182 273.913C390.786 273.913 391.54 274.065 392.137 274.065C395.153 274.065 401.175 272.859 402.822 269.995C405.534 265.484 407.189 262.323 407.189 257.055C407.189 256.002 406.892 249.829 407.946 249.829C408.695 249.829 408.999 252.537 408.999 252.989C408.999 260.965 407.497 268.942 400.57 273.612Z" fill="#FFF"/>
<path d="M471.554 243.944L471.105 244.701C471.105 244.998 471.25 245.302 471.554 245.447C471.699 245.302 471.851 244.998 471.851 244.846C471.851 244.549 471.699 244.249 471.554 243.944ZM468.846 266.823C468.538 267.576 468.393 268.333 468.393 269.082C468.393 270.288 468.538 275.404 469.295 275.86C469.743 274.951 469.896 273.897 469.896 272.996C469.896 271.79 469.896 266.975 468.846 266.823ZM468.393 228.289C468.393 228.745 468.089 229.343 468.089 229.799C468.089 230.096 468.393 230.548 468.538 230.548C469.142 230.548 469.591 229.198 469.896 228.745C469.896 228.144 468.69 228.289 468.393 228.289ZM468.846 237.022C468.846 236.12 469.591 235.211 469.591 234.31V234.013C469.142 233.409 469.447 231.45 468.846 231.45C468.538 231.45 467.937 231.906 467.792 232.051C467.636 234.915 467.636 237.923 467.636 240.784V245.899C467.636 251.175 467.339 257.188 468.089 262.312C468.241 263.057 468.241 264.111 469.142 264.111C469.896 261.106 469.743 257.645 469.743 254.632C469.743 250.418 469.142 246.356 469.142 242.141C469.142 240.936 469.295 239.578 469.896 238.524C469.295 238.228 468.846 237.775 468.846 237.022ZM465.08 229.042C462.219 229.943 459.507 231.149 456.951 232.808L457.4 232.96C458.454 231.906 463.577 230.997 465.08 230.997C466.134 230.997 466.582 230.548 466.582 229.495C466.582 228.89 465.533 229.042 465.08 229.042ZM466.134 239.281C467.035 237.022 465.981 234.763 466.582 232.511L466.134 231.754H465.232C461.615 231.45 458.758 234.158 455.14 234.31C454.239 235.364 452.736 235.211 451.683 236.265C445.965 237.923 440.842 242.286 436.475 246.204C433.766 248.608 432.713 253.427 432.865 256.892C432.412 257.645 432.26 258.546 432.26 259.296C432.26 266.823 441.146 269.234 447.164 269.234C452.432 269.234 461.767 267.279 466.286 264.868C466.286 263.966 466.43 263.057 466.883 262.312C465.829 254.784 466.43 246.808 466.134 239.281ZM437.681 268.333C434.52 267.876 431.963 264.868 431.206 261.859C431.054 261.106 431.514 260.653 431.514 259.896C431.514 259.6 431.362 259.448 431.206 259.151C429.099 260.052 428.498 262.464 428.045 264.571C430.309 269.234 436.475 271.045 441.294 271.638C442.2 271.045 444.451 272.098 444.912 270.889C442.797 269.234 439.788 269.983 437.681 268.333ZM429.099 257.645C428.346 258.394 426.695 259.295 426.695 260.501C426.695 260.653 426.695 260.95 426.839 261.106L427.596 260.806C427.749 259.752 429.099 258.847 429.099 257.793V257.645ZM479.082 262.913C476.822 263.057 474.867 264.419 472.76 265.317C471.851 268.785 472.159 272.547 472.159 276.157C472.159 277.21 472.159 278.264 472.003 279.317H471.699C470.949 279.165 470.052 280.219 469.295 280.219C468.998 280.219 468.69 280.074 468.393 279.77C467.339 276.157 467.035 272.098 467.035 268.333L466.582 267.279C462.219 268.629 458.005 270.584 453.493 270.584C451.078 271.493 444.912 271.942 442.2 271.942C434.367 271.942 435.124 270.136 428.802 267.876C428.346 267.424 428.045 267.732 427.596 267.876C425.786 263.814 425.185 264.868 425.185 260.052C425.185 259.448 425.185 258.847 425.489 258.394C426.995 257.188 427.749 249.212 429.552 248.916C442.047 235.668 449.271 231.602 466.582 226.783L467.035 225.729V220.617C467.187 220.762 467.187 220.914 467.187 220.914C467.339 220.914 467.484 220.762 467.484 220.617C467.792 219.259 467.792 217.601 467.792 216.099L467.937 214.44C467.937 212.485 466.582 211.884 466.582 208.275C466.582 205.859 467.187 203.303 467.187 200.747C467.187 199.694 466.883 198.792 466.738 197.587C465.829 192.463 465.981 186.899 465.981 181.779C465.981 176.815 466.134 171.692 466.286 166.725C465.981 166.58 466.286 162.062 466.286 161.312C466.286 160.403 466.286 157.55 466.582 158.604C466.134 156.497 465.981 154.238 465.685 152.13C465.829 151.822 465.829 151.678 465.829 151.526C465.829 150.925 465.685 150.472 465.685 150.023L465.981 149.266H466.43C468.846 149.266 469.142 158.749 469.142 161.008C469.142 163.868 468.393 166.58 468.393 169.433C468.393 174.404 468.69 179.219 468.69 184.038C468.69 185.99 468.69 188.702 469.743 190.508C470.949 189.755 470.348 188.249 470.348 187.043C470.348 178.771 470.949 170.486 470.797 162.062H471.25L471.554 162.51C471.851 163.868 471.699 165.671 471.699 167.029C471.699 178.318 470.645 189.458 470.645 200.747C470.645 200.9 470.797 201.649 470.645 201.801C470.5 200.9 469.743 193.821 469.447 193.669C469.295 194.122 469.295 194.723 469.295 195.175C469.295 198.792 469.447 202.402 469.591 206.015C469.591 210.074 470.052 214.745 471.105 218.807C471.105 218.959 471.402 219.564 471.554 219.564C471.851 218.807 471.851 217.905 471.851 217.152C472.003 218.206 472.159 219.411 472.608 220.465C472.456 220.165 472.456 219.111 472.159 218.807C471.851 219.708 471.851 221.671 471.851 222.572C471.851 223.626 471.554 225.432 472.76 225.729H473.509C473.958 225.729 474.563 225.885 475.012 226.037C475.012 227.54 472.904 226.631 472.003 227.54C472.003 233.409 473.357 239.129 473.357 244.998C473.357 246.652 473.213 248.311 473.213 249.965C473.213 253.731 473.661 257.945 473.057 261.555C473.509 262.16 473.958 262.464 474.563 262.464C475.769 262.464 476.67 261.859 477.724 261.859C478.173 261.555 478.778 261.41 479.379 261.41C479.683 261.41 480.136 261.555 480.584 261.555V262.004C480.584 262.608 479.531 262.761 479.082 262.913Z" fill="#FFF"/>
</svg>
